<svg width="238" height="104" viewBox="0 0 238 104" fill="none" xmlns="http://www.w3.org/2000/svg"><g id="Group 3465274"><g id="Group 3465273"><g id="Capa_1"><g id="icon_ilustracion"><path id="Line-3-Copy-3" d="M66.9482 100.744H165.523" stroke="#C2C2CC" stroke-width="3" stroke-linecap="round"/><path id="Line-3-Copy-2" d="M192.061 100.744H235.768" stroke="#C2C2CC" stroke-width="3" stroke-linecap="round"/><path id="Line-3-Copy-4" d="M15.4839 101.593H41.199" stroke="#C2C2CC" stroke-width="3" stroke-linecap="round"/><path id="Line-3-Copy-5" d="M43.771 101.593H47.1997" stroke="#C2C2CC" stroke-width="3" stroke-linecap="round"/><path id="Line-3-Copy-5-2" d="M168.917 100.744H172.346" stroke="#C2C2CC" stroke-width="3" stroke-linecap="round"/></g><g id="Group-4"><path id="Path" d="M27.982 89.1414C28.1963 89.1414 28.3678 89.2185 28.402 89.3214V101.767C28.402 101.887 28.2135 101.99 27.982 101.99C27.7677 101.99 27.5963 101.913 27.562 101.81V89.3642C27.562 89.2442 27.7506 89.1414 27.982 89.1414Z" fill="#C2C2CC" stroke="#C2C2CC" stroke-linecap="round"/><path id="Path-2" d="M36.5543 86.5709C36.7686 86.5709 36.94 86.6481 36.9743 86.7595V101.777C36.9743 101.897 36.7857 102 36.5543 102C36.34 102 36.1686 101.923 36.1343 101.811V86.7938C36.1343 86.6738 36.3229 86.5709 36.5543 86.5709Z" fill="#C2C2CC" stroke="#C2C2CC" stroke-linecap="round"/><path id="Path-3" d="M32.4394 50.6459C34.8566 50.6459 37.0766 52.8231 37.1538 54.9746V77.7496C37.1538 77.9039 37.0252 78.0325 36.8624 78.0325C36.7166 78.0325 36.6052 77.9296 36.5795 77.801V55.0946C36.5795 53.2517 34.6594 51.2888 32.5679 51.2116H32.1051C30.0136 51.2116 28.0506 53.1317 27.9649 54.9746V81.6326C27.9649 81.7869 27.8364 81.9154 27.6735 81.9154C27.5278 81.9154 27.4163 81.8126 27.3906 81.684V55.0946C27.3906 52.9517 29.5593 50.7316 31.9679 50.6459H32.4394Z" fill="#C2C2CC" stroke="#C2C2CC" stroke-width="1.5" stroke-linecap="round"/><path id="Path-4" d="M14.2681 63.9761C16.6853 63.9761 18.6396 65.9133 18.6396 68.3134C18.6396 68.4677 18.511 68.5963 18.3568 68.5963C18.2025 68.5963 18.0739 68.4677 18.0739 68.3134C18.0739 66.2305 16.3681 64.5418 14.2681 64.5418C12.168 64.5418 10.4622 66.2305 10.4622 68.3134C10.4622 68.4677 10.3336 68.5963 10.1794 68.5963C10.0251 68.5963 9.89648 68.4677 9.89648 68.3134C9.89648 65.9219 11.8508 63.9761 14.2681 63.9761Z" fill="#C2C2CC" stroke="#C2C2CC" stroke-width="1.5" stroke-linecap="round"/><path id="Path-5" d="M10.1794 67.5676C10.3336 67.5676 10.4622 67.6962 10.4622 67.8505C10.4622 78.3765 17.8682 87.4454 28.1799 89.5626C28.3342 89.5969 28.4371 89.7426 28.4028 89.8969C28.3685 90.0512 28.2228 90.154 28.0685 90.1197C17.491 87.9511 9.89648 78.6508 9.89648 67.8505C9.89648 67.6962 10.0251 67.5676 10.1794 67.5676Z" fill="#C2C2CC" stroke="#C2C2CC" stroke-width="1.5" stroke-linecap="round"/><path id="Path-6" d="M18.4066 67.5676C18.5609 67.5676 18.6981 67.6876 18.6981 67.8419C18.8781 73.7392 22.9668 79.6108 28.2212 81.368C28.3669 81.4195 28.4527 81.5823 28.4012 81.728C28.3498 81.8738 28.1869 81.9509 28.0412 81.9081C22.5553 80.0651 18.3209 73.9878 18.1323 67.859C18.1323 67.7047 18.2523 67.5762 18.4066 67.5676Z" fill="#C2C2CC" stroke="#C2C2CC" stroke-width="1.5" stroke-linecap="round"/><path id="Path-7" d="M50.7822 59.8778C53.1994 59.8778 55.1538 61.815 55.1538 64.2151C55.1538 64.3694 55.0252 64.498 54.8709 64.498C54.7166 64.498 54.588 64.3694 54.588 64.2151C54.588 62.1322 52.8823 60.4435 50.7822 60.4435C48.6821 60.4435 46.9764 62.1322 46.9764 64.2151C46.9764 64.3694 46.8478 64.498 46.6935 64.498C46.5392 64.498 46.4106 64.3694 46.4106 64.2151C46.4106 61.8236 48.365 59.8778 50.7822 59.8778Z" fill="#C2C2CC" stroke="#C2C2CC" stroke-width="1.5" stroke-linecap="round"/><path id="Path-8" d="M54.8721 63.9744C55.0264 63.9744 55.155 64.103 55.155 64.2573C55.155 75.1519 47.3462 84.9408 36.983 87.0408C36.8287 87.0751 36.6744 86.9723 36.6487 86.818C36.6144 86.6637 36.7173 86.518 36.8716 86.4837C46.969 84.4436 54.5893 74.8776 54.5893 64.2487C54.5893 64.0944 54.7178 63.9658 54.8721 63.9658V63.9744Z" fill="#C2C2CC" stroke="#C2C2CC" stroke-width="1.5" stroke-linecap="round"/><path id="Path-9" d="M46.6511 63.9735C46.8054 63.9735 46.934 64.1107 46.9254 64.265C46.7368 70.3852 42.4938 76.4711 37.0165 78.314C36.8708 78.3654 36.7079 78.2883 36.6565 78.134C36.6051 77.9797 36.6822 77.8254 36.8365 77.774C42.0824 76.0082 46.1711 70.1366 46.3511 64.2478C46.3511 64.0936 46.4882 63.965 46.6425 63.9735H46.6511Z" fill="#C2C2CC" stroke="#C2C2CC" stroke-width="1.5" stroke-linecap="round"/><path id="Path-10" d="M56.3975 65.5172C56.5432 65.5001 56.6804 65.6115 56.6975 65.783C56.7147 65.9287 56.6289 66.0658 56.5089 66.1087H56.4575L53.3974 66.5373C53.2517 66.5544 53.1145 66.443 53.0974 66.2715C53.0803 66.1258 53.166 65.9887 53.286 65.9458H53.3374L56.3975 65.5172Z" fill="#C2C2CC" stroke="#C2C2CC" stroke-linecap="round"/><path id="Path-11" d="M44.1912 68.0894L47.2341 69.0065C47.3798 69.0494 47.4741 69.2208 47.4313 69.3837C47.397 69.5294 47.2684 69.6237 47.1398 69.6151H47.0884L44.0454 68.6894C43.8997 68.6465 43.8054 68.4751 43.8483 68.3122C43.8826 68.1665 44.0112 68.0722 44.1397 68.0808H44.1912V68.0894Z" fill="#C2C2CC" stroke="#C2C2CC" stroke-linecap="round"/><path id="Path-12" d="M26.1392 61.4207H26.1907L29.2336 62.3464C29.3793 62.3893 29.4736 62.5607 29.4308 62.7236C29.3965 62.8693 29.2679 62.9636 29.1393 62.955H29.0879L26.0449 62.0293C25.8992 61.9864 25.8049 61.815 25.8478 61.6521C25.8821 61.5064 26.0107 61.4121 26.1392 61.4207Z" fill="#C2C2CC" stroke="#C2C2CC" stroke-linecap="round"/><path id="Path-13" d="M26.1392 96.7964H26.1907L29.2336 97.7221C29.3793 97.765 29.4736 97.9364 29.4308 98.0993C29.3965 98.245 29.2679 98.3393 29.1393 98.3307H29.0879L26.0449 97.405C25.8992 97.3621 25.8049 97.1907 25.8478 97.0278C25.8821 96.8821 26.0107 96.7878 26.1392 96.7964Z" fill="#C2C2CC" stroke="#C2C2CC" stroke-linecap="round"/><path id="Path-14" d="M53.7994 74.7496C53.9451 74.7068 54.0908 74.8439 54.1165 75.0497C54.1422 75.2297 54.0651 75.4011 53.9451 75.4697L53.8936 75.4868L50.8421 76.2754C50.6964 76.3183 50.5507 76.1811 50.525 75.9754C50.4993 75.7954 50.5764 75.624 50.6964 75.5554L50.7478 75.5382L53.7994 74.7496Z" fill="#C2C2CC" stroke="#C2C2CC" stroke-linecap="round"/><path id="Path-15" d="M38.8858 59.3702C39.0315 59.3274 39.1772 59.4645 39.2115 59.6703C39.2372 59.8503 39.1601 60.0217 39.0401 60.0903L38.9886 60.1074L35.9371 60.896C35.7914 60.9389 35.6457 60.8017 35.6114 60.596C35.5857 60.416 35.6628 60.2446 35.7828 60.176L35.8343 60.1588L38.8858 59.3702Z" fill="#C2C2CC" stroke="#C2C2CC" stroke-linecap="round"/><path id="Path-16" d="M19.7874 68.6285C19.916 68.5513 20.0703 68.5942 20.1474 68.7228C20.2074 68.8342 20.1817 68.9799 20.0874 69.0571L20.0446 69.0828L17.4816 70.6C17.3531 70.6771 17.1988 70.6343 17.1216 70.5057C17.0616 70.3942 17.0873 70.2485 17.1816 70.1714L17.2245 70.1457L19.7874 68.6285Z" fill="#C2C2CC" stroke="#C2C2CC" stroke-linecap="round"/><path id="Path-17" d="M24.931 78.3669C25.0596 78.2897 25.2139 78.3411 25.291 78.4611C25.351 78.5726 25.3253 78.7183 25.231 78.7954L25.1881 78.8212L22.6252 80.3383C22.4966 80.4155 22.3423 80.3641 22.2652 80.2441C22.2052 80.1326 22.2309 79.9869 22.3252 79.9098L22.368 79.884L24.931 78.3669Z" fill="#C2C2CC" stroke="#C2C2CC" stroke-linecap="round"/><path id="Path-18" d="M34.7025 68.1158C34.831 68.0386 34.9853 68.0815 35.0625 68.2101C35.1225 68.3215 35.0968 68.4672 35.0025 68.5444L34.9596 68.5701L32.3967 70.0873C32.2681 70.1644 32.1138 70.1216 32.0367 69.993C31.9767 69.8816 32.0024 69.7358 32.0967 69.6587L32.1395 69.633L34.7025 68.1158Z" fill="#C2C2CC" stroke="#C2C2CC" stroke-linecap="round"/><path id="Path-19" d="M38.8167 91.7049C38.9453 91.6277 39.0996 91.6706 39.1767 91.7992C39.2367 91.9106 39.211 92.0563 39.1167 92.1335L39.0739 92.1592L36.5109 93.6764C36.3824 93.7535 36.2281 93.7107 36.1509 93.5821C36.0909 93.4707 36.1166 93.3249 36.2109 93.2478L36.2538 93.2221L38.8167 91.7049Z" fill="#C2C2CC" stroke="#C2C2CC" stroke-linecap="round"/><path id="Path-20" d="M8.19018 74.2441L11.2331 75.1613C11.3789 75.2041 11.4731 75.3756 11.4303 75.5384C11.396 75.6841 11.2674 75.7784 11.1388 75.7699H11.0874L8.04446 74.8441C7.89874 74.8013 7.80445 74.6298 7.84731 74.467C7.8816 74.3212 8.01018 74.227 8.13875 74.2355H8.19018V74.2441Z" fill="#C2C2CC" stroke="#C2C2CC" stroke-linecap="round"/></g><path id="Fill 1" fill-rule="evenodd" clip-rule="evenodd" d="M207.617 67.3709C207.885 67.5842 208.247 67.575 208.467 67.3627C208.488 67.3423 208.508 67.3199 208.526 67.2956C208.735 67.0202 208.666 66.6074 208.372 66.3734C206.929 65.2251 205.238 64.4301 203.481 64.0743C203.123 64.0018 202.799 64.2301 202.758 64.584C202.717 64.938 202.974 65.2837 203.331 65.3562C204.871 65.668 206.353 66.3646 207.617 67.3709Z" fill="#C2C2CC"/><path id="Fill 3" fill-rule="evenodd" clip-rule="evenodd" d="M197.807 66.3975C202.912 68.7267 205.635 72.0222 207.08 75.0246L203.96 73.7307C203.612 73.5864 203.211 73.7521 203.064 74.1011C202.917 74.4501 203.08 74.8499 203.428 74.9942L207.814 76.8132C208.152 77.7995 208.362 78.7192 208.491 79.5185C208.268 79.6344 206.791 80.3575 204.841 80.2447L204.139 78.6082C203.99 78.2622 203.588 78.1042 203.241 78.2553C202.894 78.4065 202.733 78.8094 202.881 79.1554L203.226 79.9579C202.742 79.8114 202.244 79.6033 201.742 79.3162C201.415 79.1296 200.997 79.2444 200.807 79.5723C200.618 79.9006 200.729 80.318 201.056 80.5046C204.357 82.3905 207.449 81.4517 208.655 80.9443C208.694 81.5165 208.689 81.9537 208.68 82.2135C208.629 82.2601 208.579 82.3061 208.528 82.3517C208.518 82.3595 208.508 82.3666 208.498 82.3749C205.824 84.7071 202.236 85.337 199.088 84.3198C198.79 83.8518 197.9 82.2843 198.055 80.5203C198.088 80.1439 197.81 79.8144 197.434 79.7841C197.058 79.754 196.726 80.0345 196.693 80.4108C196.592 81.5518 196.828 82.6025 197.134 83.437C196.412 83.0076 195.735 82.4769 195.125 81.8451C191.416 78.0039 191.548 71.8373 195.419 68.0986C196.135 67.4069 196.939 66.837 197.807 66.3975ZM191.292 68.7157C191.503 69.3932 191.738 70.0564 191.988 70.6927C191.041 72.866 190.816 75.2803 191.322 77.5621L190.191 76.7535C189.885 76.5347 189.458 76.6068 189.237 76.9143C189.015 77.2218 189.084 77.6486 189.39 77.8674L192.072 79.7858C192.573 80.8713 193.26 81.8914 194.136 82.7979C195.582 84.2961 197.357 85.2965 199.243 85.7919C195.878 85.714 192.551 84.3723 190.043 81.7756C186.736 78.3513 185.532 73.3693 186.9 68.7737C187.008 68.4111 186.802 68.0321 186.44 67.927C186.078 67.8219 185.698 68.0307 185.59 68.3932C184.861 70.8418 184.796 73.3896 185.334 75.7955L184.258 75.1516C183.935 74.9585 183.514 75.0645 183.319 75.3891C183.123 75.7133 183.226 76.1328 183.549 76.3261L185.911 77.7401C186.598 79.5753 187.655 81.2791 189.056 82.7292C190.064 83.7729 191.192 84.6319 192.399 85.3075L191.979 85.618C191.674 85.8437 191.608 86.2716 191.831 86.5744C192.054 86.8772 192.482 86.9401 192.786 86.7147L193.773 85.9847C199.042 88.239 205.411 87.2617 209.814 83.01C215.06 77.9436 215.757 69.9245 211.796 64.1408L211.79 61.377C211.789 60.9995 211.482 60.6967 211.104 60.7005C210.727 60.7044 210.421 61.0134 210.422 61.391L210.425 62.4313C210.369 62.372 210.314 62.3124 210.258 62.2538C208.324 60.2512 205.885 58.8836 203.257 58.2391L200.979 55.8802C200.717 55.6097 200.285 55.6038 200.012 55.8671C199.739 56.1304 199.73 56.5632 199.991 56.8337L200.991 57.8693C199.358 57.7312 197.688 57.8639 196.052 58.2895C195.686 58.3847 195.464 58.758 195.556 59.1233C195.649 59.4885 196.02 59.7075 196.387 59.6123C200.329 58.5869 204.486 59.4282 207.675 61.8046L207.105 61.897C206.732 61.9575 206.476 62.3086 206.533 62.6811C206.591 63.0537 206.94 63.3068 207.313 63.2464L209.031 62.9678C209.112 63.0468 209.192 63.1259 209.27 63.2072C211.785 65.8116 213.01 69.1967 212.963 72.5723C212.65 71.17 212.069 69.8335 211.241 68.6548C211.024 68.3469 210.598 68.2748 210.288 68.4933C209.979 68.712 209.903 69.1387 210.12 69.4463C212.489 72.8178 212.396 77.4021 210.003 80.7197C209.835 78.5404 209.103 74.753 206.266 71.1454C206.456 70.5842 206.742 69.4321 206.44 68.1898C206.351 67.8236 205.982 67.6013 205.615 67.6931C205.248 67.7848 205.022 68.1562 205.111 68.5224C205.228 69.0046 205.22 69.477 205.167 69.8745C203.743 68.3738 201.908 66.9437 199.544 65.7202C199.962 65.6018 200.389 65.5093 200.824 65.4466C201.198 65.3929 201.461 65.0464 201.41 64.6727C201.359 64.299 201.014 64.0398 200.64 64.0936C199.65 64.2358 198.697 64.5075 197.797 64.8972C197.218 64.6496 196.612 64.4134 195.977 64.1907C195.622 64.0658 195.23 64.2535 195.103 64.6098C194.975 64.9661 195.16 65.3561 195.515 65.4809C195.754 65.5645 195.988 65.6504 196.218 65.7379C195.597 66.1362 195.012 66.5981 194.47 67.121C193.846 67.7237 193.307 68.3817 192.854 69.0798C192.765 68.822 192.679 68.5621 192.597 68.2992C192.485 67.9397 192.101 67.7414 191.741 67.8565C191.381 67.9715 191.18 68.3562 191.292 68.7157Z" fill="#C2C2CC"/></g><g id="Capa_4"><g id="Group-13"><g id="Group"><path id="Stroke-1" d="M61.0864 22.5598C103.371 -1.02098 134.623 -4.26108 174.49 15.7967C198.688 27.9685 204.431 34.0801 226.306 43.1833" stroke="#C2C2CC" stroke-width="3" stroke-linecap="round"/><path id="Stroke-3" d="M2.23242 12.0597C2.23242 12.0597 33.5191 8.70816 43.3423 4.68804C51.7254 1.25079 68.7917 -0.84928 83.5693 11.0225" stroke="#C2C2CC" stroke-width="3" stroke-linecap="round"/><path id="Stroke-5" d="M162.052 9.5482C162.052 9.5482 169.869 7.08812 175.809 5.42521C191.967 0.9165 200.11 1.59366 206.359 4.02803C214.768 7.31099 216.919 9.53963 231.234 10.3454" stroke="#C2C2CC" stroke-width="3" stroke-linecap="round"/><path id="Stroke-7" d="M128.751 2.70795C128.751 2.70795 111.531 5.99948 110.605 12.754C109.636 19.7828 118.894 22.8514 112.671 30.2317" stroke="#C2C2CC" stroke-width="3" stroke-linecap="round"/><path id="Stroke-9" d="M51.9131 2.70795C51.9131 2.70795 66.8278 4.43943 66.8278 19.3285" stroke="#C2C2CC" stroke-width="3" stroke-linecap="round"/></g></g><path id="Stroke-9-2" d="M203.393 3.56589C203.393 3.56589 184.698 9.15464 195.472 21.3607C199.81 26.2723 209.513 34.724 209.513 34.724" stroke="#C2C2CC" stroke-width="3" stroke-linecap="round"/></g></g></g></svg>