<?xml version="1.0" encoding="UTF-8"?>
<svg version="1.1" xmlns="http://www.w3.org/2000/svg" width="300px" height="136px" viewBox="0 0 300 150"  enable-background="new 0 0 300 100" xml:space="preserve">
<path d="M0 0 C11.88 0 23.76 0 36 0 C36.0625 11.625 36.0625 11.625 36.02758789 15.25634766 C36.0550918 21.05022974 36.0550918 21.05022974 38.62060547 26.04199219 C40.50662173 27.66521451 40.50662173 27.66521451 42.50170898 28.92724609 C42.99614502 29.28125488 43.49058105 29.63526367 44 30 C44 30.66 44 31.32 44 32 C26.84 32 9.68 32 -8 32 C-6.76210371 28.28631113 -5.14775123 27.22645819 -2 25 C-1.34 25 -0.68 25 0 25 C0 16.75 0 8.5 0 0 Z M7 3 C8.98 3.99 8.98 3.99 11 5 C11 4.34 11 3.68 11 3 C9.68 3 8.36 3 7 3 Z M17 3 C18.485 3.99 18.485 3.99 20 5 C20.66 4.34 21.32 3.68 22 3 C20.35 3 18.7 3 17 3 Z M12 6 C12 9.3 12 12.6 12 16 C12.99 16 13.98 16 15 16 C15 12.7 15 9.4 15 6 C14.01 6 13.02 6 12 6 Z M28 6 C28 6.99 28 7.98 28 9 C27.04287109 9.07347656 27.04287109 9.07347656 26.06640625 9.1484375 C25.24011719 9.22320312 24.41382813 9.29796875 23.5625 9.375 C22.73878906 9.44460937 21.91507813 9.51421875 21.06640625 9.5859375 C20.38449219 9.72257812 19.70257813 9.85921875 19 10 C17.82212188 12.0922331 17.82212188 12.0922331 17.5625 15.0625 C17.376875 16.031875 17.19125 17.00125 17 18 C16.01 18.495 16.01 18.495 15 19 C15 20.32 15 21.64 15 23 C16.32 23 17.64 23 19 23 C19.18175781 22.37351562 19.36351562 21.74703125 19.55078125 21.1015625 C19.80214844 20.28429687 20.05351562 19.46703125 20.3125 18.625 C20.55613281 17.81289062 20.79976562 17.00078125 21.05078125 16.1640625 C22 14 22 14 25 12 C27.26171875 11.5859375 27.26171875 11.5859375 29.6875 11.375 C30.49574219 11.30023438 31.30398437 11.22546875 32.13671875 11.1484375 C33.05904297 11.07496094 33.05904297 11.07496094 34 11 C34.2094457 8.91117258 34.2094457 8.91117258 32.6875 7.375 C30.97517573 5.68416352 30.97517573 5.68416352 28 6 Z M3 19 C3 19.33 3 19.66 3 20 C5.31 20.33 7.62 20.66 10 21 C10 20.01 10 19.02 10 18 C7.57202689 18 5.37092995 18.50085685 3 19 Z " fill="#00457D" transform="translate(187,51)"/>
<path d="M0 0 C2.37570543 -0.0816082 4.74855841 -0.14077222 7.125 -0.1875 C7.79015625 -0.21263672 8.4553125 -0.23777344 9.140625 -0.26367188 C14.60175498 -0.34398261 18.53730981 0.80639235 22.64453125 4.46484375 C26.6875 9.5625 26.6875 9.5625 27 13 C27.103125 14.0725 27.20625 15.145 27.3125 16.25 C26.92509604 20.89884756 25.70020218 24.20155045 23 28 C17.55012928 32.3376522 13.66469258 33.12536415 6.8125 33.0625 C5.54019531 33.05347656 4.26789063 33.04445312 2.95703125 33.03515625 C1.49330078 33.01775391 1.49330078 33.01775391 0 33 C0 32.01 0 31.02 0 30 C0.99 30 1.98 30 3 30 C3 21.09 3 12.18 3 3 C2.01 3 1.02 3 0 3 C0 2.01 0 1.02 0 0 Z M7 3 C7 11.91 7 20.82 7 30 C15.00320734 29.13643469 15.00320734 29.13643469 21 25 C23.57803262 20.7886248 23.65968933 16.80988673 23 12 C21.06015179 7.80992786 19.62229661 6.33943452 15.5625 4.125 C11.82799962 2.74905719 11.82799962 2.74905719 7 3 Z " fill="#00457C" transform="translate(134,48)"/>
<path d="M0 0 C7.26 0 14.52 0 22 0 C22 2.64 22 5.28 22 8 C21.01 8 20.02 8 19 8 C19 6.35 19 4.7 19 3 C14.71 3 10.42 3 6 3 C6 6.96 6 10.92 6 15 C10.95 15 15.9 15 21 15 C21 15.99 21 16.98 21 18 C16.05 18 11.1 18 6 18 C6 21.96 6 25.92 6 30 C10.62 30 15.24 30 20 30 C20 28.02 20 26.04 20 24 C20.99 24 21.98 24 23 24 C23 26.97 23 29.94 23 33 C15.41 33 7.82 33 0 33 C0 32.01 0 31.02 0 30 C0.66 30 1.32 30 2 30 C2 21.09 2 12.18 2 3 C1.34 3 0.68 3 0 3 C0 2.01 0 1.02 0 0 Z " fill="#00467D" transform="translate(0,48)"/>
<path d="M0 0 C7.59 0 15.18 0 23 0 C23 2.64 23 5.28 23 8 C21.68 8 20.36 8 19 8 C19 6.35 19 4.7 19 3 C14.71 3 10.42 3 6 3 C6 6.96 6 10.92 6 15 C10.95 15 15.9 15 21 15 C21 15.99 21 16.98 21 18 C16.05 18 11.1 18 6 18 C6 21.96 6 25.92 6 30 C7.32 30 8.64 30 10 30 C10 30.99 10 31.98 10 33 C6.7 33 3.4 33 0 33 C0 32.01 0 31.02 0 30 C0.99 30 1.98 30 3 30 C3 21.09 3 12.18 3 3 C2.01 3 1.02 3 0 3 C0 2.01 0 1.02 0 0 Z " fill="#00457C" transform="translate(163,48)"/>
<path d="M0 0 C12.86350618 -0.68707155 12.86350618 -0.68707155 16.75 1.5625 C19.70169625 4.76017094 20.07586222 6.67585374 20 11 C18.41161066 14.57387602 17.28365642 15.81089572 14 18 C10.97670744 18.2610788 8.04123758 18.08815181 5 18 C5 21.96 5 25.92 5 30 C6.65 30 8.3 30 10 30 C10 30.99 10 31.98 10 33 C6.7 33 3.4 33 0 33 C0 32.01 0 31.02 0 30 C0.66 30 1.32 30 2 30 C2 21.09 2 12.18 2 3 C1.34 3 0.68 3 0 3 C0 2.01 0 1.02 0 0 Z M5 3 C5 6.96 5 10.92 5 15 C9.96551325 15.35606813 9.96551325 15.35606813 14.4375 13.5 C14.953125 13.005 15.46875 12.51 16 12 C15.81870185 8.56206661 15.81870185 8.56206661 15 5 C11.77237171 2.25053886 9.49830584 3 5 3 Z " fill="#00457D" transform="translate(113,48)"/>
<path d="M0 0 C2.97 0 5.94 0 9 0 C8.67 1.32 8.34 2.64 8 4 C8.72751465 5.96467579 8.72751465 5.96467579 9.9375 7.75 C10.618125 8.8225 11.29875 9.895 12 11 C15.14958831 7.57653445 15.56179109 4.55737263 16 0 C18.97 0 21.94 0 25 0 C25 0.99 25 1.98 25 3 C24.39389893 3.07114014 23.78779785 3.14228027 23.16333008 3.21557617 C20.15905875 4.30492543 19.7437754 5.70120563 18.38671875 8.55078125 C17.94392578 9.47697266 17.50113281 10.40316406 17.04492188 11.35742188 C16.37299805 12.82018555 16.37299805 12.82018555 15.6875 14.3125 C15.22021484 15.27607422 14.75292969 16.23964844 14.27148438 17.23242188 C11.39413393 22.86471029 11.39413393 22.86471029 12 29 C8.7 29 5.4 29 2 29 C2 28.01 2 27.02 2 26 C2.598125 25.95875 3.19625 25.9175 3.8125 25.875 C6.29357781 25.12399423 6.29357781 25.12399423 7.8125 22.25 C9.13574908 18.6284762 9.27486695 17.56962746 8 14 C6.98909781 11.92928099 5.94523482 9.88914839 4.83984375 7.8671875 C4 6 4 6 4 3 C2.68 3 1.36 3 0 3 C0 2.01 0 1.02 0 0 Z " fill="#00457D" transform="translate(86,63)"/>
<path d="M0 0 C0.58007812 0.16757812 1.16015625 0.33515625 1.7578125 0.5078125 C7.02314938 1.88062311 9.82998465 1.98000588 15 0 C17.69348249 -0.1766218 20.29668245 -0.09321785 23 0 C23 2.31 23 4.62 23 7 C22.01 6.67 21.02 6.34 20 6 C20 5.34 20 4.68 20 4 C19.01 4 18.02 4 17 4 C17 4.99 17 5.98 17 7 C15.88625 7.309375 14.7725 7.61875 13.625 7.9375 C10.2054845 8.82326483 10.2054845 8.82326483 8 10 C7.34227572 13.02934491 7.34227572 13.02934491 7 16 C6.01 16.33 5.02 16.66 4 17 C4 18.32 4 19.64 4 21 C-0.29 21 -4.58 21 -9 21 C-9 20.01 -9 19.02 -9 18 C-3.25 17.875 -3.25 17.875 -1 19 C-0.67 17.68 -0.34 16.36 0 15 C1.32 14.67 2.64 14.34 4 14 C3.67 13.34 3.34 12.68 3 12 C2.76923077 6.46153846 2.76923077 6.46153846 4 4 C2.68 3.67 1.36 3.34 0 3 C0 2.01 0 1.02 0 0 Z " fill="#00A9DA" transform="translate(198,53)"/>
<path d="M0 0 C2.875 2.3125 2.875 2.3125 5 5 C5 5.99 5 6.98 5 8 C-0.445 10.475 -0.445 10.475 -6 13 C-5.34 13.66 -4.68 14.32 -4 15 C-0.40320934 14.67673447 -0.40320934 14.67673447 3 14 C3 15.32 3 16.64 3 18 C-0.23415916 19.61707958 -3.50375265 19.56822376 -7 19 C-10.14249107 16.97047452 -11.63745366 15.53044369 -12.51171875 11.83984375 C-12.75802839 8.56118881 -12.73398271 6.08469117 -10.85546875 3.30859375 C-7.43942172 0.14491959 -4.51636782 -0.96092932 0 0 Z M-7.875 6 C-8.24625 6.66 -8.6175 7.32 -9 8 C-8.67 8.66 -8.34 9.32 -8 10 C-5.03 8.68 -2.06 7.36 1 6 C0.67 5.34 0.34 4.68 0 4 C-4.46083832 3.46750717 -4.46083832 3.46750717 -7.875 6 Z " fill="#00457D" transform="translate(63,62)"/>
<path d="M0 0 C0 3.96 0 7.92 0 12 C-4.95 12 -9.9 12 -15 12 C-14 5 -14 5 -12 2.0625 C-7.76578665 -0.84852168 -5.06414703 -0.37792142 0 0 Z " fill="#00AADC" transform="translate(221,62)"/>
<path d="M0 0 C2.97 0 5.94 0 9 0 C8.67 1.32 8.34 2.64 8 4 C8.72751465 5.96467579 8.72751465 5.96467579 9.9375 7.75 C10.618125 8.8225 11.29875 9.895 12 11 C14.15305957 7.14243493 15.39253254 4.44870215 15 0 C17.97 0 20.94 0 24 0 C24 0.99 24 1.98 24 3 C22.68 3 21.36 3 20 3 C19.773125 3.78375 19.54625 4.5675 19.3125 5.375 C17.59339067 10.12301625 15.31915279 14.52102552 13 19 C12.34 19 11.68 19 11 19 C10.45730469 17.92878906 9.91460937 16.85757813 9.35546875 15.75390625 C8.63332282 14.35650699 7.91063855 12.95938585 7.1875 11.5625 C6.83107422 10.85544922 6.47464844 10.14839844 6.10742188 9.41992188 C4.05386325 5.13405721 4.05386325 5.13405721 0 3 C0 2.01 0 1.02 0 0 Z " fill="#00457C" transform="translate(25,63)"/>
<path d="M0 0 C6.25054945 0.34725275 6.25054945 0.34725275 8.9375 2.6875 C10.3613395 5.7864448 10.55153827 7.62182812 10 11 C7.59416054 14.16196043 6.25213481 15.82925434 2.25 16.375 C0 16 0 16 -1 15 C-1.09909302 12.66839945 -1.12970504 10.33370058 -1.125 8 C-1.12757813 6.72125 -1.13015625 5.4425 -1.1328125 4.125 C-1 1 -1 1 0 0 Z " fill="#00A7D9" transform="translate(190,54)"/>
<path d="M0 0 C0 1.32 0 2.64 0 4 C-1.2065625 4.4640625 -1.2065625 4.4640625 -2.4375 4.9375 C-4.89080405 5.76335345 -4.89080405 5.76335345 -6 7 C-6.23192865 8.51469448 -6.41215238 10.03754562 -6.5625 11.5625 C-6.64628906 12.38878906 -6.73007813 13.21507813 -6.81640625 14.06640625 C-6.87699219 14.70449219 -6.93757813 15.34257813 -7 16 C-6.01 16 -5.02 16 -4 16 C-4 16.99 -4 17.98 -4 19 C-7.3 19 -10.6 19 -14 19 C-14 18.01 -14 17.02 -14 16 C-12.68 16 -11.36 16 -10 16 C-10 12.04 -10 8.08 -10 4 C-10.99 4 -11.98 4 -13 4 C-13 3.01 -13 2.02 -13 1 C-10.98177083 1.03255208 -8.96354167 1.06510417 -6.9453125 1.09765625 C-4.28892869 0.96430365 -2.80063589 0 0 0 Z " fill="#00467D" transform="translate(84,62)"/>
</svg>
