<?xml version="1.0" encoding="UTF-8"?>
<svg version="1.1" xmlns="http://www.w3.org/2000/svg"  width="300px" height="136px" viewBox="0 0 300 150"  enable-background="new 0 0 300 100">
<path d="M0 0 C1.36497874 1.30091837 2.70302318 2.63127553 4 4 C4.78375 4.4125 5.5675 4.825 6.375 5.25 C13.451917 9.96794466 17.11787089 17.91107433 19 26 C20.17513105 35.84472036 18.53403395 44.69894907 13 53 C12.34 53 11.68 53 11 53 C11 53.99 11 54.98 11 56 C11.87011719 56.23783203 11.87011719 56.23783203 12.7578125 56.48046875 C18.22905698 58.11461933 22.12460129 59.7271245 26 64 C26.6875 67.0625 26.6875 67.0625 26 70 C22.03028317 74.79103755 15.86361086 75.84258542 10 77 C5.28355244 77.4305857 0.6088741 77.47646321 -4.125 77.4375 C-5.39947998 77.43065186 -6.67395996 77.42380371 -7.98706055 77.41674805 C-21.56449991 77.18656351 -35.87236483 76.12763517 -46 66 C-45.74889902 63.65639085 -45.41434251 61.32031805 -45 59 C-45 55.5674928 -47.56805208 53.12419644 -49.4921875 50.38671875 C-54.76610349 42.03862893 -54.08402999 31.55614126 -53 22 C-50.41366781 13.04447966 -45.08257378 5.97384636 -37.0625 1.28125 C-25.0140652 -4.97921122 -12.42912575 -6.6234157 0 0 Z M-24 21 C-24.33 22.65 -24.66 24.3 -25 26 C-23.68 25.67 -22.36 25.34 -21 25 C-21.33 23.68 -21.66 22.36 -22 21 C-22.66 21 -23.32 21 -24 21 Z M4 40 C3.67 40.99 3.34 41.98 3 43 C4.32 43.33 5.64 43.66 7 44 C7 42.68 7 41.36 7 40 C6.01 40 5.02 40 4 40 Z M-33 49 C-33 49.99 -33 50.98 -33 52 C-32.01 51.67 -31.02 51.34 -30 51 C-30.33 50.34 -30.66 49.68 -31 49 C-31.66 49 -32.32 49 -33 49 Z " fill="#035D91" transform="translate(53,33)"/>
<path d="M0 0 C3.25 1.625 3.25 1.625 5.1875 3.1875 C8.30933098 5.36332159 11.54519661 5.8222926 15.25 6.625 C15.1220806 9.67587768 14.91617988 12.64051412 14.25 15.625 C12.1875 17.4375 12.1875 17.4375 10.25 18.625 C10.25 19.945 10.25 21.265 10.25 22.625 C13.715 24.605 13.715 24.605 17.25 26.625 C17.58 23.655 17.91 20.685 18.25 17.625 C18.58 17.625 18.91 17.625 19.25 17.625 C19.25 19.935 19.25 22.245 19.25 24.625 C19.91 24.295 20.57 23.965 21.25 23.625 C22.95702735 23.55503986 24.66668003 23.54059846 26.375 23.5625 C27.28507812 23.57152344 28.19515625 23.58054687 29.1328125 23.58984375 C29.83148438 23.60144531 30.53015625 23.61304687 31.25 23.625 C31.53875 22.985625 31.8275 22.34625 32.125 21.6875 C33.25 19.625 33.25 19.625 35.25 18.625 C35.25 19.285 35.25 19.945 35.25 20.625 C36.03375 20.356875 36.8175 20.08875 37.625 19.8125 C43.43501424 19.51198202 48.60130139 22.3972866 53.01953125 26.11328125 C54.25 27.625 54.25 27.625 54.75 30.5625 C54.25 33.625 54.25 33.625 52.4375 35.8125 C43.61474872 40.82935857 34.06017683 41.14427369 24.125 41.0625 C22.85052002 41.05565186 21.57604004 41.04880371 20.26293945 41.04174805 C6.68550009 40.81156351 -7.62236483 39.75263517 -17.75 29.625 C-17.375 26 -17.375 26 -16.75 22.625 C-15.76 22.295 -14.77 21.965 -13.75 21.625 C-11.8046875 22.734375 -11.8046875 22.734375 -9.625 24.375 C-0.14156032 30.9100626 7.96243525 30.93006932 19.25 30.625 C15.29 28.315 11.33 26.005 7.25 23.625 C6.92 24.945 6.59 26.265 6.25 27.625 C6.91 27.625 7.57 27.625 8.25 27.625 C8.25 28.285 8.25 28.945 8.25 29.625 C2.73676647 27.89226946 -0.37165634 24.66875094 -3.5625 19.9375 C-4.75 17.625 -4.75 17.625 -4.75 15.625 C-5.513125 15.3775 -6.27625 15.13 -7.0625 14.875 C-10.12754038 13.44939982 -11.21110282 12.62179976 -12.75 9.625 C-12.79166002 7.2920386 -12.79166002 4.9579614 -12.75 2.625 C-13.63064927 0.27130193 -13.63064927 0.27130193 -14.75 -1.375 C-9.56420191 -3.10359936 -4.98227858 -1.82683548 0 0 Z M-4.75 12.625 C-4.75 13.615 -4.75 14.605 -4.75 15.625 C-3.76 15.295 -2.77 14.965 -1.75 14.625 C-2.08 13.965 -2.41 13.305 -2.75 12.625 C-3.41 12.625 -4.07 12.625 -4.75 12.625 Z " fill="#E3E4E5" transform="translate(24.75,69.375)"/>
<path d="M0 0 C2 0.0625 2 0.0625 4 1 C6.39256265 5.42365899 6.42745294 9.90263253 6.625 14.8125 C6.68300781 15.99489258 6.68300781 15.99489258 6.7421875 17.20117188 C6.83588844 19.1337538 6.91900779 21.06684376 7 23 C6.01 23.33 5.02 23.66 4 24 C4 24.99 4 25.98 4 27 C1.92446352 27.5534764 0.15634036 28 -2 28 C-2.66 28.99 -3.32 29.98 -4 31 C-7.00390625 31.44140625 -7.00390625 31.44140625 -10.5625 31.5625 C-12.71187958 31.64018842 -14.86153382 31.77015125 -17 32 C-17.33 32.66 -17.66 33.32 -18 34 C-20.9719385 32.87548273 -23.33440687 31.77706209 -26 30 C-25.6875 27.625 -25.6875 27.625 -25 25 C-24.01 24.34 -23.02 23.68 -22 23 C-21.20562077 20.81494871 -21.20562077 20.81494871 -20.8125 18.375 C-20.65394531 17.55773437 -20.49539062 16.74046875 -20.33203125 15.8984375 C-20.22246094 15.27195312 -20.11289062 14.64546875 -20 14 C-20.99 13.67 -21.98 13.34 -23 13 C-21.72934824 9.18804471 -20.44433393 8.85047524 -17 6.9375 C-13.34532309 5.10856437 -13.34532309 5.10856437 -11 2 C-10.06027344 2.03480469 -10.06027344 2.03480469 -9.1015625 2.0703125 C-7.87566406 2.09738281 -7.87566406 2.09738281 -6.625 2.125 C-5.40683594 2.15980469 -5.40683594 2.15980469 -4.1640625 2.1953125 C-1.78657757 2.21370051 -1.78657757 2.21370051 0 0 Z M-3 11 C-3.33 11.99 -3.66 12.98 -4 14 C-2.68 14.33 -1.36 14.66 0 15 C0 13.68 0 12.36 0 11 C-0.99 11 -1.98 11 -3 11 Z " fill="#03487F" transform="translate(60,62)"/>
<path d="M0 0 C3.25 1.625 3.25 1.625 5.1875 3.1875 C8.30933098 5.36332159 11.54519661 5.8222926 15.25 6.625 C15.1220806 9.67587768 14.91617988 12.64051412 14.25 15.625 C12.1875 17.4375 12.1875 17.4375 10.25 18.625 C10.25 19.945 10.25 21.265 10.25 22.625 C12.56 23.945 14.87 25.265 17.25 26.625 C17.58 23.655 17.91 20.685 18.25 17.625 C18.58 17.625 18.91 17.625 19.25 17.625 C19.25 19.935 19.25 22.245 19.25 24.625 C19.91 24.295 20.57 23.965 21.25 23.625 C22.95702735 23.55503986 24.66668003 23.54059846 26.375 23.5625 C27.28507812 23.57152344 28.19515625 23.58054687 29.1328125 23.58984375 C29.83148438 23.60144531 30.53015625 23.61304687 31.25 23.625 C31.53875 22.985625 31.8275 22.34625 32.125 21.6875 C33.25 19.625 33.25 19.625 35.25 18.625 C35.745 20.11 35.745 20.11 36.25 21.625 C33.29858788 25.01365836 31.57095429 25.80196109 27.25 26.625 C25.27 27.945 23.29 29.265 21.25 30.625 C16.63 28.315 12.01 26.005 7.25 23.625 C6.92 24.945 6.59 26.265 6.25 27.625 C6.91 27.625 7.57 27.625 8.25 27.625 C8.25 28.285 8.25 28.945 8.25 29.625 C2.73676647 27.89226946 -0.37165634 24.66875094 -3.5625 19.9375 C-4.75 17.625 -4.75 17.625 -4.75 15.625 C-5.513125 15.3775 -6.27625 15.13 -7.0625 14.875 C-10.12754038 13.44939982 -11.21110282 12.62179976 -12.75 9.625 C-12.79166002 7.2920386 -12.79166002 4.9579614 -12.75 2.625 C-13.63064927 0.27130193 -13.63064927 0.27130193 -14.75 -1.375 C-9.56420191 -3.10359936 -4.98227858 -1.82683548 0 0 Z M-4.75 12.625 C-4.75 13.615 -4.75 14.605 -4.75 15.625 C-3.76 15.295 -2.77 14.965 -1.75 14.625 C-2.08 13.965 -2.41 13.305 -2.75 12.625 C-3.41 12.625 -4.07 12.625 -4.75 12.625 Z " fill="#7EC4E5" transform="translate(24.75,69.375)"/>
<path d="M0 0 C4.29110762 0.73984614 5.87157843 2.61446972 8.54296875 5.89453125 C14.55789376 14.58633978 15.87389472 23.61813078 15 34 C14.02914473 37.84201019 12.83923299 41.48263472 11 45 C10.01 45.495 10.01 45.495 9 46 C8.93941406 44.90300781 8.87882812 43.80601563 8.81640625 42.67578125 C8.73195502 41.22134346 8.64730934 39.76691695 8.5625 38.3125 C8.52318359 37.59126953 8.48386719 36.87003906 8.44335938 36.12695312 C8.21814322 32.33292718 7.87160695 28.71348508 7 25 C3.70924004 25.37904208 3.70924004 25.37904208 1 27 C-2.59480783 27.59913464 -3.80091464 27.14157181 -6.8125 25 C-9.62983341 21.13622847 -9.71269994 18.62317197 -9 14 C-7.98658817 10.49203597 -6.76222843 8.38556092 -4 6 C-2.02 6.66 -0.04 7.32 2 8 C2 7.34 2 6.68 2 6 C2.99 6 3.98 6 5 6 C4.67 5.34 4.34 4.68 4 4 C1.97536745 3.34786708 1.97536745 3.34786708 0 3 C0 2.01 0 1.02 0 0 Z " fill="#78C6EA" transform="translate(57,38)"/>
<path d="M0 0 C2.64 0 5.28 0 8 0 C8 12.21 8 24.42 8 37 C8.99 37 9.98 37 11 37 C11 38.32 11 39.64 11 41 C7.66666667 41 4.33333333 41 1 41 C0.32324219 41.05800781 -0.35351562 41.11601563 -1.05078125 41.17578125 C-5.32598405 41.4342132 -8.10870887 41.42507331 -11.5 38.625 C-14.39578193 35.58442898 -14.91464716 34.88766959 -15.3125 30.75 C-14.94567755 26.34813063 -13.8035514 24.36426168 -11 21 C-8.17283905 20.05761302 -6.36823877 19.86534353 -3.4375 19.875 C-2.65246094 19.87242188 -1.86742188 19.86984375 -1.05859375 19.8671875 C1 20 1 20 3 21 C3.33 15.39 3.66 9.78 4 4 C2.68 4 1.36 4 0 4 C0 2.68 0 1.36 0 0 Z M-11 28 C-11.33660145 31.64407137 -11.33660145 31.64407137 -10 35 C-7.38918928 37.32072064 -5.92772965 38 -2.4375 38 C0.9154573 36.62442777 2.19325552 35.12705776 4 32 C4 28.43909099 3.69349238 26.74302755 1.25 24.125 C-4.3323887 21.33380565 -7.44407612 23.08445817 -11 28 Z " fill="#414041" transform="translate(93,49)"/>
<path d="M0 0 C0 4 0 4 -1 6 C-2.32 5.67 -3.64 5.34 -5 5 C-5.82638376 7.89234315 -6 9.88742431 -6 13 C-8.475 12.505 -8.475 12.505 -11 12 C-11 12.66 -11 13.32 -11 14 C-15.47058824 18 -15.47058824 18 -18 18 C-18.268125 18.5775 -18.53625 19.155 -18.8125 19.75 C-20.01719859 22.0325868 -21.40798115 23.9737942 -23 26 C-23 25.01 -23 24.02 -23 23 C-24.65 23.66 -26.3 24.32 -28 25 C-28 26.32 -28 27.64 -28 29 C-27.34 28.67 -26.68 28.34 -26 28 C-25.67 30.31 -25.34 32.62 -25 35 C-25.99 34.34 -26.98 33.68 -28 33 C-28 32.34 -28 31.68 -28 31 C-28.99 31 -29.98 31 -31 31 C-32.24271488 25.16464319 -32.31220643 21.10306862 -29.3203125 15.8515625 C-27.1995434 12.87746618 -24.63797772 10.52073427 -22 8 C-21.67 7.01 -21.34 6.02 -21 5 C-18.5 4 -18.5 4 -15 3 C-13.49980992 2.45886001 -11.99982007 1.91716469 -10.5 1.375 C-6.88651848 0.1582778 -3.84370004 -0.29566923 0 0 Z " fill="#A0D9F4" transform="translate(35,32)"/>
<path d="M0 0 C10.10831721 2.85106383 10.10831721 2.85106383 13 7 C13 8.32 13 9.64 13 11 C15.475 11.495 15.475 11.495 18 12 C18 12.66 18 13.32 18 14 C17.01 14 16.02 14 15 14 C15 14.66 15 15.32 15 16 C14.071875 15.773125 13.14375 15.54625 12.1875 15.3125 C9.08707914 14.67222785 9.08707914 14.67222785 7.1875 16.1875 C4.50421606 20.28303864 4.413139 25.22686384 5 30 C6.33830958 32.4595774 6.33830958 32.4595774 8 34 C3.25 35.125 3.25 35.125 1 34 C1.66 32.35 2.32 30.7 3 29 C-0.96 30.98 -0.96 30.98 -5 33 C-5.495 31.515 -5.495 31.515 -6 30 C-7.62332967 28.61423077 -9.28724465 27.27358732 -11 26 C-4.51816966 18.27166383 -4.51816966 18.27166383 -0.625 15.125 C2.03793194 13.26897191 2.03793194 13.26897191 3 11 C3.0396713 9.33380554 3.04384447 7.66608987 3 6 C2.360625 5.896875 1.72125 5.79375 1.0625 5.6875 C0.381875 5.460625 -0.29875 5.23375 -1 5 C-1.33 4.01 -1.66 3.02 -2 2 C-1.34 2 -0.68 2 0 2 C0 1.34 0 0.68 0 0 Z " fill="#015C91" transform="translate(44,30)"/>
<path d="M0 0 C2.31 0 4.62 0 7 0 C7 12.21 7 24.42 7 37 C8.32 37 9.64 37 11 37 C11 38.32 11 39.64 11 41 C7.66666667 41 4.33333333 41 1 41 C0.32324219 41.05800781 -0.35351562 41.11601563 -1.05078125 41.17578125 C-5.05477205 41.41781869 -8.14362831 41.43552793 -11.5 39.0625 C-14.31753299 35.61102209 -15.02008445 33.58973921 -15.24609375 29.22265625 C-14.85737122 25.71181308 -13.28207443 23.60808506 -11 21 C-8.51245214 19.75622607 -6.77344699 19.86693765 -4 19.875 C-3.113125 19.87242188 -2.22625 19.86984375 -1.3125 19.8671875 C1 20 1 20 3 21 C3.33 15.39 3.66 9.78 4 4 C2.68 4 1.36 4 0 4 C0 2.68 0 1.36 0 0 Z M-9.4375 25.0625 C-11.27420715 27.97902909 -11.27420715 27.97902909 -11.0625 31.625 C-10.27860257 35.07340585 -10.27860257 35.07340585 -7.8125 37.0625 C-4.13972891 38.28675703 -2.45754451 37.61352077 1 36 C3.34813734 34.06832602 3.34813734 34.06832602 3.375 30.625 C3.28667912 27.01971972 3.28667912 27.01971972 1.375 24.5625 C-2.75466717 21.84561371 -5.64819714 21.85616681 -9.4375 25.0625 Z " fill="#414042" transform="translate(190,49)"/>
<path d="M0 0 C1.93681161 -0.08107583 3.8745934 -0.13922475 5.8125 -0.1875 C6.89144531 -0.22230469 7.97039063 -0.25710937 9.08203125 -0.29296875 C12 0 12 0 13.69921875 1.32421875 C14.12847656 1.87722656 14.55773438 2.43023437 15 3 C15.51046875 3.47566406 16.0209375 3.95132813 16.546875 4.44140625 C18.14754656 6.15825558 19.12839729 7.87991194 20.25 9.9375 C22.84191812 14.24151083 25.49732427 15.88109377 30 18 C30 17.34 30 16.68 30 16 C29.34 16 28.68 16 28 16 C28.33 14.68 28.66 13.36 29 12 C33.49797113 13.68673918 37.72886302 15.81673892 42 18 C41.67 18.66 41.34 19.32 41 20 C26.96399806 20.49930442 17.34503476 18.85893146 6 10 C-0 3.60769231 -0 3.60769231 0 0 Z " fill="#084B81" transform="translate(3,81)"/>
<path d="M0 0 C3.02127155 1.76240841 4.63361085 2.74511716 5.625 6.140625 C5.74875 6.75421875 5.8725 7.3678125 6 8 C5.25234375 8.33773437 4.5046875 8.67546875 3.734375 9.0234375 C2.74953125 9.46945313 1.7646875 9.91546875 0.75 10.375 C-0.71179688 11.03628906 -0.71179688 11.03628906 -2.203125 11.7109375 C-4.49311839 12.76638138 -6.75366601 13.85543935 -9 15 C-4.66072031 16.83695434 -4.66072031 16.83695434 -0.125 16.125 C0.57625 15.75375 1.2775 15.3825 2 15 C2.33 16.32 2.66 17.64 3 19 C-1.00254616 21.66836411 -4.29313299 21.8340238 -9 21 C-11.75569447 18.81840855 -13.43588747 17.12822506 -15 14 C-15.37712577 9.00308353 -15.09290612 6.00932275 -12 2 C-7.97228025 -0.6851465 -4.73200285 -0.68074427 0 0 Z M-11 7 C-11.33 8.32 -11.66 9.64 -12 11 C-7.71 9.35 -3.42 7.7 1 6 C-1.59586777 2.83306774 -1.59586777 2.83306774 -4.4375 2.5625 C-7.81886853 3.13980682 -8.91644668 4.32114574 -11 7 Z " fill="#413F41" transform="translate(167,69)"/>
<path d="M0 0 C2.61374292 1.93922862 2.94556379 2.83669136 4 6 C4.3686858 10.97725826 4.16456308 14.04429615 1 18 C-3.19006914 20.54620406 -7.21655206 20.71623819 -12 20 C-14.87029869 18.20606332 -16.49131638 17.01736724 -18 14 C-18.5364289 9.52389655 -18.58328477 6.05439939 -16.375 2.0625 C-11.03761319 -2.57259907 -6.29475451 -2.50676065 0 0 Z M-14 6 C-15.16210219 8.39351495 -15.16210219 8.39351495 -15 11 C-13.1835062 14.07406644 -11.88419806 15.63725208 -8.5625 17 C-5.23343446 17 -3.63457537 15.97593152 -1 14 C0.43735246 11.12529507 0.38172649 9.18105412 0 6 C-2.42095091 3.37153902 -4.04614692 2.18611767 -7.5625 1.5 C-10.851042 2.17457272 -11.98855659 3.34202121 -14 6 Z " fill="#414041" transform="translate(125,70)"/>
<path d="M0 0 C2.72266142 1.36133071 5.01499517 2.56879556 7.25 4.625 C7.25 5.285 7.25 5.945 7.25 6.625 C5.27253397 7.35580266 3.26927511 8.01921747 1.25 8.625 C0.59 8.295 -0.07 7.965 -0.75 7.625 C-0.75 8.285 -0.75 8.945 -0.75 9.625 C-2.37171239 10.01397161 -3.99754925 10.38578298 -5.625 10.75 C-6.52992187 10.95882812 -7.43484375 11.16765625 -8.3671875 11.3828125 C-9.15351563 11.46273437 -9.93984375 11.54265625 -10.75 11.625 C-11.41 10.965 -12.07 10.305 -12.75 9.625 C-12.75 7.29166667 -12.75 4.95833333 -12.75 2.625 C-13.63064927 0.27130193 -13.63064927 0.27130193 -14.75 -1.375 C-9.56420191 -3.10359936 -4.98227858 -1.82683548 0 0 Z " fill="#A3DDF7" transform="translate(24.75,69.375)"/>
<path d="M0 0 C0.87527344 -0.01417969 1.75054687 -0.02835937 2.65234375 -0.04296875 C5.0625 0.1875 5.0625 0.1875 8.0625 2.1875 C8.25 5.3125 8.25 5.3125 8.0625 8.1875 C6.7425 8.1875 5.4225 8.1875 4.0625 8.1875 C3.7325 6.8675 3.4025 5.5475 3.0625 4.1875 C-1.23852456 3.74104766 -1.23852456 3.74104766 -4.875 5.75 C-6.35884164 9.15410729 -5.69171541 11.62211808 -4.9375 15.1875 C-0.47513531 16.99369523 2.37284294 17.30408501 7.0625 16.1875 C7.3925 17.1775 7.7225 18.1675 8.0625 19.1875 C4.04068385 21.86871076 0.79013609 22.00094335 -3.9375 21.1875 C-7.0092718 19.47672026 -9.34235654 17.37778693 -10.9375 14.1875 C-11.48474071 8.49619663 -10.53083707 5.62632815 -6.9375 1.1875 C-4.47380468 -0.04434766 -2.7480499 0.02017658 0 0 Z " fill="#414042" transform="translate(141.9375,68.8125)"/>
<path d="M0 0 C1.32 0 2.64 0 4 0 C4 4.29 4 8.58 4 13 C5.65 13 7.3 13 9 13 C9 13.99 9 14.98 9 16 C7.35 16 5.7 16 4 16 C4 20.62 4 25.24 4 30 C5.32 30 6.64 30 8 30 C8 31.32 8 32.64 8 34 C5.36 34 2.72 34 0 34 C0 28.06 0 22.12 0 16 C-1.32 16 -2.64 16 -4 16 C-4 15.01 -4 14.02 -4 13 C-2.68 13 -1.36 13 0 13 C0 8.71 0 4.42 0 0 Z " fill="#404041" transform="translate(222,56)"/>
<path d="M0 0 C-1.68093864 6.36987273 -3.97827705 12.4939552 -9 17 C-10.32 17 -11.64 17 -13 17 C-14.4402447 12.25049077 -13.99813566 7.81500642 -13 3 C-9.9364831 -2.48880111 -5.40481096 -1.06248421 0 0 Z " fill="#A3DCF6" transform="translate(62,45)"/>
<path d="M0 0 C2.31 0 4.62 0 7 0 C7 5.61 7 11.22 7 17 C8.32 17 9.64 17 11 17 C11 18.32 11 19.64 11 21 C7.37 21 3.74 21 0 21 C0 19.68 0 18.36 0 17 C0.99 17 1.98 17 3 17 C3 12.38 3 7.76 3 3 C2.01 3 1.02 3 0 3 C0 2.01 0 1.02 0 0 Z " fill="#403F42" transform="translate(204,69)"/>
<path d="M0 0 C1.44096586 0.42594588 2.87768712 0.86626633 4.3125 1.3125 C5.11300781 1.55613281 5.91351563 1.79976562 6.73828125 2.05078125 C9.14195957 3.05957889 10.40321704 3.95284236 12 6 C12.1875 8.6875 12.1875 8.6875 12 11 C10.02 11 8.04 11 6 11 C6.33 12.32 6.66 13.64 7 15 C5.68 15 4.36 15 3 15 C3 12.03 3 9.06 3 6 C1.68 5.67 0.36 5.34 -1 5 C-1.33 4.01 -1.66 3.02 -2 2 C-1.34 2 -0.68 2 0 2 C0 1.34 0 0.68 0 0 Z " fill="#A2DCF6" transform="translate(44,30)"/>
<path d="M0 0 C0 4 0 4 -1 6 C-1.56203125 5.77441406 -2.1240625 5.54882812 -2.703125 5.31640625 C-5.93650956 4.87099103 -7.14567321 6.06085275 -9.75 7.9375 C-10.94882812 8.78634766 -10.94882812 8.78634766 -12.171875 9.65234375 C-13.07679687 10.31943359 -13.07679687 10.31943359 -14 11 C-14.33 10.01 -14.66 9.02 -15 8 C-14.01 7.34 -13.02 6.68 -12 6 C-12.66 5.34 -13.32 4.68 -14 4 C-9.22642128 1.28608722 -5.65611463 -0.56561146 0 0 Z " fill="#2C7DAB" transform="translate(35,32)"/>
<path d="M0 0 C4.49797113 1.68673918 8.72886302 3.81673892 13 6 C12.67 6.66 12.34 7.32 12 8 C7.05 8 2.1 8 -3 8 C-1.68 7.34 -0.36 6.68 1 6 C1 5.34 1 4.68 1 4 C0.34 4 -0.32 4 -1 4 C-0.67 2.68 -0.34 1.36 0 0 Z " fill="#1B598A" transform="translate(32,93)"/>
<path d="M0 0 C0.66 0.99 1.32 1.98 2 3 C-0.92506302 6.35840569 -2.67717408 7.26195655 -7 8 C-8.2684375 8.8353125 -8.2684375 8.8353125 -9.5625 9.6875 C-10.7690625 10.3371875 -10.7690625 10.3371875 -12 11 C-14.3125 10.1875 -14.3125 10.1875 -16 9 C-15.67 8.01 -15.34 7.02 -15 6 C-12.47524538 4.73762269 -10.68799534 4.90143596 -7.875 4.9375 C-6.96492188 4.94652344 -6.05484375 4.95554687 -5.1171875 4.96484375 C-4.41851562 4.97644531 -3.71984375 4.98804687 -3 5 C-2.690625 4.360625 -2.38125 3.72125 -2.0625 3.0625 C-1 1 -1 1 0 0 Z " fill="#69A9CD" transform="translate(59,88)"/>
<path d="M0 0 C0.66 0.33 1.32 0.66 2 1 C2 2.32 2 3.64 2 5 C3.65 5.33 5.3 5.66 7 6 C7 6.66 7 7.32 7 8 C6.01 8 5.02 8 4 8 C4 8.66 4 9.32 4 10 C3.0925 9.773125 2.185 9.54625 1.25 9.3125 C-1.99503501 8.67394455 -1.99503501 8.67394455 -4.375 10.4375 C-4.91125 10.953125 -5.4475 11.46875 -6 12 C-5.67 9.69 -5.34 7.38 -5 5 C-3.35 4.67 -1.7 4.34 0 4 C0 2.68 0 1.36 0 0 Z " fill="#2074A4" transform="translate(55,36)"/>
<path d="M0 0 C-0.1875 1.875 -0.1875 1.875 -1 4 C-3.5 5.125 -3.5 5.125 -6 6 C-6.33 6.66 -6.66 7.32 -7 8 C-8.33333333 5.33333333 -9.66666667 2.66666667 -11 0 C-6.94952424 -1.35015859 -4.2079832 -0.62084998 0 0 Z " fill="#9AD5F1" transform="translate(21,68)"/>
<path d="M0 0 C4.86971174 0.41740386 6.72184884 2.54465148 10 6 C10.66 6 11.32 6 12 6 C12.33 5.34 12.66 4.68 13 4 C13.33 5.32 13.66 6.64 14 8 C12.02 8 10.04 8 8 8 C8.33 9.32 8.66 10.64 9 12 C7.68 12 6.36 12 5 12 C5 9.03 5 6.06 5 3 C3.68 2.67 2.36 2.34 1 2 C0.67 1.34 0.34 0.68 0 0 Z " fill="#9BD6F2" transform="translate(42,33)"/>
<path d="M0 0 C1.32 0.66 2.64 1.32 4 2 C4 2.66 4 3.32 4 4 C2.02253397 4.73080266 0.01927511 5.39421747 -2 6 C-2.66 5.67 -3.32 5.34 -4 5 C-4 5.66 -4 6.32 -4 7 C-4.66 6.67 -5.32 6.34 -6 6 C-6 5.34 -6 4.68 -6 4 C-4.36368108 2.95107762 -2.69514137 1.95093297 -1 1 C-0.67 0.67 -0.34 0.34 0 0 Z " fill="#9CDAF5" transform="translate(28,72)"/>
<path d="M0 0 C2.475 0.99 2.475 0.99 5 2 C5 1.34 5 0.68 5 0 C5.66 0 6.32 0 7 0 C6.8125 1.8125 6.8125 1.8125 6 4 C3.73453151 5.56840126 1.4585471 6.77072645 -1 8 C-1.33 7.01 -1.66 6.02 -2 5 C-1.01 4.34 -0.02 3.68 1 3 C0.34 2.34 -0.32 1.68 -1 1 C-0.67 0.67 -0.34 0.34 0 0 Z " fill="#4390BA" transform="translate(22,35)"/>
<path d="M0 0 C0.99 0 1.98 0 3 0 C3.33 1.98 3.66 3.96 4 6 C2.35 5.67 0.7 5.34 -1 5 C-1.33 4.01 -1.66 3.02 -2 2 C-1.34 1.34 -0.68 0.68 0 0 Z " fill="#87C6E5" transform="translate(25,39)"/>
<path d="M0 0 C1.98 0.495 1.98 0.495 4 1 C3.67 2.32 3.34 3.64 3 5 C1.68 4.67 0.36 4.34 -1 4 C-0.67 2.68 -0.34 1.36 0 0 Z " fill="#414042" transform="translate(208,60)"/>
<path d="M0 0 C0.66 0.66 1.32 1.32 2 2 C2.66 1.67 3.32 1.34 4 1 C4.33 3.31 4.66 5.62 5 8 C4.01 7.34 3.02 6.68 2 6 C2 5.34 2 4.68 2 4 C1.01 4 0.02 4 -1 4 C-0.67 2.68 -0.34 1.36 0 0 Z " fill="#79BBDC" transform="translate(5,59)"/>
<path d="M0 0 C2.0625 0.4375 2.0625 0.4375 4 1 C3.34 2.65 2.68 4.3 2 6 C1.34 6 0.68 6 0 6 C-0.38218767 4.34385343 -0.71395102 2.67542976 -1 1 C-0.67 0.67 -0.34 0.34 0 0 Z " fill="#96D1EE" transform="translate(32,32)"/>
<path d="M0 0 C1.32 0 2.64 0 4 0 C4 1.65 4 3.3 4 5 C2.68 4.67 1.36 4.34 0 4 C0 2.68 0 1.36 0 0 Z " fill="#2D7FAD" transform="translate(43,36)"/>
<path d="M0 0 C4.75 0.875 4.75 0.875 7 2 C6.34 3.32 5.68 4.64 5 6 C5 5.01 5 4.02 5 3 C4.360625 2.87625 3.72125 2.7525 3.0625 2.625 C2.381875 2.41875 1.70125 2.2125 1 2 C0.67 1.34 0.34 0.68 0 0 Z " fill="#68ADD1" transform="translate(42,33)"/>
</svg>
