<svg width="1400" height="1000" viewBox="0 0 1400 1000" fill="none" xmlns="http://www.w3.org/2000/svg">
<rect width="1400" height="1000" fill="url(#paint0_linear_1658_5361)"/>
<g style="mix-blend-mode:overlay">
<mask id="mask0_1658_5361" style="mask-type:alpha" maskUnits="userSpaceOnUse" x="0" y="0" width="1400" height="1000">
<rect width="1400" height="1000" fill="white"/>
</mask>
<g mask="url(#mask0_1658_5361)">
<g style="mix-blend-mode:luminosity" filter="url(#filter0_d_1658_5361)">
<path fill-rule="evenodd" clip-rule="evenodd" d="M1258.24 -113.904C897.968 -113.904 607.215 179.394 608.823 541.195C610.431 902.996 903.792 1196.29 1264.06 1196.29C1624.33 1196.29 1915.09 902.996 1913.48 541.195C1911.87 179.394 1618.51 -113.904 1258.24 -113.904ZM1259.59 -16.3762C952.446 -16.3763 704.57 233.668 705.941 542.114C707.312 850.559 957.411 1100.6 1264.55 1100.6C1571.69 1100.6 1819.57 850.56 1818.2 542.114C1816.83 233.668 1566.73 -16.3762 1259.59 -16.3762Z" fill="url(#paint1_linear_1658_5361)"/>
</g>
<g style="mix-blend-mode:luminosity" filter="url(#filter1_d_1658_5361)">
<path fill-rule="evenodd" clip-rule="evenodd" d="M-19.9251 579.161C322.345 579.161 599.81 302.656 599.81 -38.4312C599.81 -379.518 322.345 -656.023 -19.9251 -656.023C-362.195 -656.023 -639.66 -379.518 -639.66 -38.4312C-639.66 302.656 -362.195 579.161 -19.9251 579.161ZM-20.7912 487.217C271.004 487.217 507.55 251.489 507.55 -39.2975C507.55 -330.084 271.004 -565.812 -20.7912 -565.812C-312.586 -565.812 -549.133 -330.084 -549.133 -39.2975C-549.133 251.489 -312.586 487.217 -20.7912 487.217Z" fill="url(#paint2_linear_1658_5361)"/>
</g>
</g>
</g>
<defs>
<filter id="filter0_d_1658_5361" x="408.816" y="-308.904" width="1704.67" height="1710.2" filterUnits="userSpaceOnUse" color-interpolation-filters="sRGB">
<feFlood flood-opacity="0" result="BackgroundImageFix"/>
<feColorMatrix in="SourceAlpha" type="matrix" values="0 0 0 0 0 0 0 0 0 0 0 0 0 0 0 0 0 0 127 0" result="hardAlpha"/>
<feOffset dy="5"/>
<feGaussianBlur stdDeviation="100"/>
<feColorMatrix type="matrix" values="0 0 0 0 0 0 0 0 0 0 0 0 0 0 0 0 0 0 0.3 0"/>
<feBlend mode="normal" in2="BackgroundImageFix" result="effect1_dropShadow_1658_5361"/>
<feBlend mode="normal" in="SourceGraphic" in2="effect1_dropShadow_1658_5361" result="shape"/>
</filter>
<filter id="filter1_d_1658_5361" x="-839.66" y="-851.023" width="1639.47" height="1635.18" filterUnits="userSpaceOnUse" color-interpolation-filters="sRGB">
<feFlood flood-opacity="0" result="BackgroundImageFix"/>
<feColorMatrix in="SourceAlpha" type="matrix" values="0 0 0 0 0 0 0 0 0 0 0 0 0 0 0 0 0 0 127 0" result="hardAlpha"/>
<feOffset dy="5"/>
<feGaussianBlur stdDeviation="100"/>
<feColorMatrix type="matrix" values="0 0 0 0 0 0 0 0 0 0 0 0 0 0 0 0 0 0 0.3 0"/>
<feBlend mode="normal" in2="BackgroundImageFix" result="effect1_dropShadow_1658_5361"/>
<feBlend mode="normal" in="SourceGraphic" in2="effect1_dropShadow_1658_5361" result="shape"/>
</filter>
<linearGradient id="paint0_linear_1658_5361" x1="1400" y1="1000" x2="-114.236" y2="703.544" gradientUnits="userSpaceOnUse">
<stop stop-color="#47474F"/>
<stop offset="1" stop-color="#292931"/>
</linearGradient>
<linearGradient id="paint1_linear_1658_5361" x1="1466.58" y1="-196.157" x2="651.604" y2="310.738" gradientUnits="userSpaceOnUse">
<stop offset="0.169537" stop-color="#F5F5FA"/>
<stop offset="1" stop-color="#707078"/>
</linearGradient>
<linearGradient id="paint2_linear_1658_5361" x1="-218.201" y1="656.705" x2="555.824" y2="175.024" gradientUnits="userSpaceOnUse">
<stop offset="0.169537" stop-color="#F5F5FA"/>
<stop offset="1" stop-color="#707078"/>
</linearGradient>
</defs>
</svg>
