<svg width="48" height="48" fill="none" xmlns="http://www.w3.org/2000/svg"><path d="M21.147 8.781c.898-2.764 4.808-2.764 5.706 0l1.862 5.73a3 3 0 0 0 2.853 2.073h6.024c2.907 0 4.115 3.718 1.764 5.427l-4.874 3.54a3 3 0 0 0-1.09 3.355l1.862 5.73c.898 2.763-2.266 5.062-4.617 3.353l-4.874-3.54a3 3 0 0 0-3.526 0l-4.874 3.54c-2.351 1.709-5.515-.59-4.617-3.354l1.862-5.73a3 3 0 0 0-1.09-3.353L8.644 22.01c-2.35-1.709-1.142-5.427 1.764-5.427h6.024a3 3 0 0 0 2.853-2.073l1.862-5.73Z" fill="#FFC233"/><mask id="a" style="mask-type:alpha" maskUnits="userSpaceOnUse" x="7" y="6" width="34" height="33"><path d="M21.147 8.781c.898-2.764 4.808-2.764 5.706 0l1.862 5.73a3 3 0 0 0 2.853 2.073h6.024c2.907 0 4.115 3.718 1.764 5.427l-4.874 3.54a3 3 0 0 0-1.09 3.355l1.862 5.73c.898 2.763-2.266 5.062-4.617 3.353l-4.874-3.54a3 3 0 0 0-3.526 0l-4.874 3.54c-2.351 1.709-5.515-.59-4.617-3.354l1.862-5.73a3 3 0 0 0-1.09-3.353L8.644 22.01c-2.35-1.709-1.142-5.427 1.764-5.427h6.024a3 3 0 0 0 2.853-2.073l1.862-5.73Z" fill="#FFC233"/></mask><g mask="url(#a)"><path fill="#D9D9D9" d="M24 0h24v51H24z"/></g></svg>