<svg width="20" height="20" fill="none" xmlns="http://www.w3.org/2000/svg"><path fill-rule="evenodd" clip-rule="evenodd" d="M10 0c5.523 0 10 4.477 10 10s-4.477 10-10 10S0 15.523 0 10 4.477 0 10 0ZM5.115 11.507 4.447 7.02c-.012-.101.049-.194.136-.208a.141.141 0 0 1 .092.016l2.595 1.448c.074.041.162.012.206-.069l2.279-4.23c.046-.087.145-.113.22-.06.02.015.036.033.049.055l2.44 4.243c.045.077.13.104.202.065l2.662-1.455c.08-.043.175-.004.213.088a.21.21 0 0 1 .014.105l-.684 4.49c-.01.092-.078.16-.158.16H5.274c-.08 0-.148-.068-.159-.16Zm.996 1.632a.75.75 0 0 0 0 1.5h7.778a.75.75 0 0 0 0-1.5H6.11Z" fill="#47474F"/></svg>