<svg width="24" height="24" viewBox="0 0 24 24" fill="none" xmlns="http://www.w3.org/2000/svg">
<g clip-path="url(#clip0_877_7940)">
<path d="M8.66667 12C5.90917 12 3.66667 9.7575 3.66667 7C3.66667 4.2425 5.90917 2 8.66667 2C11.4242 2 13.6667 4.2425 13.6667 7C13.6667 9.7575 11.4242 12 8.66667 12ZM18.0908 10.3408C16.35 10.235 14.8142 11.3125 14.0533 12.8817C13.5175 13.9875 13.6058 14.9708 13.9108 15.8525C13.9108 15.8525 13.6667 16.1658 13.6667 16.5825C13.6667 17.4158 13.6483 17.8325 13.6483 17.8325H12.815C12.355 17.8325 11.9817 18.2058 11.9817 18.6658V19.4992H11.1667C10.7067 19.4992 10.3333 19.8725 10.3333 20.3325V21.1658C10.3333 21.6258 10.7067 21.9992 11.1667 21.9992H11.8133C12.255 21.9992 12.6792 21.8233 12.9917 21.5108L16.1808 18.3217C16.9708 18.6642 17.8842 18.775 18.8417 18.5442C20.4125 18.1658 21.6525 16.8483 21.9333 15.2567C22.3817 12.7108 20.5167 10.4883 18.0908 10.3408ZM18.6667 14.9167C17.9767 14.9167 17.4167 14.3567 17.4167 13.6667C17.4167 12.9767 17.9767 12.4167 18.6667 12.4167C19.3567 12.4167 19.9167 12.9767 19.9167 13.6667C19.9167 14.3567 19.3567 14.9167 18.6667 14.9167ZM8.66667 21.1667V20.3333C8.66667 19.2142 9.40583 18.265 10.4208 17.9475C10.6533 17.1733 11.2525 16.5567 12.0142 16.2983C12.0367 16.0825 12.0825 15.885 12.1392 15.7092C12.0542 15.3283 12.0225 14.9525 12.0175 14.5792C11.0317 14.0025 9.88917 13.6667 8.66667 13.6667C4.99083 13.6667 2 16.6575 2 20.3333V21.1667C2 21.6275 2.37333 22 2.83333 22H8.82C8.72667 21.7383 8.66667 21.46 8.66667 21.1667Z" fill="#47474F"/>
</g>
<defs>
<clipPath id="clip0_877_7940">
<rect width="20" height="20" fill="white" transform="translate(2 2)"/>
</clipPath>
</defs>
</svg>
