<svg xmlns="http://www.w3.org/2000/svg" width="10" height="11" fill="#47474F" fill-rule="evenodd"><path d="M.604 7.357l-.603-4.04c-.01-.1.044-.175.123-.187a.13.13 0 0 1 .082.015l2.336 1.303c.066.037.146.01.185-.062L4.778.578c.042-.078.132-.1.2-.053.017.013.032.03.044.05l2.197 3.82c.04.07.117.094.18.058l2.396-1.3c.072-.04.158-.004.192.08a.19.19 0 0 1 .012.094L9.383 7.36c-.01.082-.07.143-.142.143H.746c-.072 0-.133-.06-.143-.143zM8.5 8.9a.6.6 0 0 1 .097 1.192L8.5 10.1h-7a.6.6 0 0 1-.097-1.192L1.5 8.9h7z"/></svg>