<svg xmlns="http://www.w3.org/2000/svg" width="12" height="13"><path d="M8.902 13c.787 0 1.262-.412 1.295-1.174l.397-8.596h.918c.267 0 .488-.212.488-.47 0-.262-.22-.475-.488-.475H8.727V1.43C8.727.562 8.115 0 7.132 0H4.86c-.976 0-1.588.562-1.588 1.43v.856H.488C.22 2.286 0 2.5 0 2.76c0 .256.22.47.488.47h.924l.397 8.596c.033.762.5 1.174 1.295 1.174h5.798zm-1.2-10.714H4.315v-.8c0-.33.254-.568.625-.568h2.12c.37 0 .63.237.63.568v.8zM3.826 11.37c-.228 0-.397-.187-.403-.444l-.267-6.422c-.007-.256.176-.444.4-.444.22 0 .4.2.423.437l.247 6.422c.007.244-.17.45-.4.45zm2.174 0c-.228 0-.423-.206-.423-.45V4.498c0-.237.195-.437.423-.437s.43.2.43.437l-.007 6.422c0 .244-.195.45-.423.45zm2.174 0c-.24 0-.4-.206-.403-.45l.247-6.422c.007-.237.195-.437.416-.437a.42.42 0 0 1 .416.444l-.273 6.422c-.007.256-.17.444-.403.444z" fill="#707078" fill-rule="nonzero"/></svg>