<?xml version="1.0" encoding="UTF-8"?>
<svg width="37px" height="37px" viewBox="0 0 37 37" version="1.1" xmlns="http://www.w3.org/2000/svg" xmlns:xlink="http://www.w3.org/1999/xlink">
    <!-- Generator: Sketch 61.2 (89653) - https://sketch.com -->
    <title>Group 16 Copy 5</title>
    <desc>Created with Sketch.</desc>
    <g id="----↳-PDF---Signature" stroke="none" stroke-width="1" fill="none" fill-rule="evenodd">
        <g id="Certified" transform="translate(-971.000000, -1284.000000)">
            <g id="Group-16-Copy-5" transform="translate(971.000000, 1284.000000)">
                <path d="M0,18.3561561 C0,28.4887543 8.22355794,36.7123122 18.3561561,36.7123122 C28.4887543,36.7123122 36.7123122,28.4887543 36.7123122,18.3561561 C36.7123122,8.22355794 28.4887543,0 18.3561561,0 C8.22355794,0 0,8.22355794 0,18.3561561 Z" id="Path" fill="#FFFFFF"></path>
                <g id="Group-42" transform="translate(7.342462, 5.506847)" fill="#adadb6">
                    <path d="M11.0136937,-7.10542736e-14 C14.0608156,-7.10542736e-14 16.5205405,2.45972492 16.5205405,5.50684684 C16.5205405,8.55396875 14.0608156,11.0136937 11.0136937,11.0136937 C7.96657176,11.0136937 5.50684684,8.55396875 5.50684684,5.50684684 C5.50684684,2.45972492 7.96657176,-7.10542736e-14 11.0136937,-7.10542736e-14 L11.0136937,-7.10542736e-14 Z" id="Path"></path>
                    <path d="M11.0136937,25.6986186 C6.42465464,25.6986186 2.36794414,23.4609157 8.52651283e-14,20.0693974 C0.0550684684,16.5904687 7.34246245,14.6849249 11.0136937,14.6849249 C14.6665687,14.6849249 21.9723189,16.5904687 22.0273873,20.0693974 C19.6594432,23.4609157 15.6027327,25.6986186 11.0136937,25.6986186 L11.0136937,25.6986186 Z" id="Path"></path>
                </g>
            </g>
        </g>
    </g>
</svg>