<svg xmlns="http://www.w3.org/2000/svg" width="48" height="48" fill="none"><g clip-path="url(#a)"><path fill="#FFAF99" d="M31.031 40.875C31.031 44.756 27.881 48 24 48s-7.031-3.244-7.031-7.125c0-.788.618-1.406 1.406-1.406h11.25c.788 0 1.406.618 1.406 1.406Z"/><path fill="#FF7651" d="M31.031 40.875C31.031 44.756 27.881 48 24 48v-8.531h5.625c.788 0 1.406.618 1.406 1.406Z"/><path fill="#F7E8DE" d="M33.844 36.656v1.407a4.213 4.213 0 0 1-4.219 4.218h-11.25a4.213 4.213 0 0 1-4.219-4.218v-1.407l2.672-2.906h14.344l2.672 2.906Z"/><path fill="#FFAF99" d="m31.172 33.75 2.672 2.906v1.407a4.213 4.213 0 0 1-4.219 4.218H24V33.75h7.172Z"/><path fill="#F7E8DE" d="M40.875 16.875c0 4.078-1.49 8.044-4.19 11.11-1.491 1.715-2.391 3.712-2.7 5.765-.057.478-.141 1.022-.141 1.5v1.406H14.156V35.25c0-.478-.056-1.022-.14-1.5a10.712 10.712 0 0 0-2.644-5.681c-3.6-4.05-5.006-9.479-3.853-14.878C8.869 6.862 14.016 1.716 20.372.366A17.637 17.637 0 0 1 24 0a16.87 16.87 0 0 1 16.875 16.875Z"/><path fill="#FFAF99" d="M40.875 16.875c0 4.078-1.49 8.044-4.19 11.11-1.491 1.715-2.391 3.712-2.7 5.765-.057.478-.141 1.022-.141 1.5v1.406H24V0a16.87 16.87 0 0 1 16.875 16.875Z"/><path fill="#FF7651" d="M35.25 16.875c0 .787-.619 1.406-1.406 1.406a1.393 1.393 0 0 1-1.407-1.406c0-4.64-3.796-8.438-8.437-8.438a1.393 1.393 0 0 1-1.406-1.406c0-.787.618-1.406 1.406-1.406 6.216 0 11.25 5.034 11.25 11.25ZM4.219 19.688H1.406a1.405 1.405 0 1 1 0-2.813H4.22a1.405 1.405 0 1 1 0 2.813ZM3.807 12.244c-.36 0-.72-.137-.994-.412L.824 9.844a1.406 1.406 0 1 1 1.989-1.989L4.8 9.844a1.406 1.406 0 0 1-.994 2.4ZM.824 28.707c-.55-.549-.55-1.439 0-1.988l1.989-1.989A1.406 1.406 0 1 1 4.8 26.72l-1.988 1.988c-.55.55-1.44.55-1.989 0ZM46.594 19.688H43.78a1.405 1.405 0 1 1 0-2.813h2.813a1.405 1.405 0 1 1 0 2.813ZM43.2 11.832c-.55-.549-.55-1.439 0-1.988l1.988-1.989a1.406 1.406 0 1 1 1.988 1.989l-1.988 1.988c-.55.55-1.44.55-1.989 0ZM45.188 28.707l-1.989-1.988a1.406 1.406 0 1 1 1.989-1.989l1.988 1.989a1.406 1.406 0 1 1-1.988 1.988Z"/><path fill="#FF7651" d="M35.25 16.875c0 .787-.619 1.406-1.406 1.406a1.393 1.393 0 0 1-1.407-1.406c0-4.64-3.796-8.438-8.437-8.438V5.626c6.216 0 11.25 5.034 11.25 11.25Z"/></g><defs><clipPath id="a"><path fill="#fff" d="M0 0h48v48H0z"/></clipPath></defs></svg>