<svg width="48" height="48" fill="none" xmlns="http://www.w3.org/2000/svg"><g clip-path="url(#a)"><path d="M47.9 26.173a24.28 24.28 0 0 0 .043-3.815.725.725 0 0 0-.553-.655l-2.486-.6c-.242-1.761-.701-3.453-1.35-5.047l1.85-1.762a.725.725 0 0 0 .152-.844 24.085 24.085 0 0 0-1.642-2.843.725.725 0 0 0-.806-.29l-2.454.722a21.23 21.23 0 0 0-3.694-3.693l.724-2.454a.725.725 0 0 0-.29-.806 23.978 23.978 0 0 0-2.845-1.642.725.725 0 0 0-.843.151l-1.762 1.85a20.955 20.955 0 0 0-5.047-1.349v1.449C35.544 5.859 42.205 14.068 42.205 24c0 9.932-6.66 18.14-15.308 19.455v1.449c1.761-.242 3.453-.701 5.047-1.35l1.762 1.85c.218.23.56.291.843.152a23.997 23.997 0 0 0 2.845-1.642.725.725 0 0 0 .29-.806l-.723-2.454a21.23 21.23 0 0 0 3.693-3.694l2.454.724c.303.089.63-.028.806-.29a23.933 23.933 0 0 0 1.642-2.845.725.725 0 0 0-.151-.843l-1.85-1.762a20.959 20.959 0 0 0 1.349-5.047l2.997-.724Z" fill="#1C83A8"/><path d="M42.205 24c0-10.672-6.66-19.492-15.308-20.904l-.6-2.486a.725.725 0 0 0-.655-.553 24.005 24.005 0 0 0-3.284 0 .725.725 0 0 0-.655.553l-.6 2.486c-1.761.242-3.453.701-5.047 1.35l-1.762-1.85a.725.725 0 0 0-.844-.152 24.034 24.034 0 0 0-2.843 1.642.725.725 0 0 0-.29.806l.722 2.454a21.23 21.23 0 0 0-3.693 3.693l-2.454-.723a.725.725 0 0 0-.806.29 23.975 23.975 0 0 0-1.642 2.845.725.725 0 0 0 .151.843l1.85 1.762a20.954 20.954 0 0 0-1.349 5.047l-2.486.6a.725.725 0 0 0-.553.655 24.067 24.067 0 0 0 0 3.284c.022.315.246.58.553.655l2.486.6c.242 1.761.701 3.453 1.35 5.047l-1.85 1.762a.725.725 0 0 0-.152.843 24.034 24.034 0 0 0 1.642 2.845c.176.262.503.38.806.29l2.454-.723a21.23 21.23 0 0 0 3.693 3.693l-.723 2.454c-.09.303.028.63.29.806a23.987 23.987 0 0 0 2.845 1.642.725.725 0 0 0 .843-.151l1.762-1.85a20.954 20.954 0 0 0 5.047 1.349l.6 2.486c.075.307.34.532.655.553a23.997 23.997 0 0 0 3.284 0 .725.725 0 0 0 .655-.553l.6-2.486C35.544 43.492 42.206 34.672 42.206 24ZM24 40.757c-9.254 0-16.757-7.503-16.757-16.757 0-9.254 7.503-16.757 16.757-16.757 9.254 0 16.757 7.503 16.757 16.757 0 9.254-7.503 16.757-16.757 16.757Z" fill="#3CB6E2"/><path d="M24 42.205c10.054 0 18.205-8.15 18.205-18.205 0-10.055-8.15-18.205-18.205-18.205-10.055 0-18.205 8.15-18.205 18.205 0 10.054 8.15 18.205 18.205 18.205Z" fill="#fff"/><path d="m8.692 24 4.346-2.897L17.384 24c0 1.827.74 3.48 1.938 4.678l-6.146 6.146A15.26 15.26 0 0 1 8.692 24Z" fill="#F5F5FA"/><path d="M8.692 24h8.692c0-1.827.74-3.48 1.938-4.678v-6.146h-6.146A15.26 15.26 0 0 0 8.692 24Z" fill="#E3F0FC"/><path d="M39.308 24a15.26 15.26 0 0 1-4.484 10.824L33.64 33.64l1.322-12.537L39.308 24Z" fill="#2C64C0"/><path d="m33.64 33.64-4.962-4.962A6.595 6.595 0 0 0 30.616 24l4.346-2.897L36.41 24c0 3.654-1.038 7.008-2.77 9.64Z" fill="#2C64C0"/><path d="M39.308 24a15.26 15.26 0 0 0-4.484-10.824h-6.146L36.41 24h2.898Z" fill="#4D90FE"/><path d="m33.64 14.36-4.962-1.184v6.146A6.595 6.595 0 0 1 30.616 24h5.794c0-3.654-1.038-7.008-2.77-9.64Z" fill="#4D90FE"/><path d="m24 8.692 9.64 5.668 1.184-1.184A15.26 15.26 0 0 0 24 8.692Z" fill="#B7D2FF"/><path d="m24 8.692-2.898 4.346L24 17.384c1.827 0 3.48.74 4.678 1.938l4.962-4.962c-2.276-3.458-5.748-5.668-9.64-5.668Z" fill="#B7D2FF"/><path d="m13.176 13.176 6.146 6.146A6.594 6.594 0 0 1 24 17.384V8.692a15.26 15.26 0 0 0-10.824 4.484Z" fill="#B7D2FF"/><path d="M24 11.59c-.8 0-1.449.648-1.449 1.448v17.578a1.449 1.449 0 1 0 2.898 0V13.038c0-.8-.649-1.449-1.449-1.449Z" fill="#4A7AAB"/><path d="M24 26.897a2.897 2.897 0 1 0 0-5.794 2.897 2.897 0 0 0 0 5.794Z" fill="#9CF"/><path d="M24 24.724a.724.724 0 1 0 0-1.448.724.724 0 0 0 0 1.448Z" fill="#1D4772"/></g><defs><clipPath id="a"><path fill="#fff" d="M0 0h48v48H0z"/></clipPath></defs></svg>