<svg xmlns="http://www.w3.org/2000/svg" width="48" height="48" fill="none"><g clip-path="url(#a)"><g clip-path="url(#b)"><path fill="#95D7EE" d="M47.037 32.871h-3.084v3.511h3.084c.277 0 .502-.22.502-.491v-2.529a.497.497 0 0 0-.502-.49ZM47.037 39.246h-3.084v3.511h3.084c.277 0 .502-.22.502-.49v-2.53a.497.497 0 0 0-.502-.49Z"/><path fill="#95D7EE" d="M40.904 32.871h3.124v9.886h-3.123v-9.886Z"/><path fill="#1C83A8" d="M8.594 19.985v-7.557a6.669 6.669 0 0 1 6.661-6.66 6.669 6.669 0 0 1 6.661 6.66v7.557h3.498v-7.557c0-5.61-4.548-10.159-10.159-10.159-5.61 0-10.159 4.549-10.159 10.16v7.556h3.498Z"/><path fill="#1C83A8" d="M16.27 2.32c-.334-.034-.672-.05-1.015-.05-5.61 0-10.159 4.548-10.159 10.158v7.557h2.029v-7.557c0-5.268 4.01-9.6 9.145-10.109ZM17.284 5.767c-.345 0-.684.026-1.014.077 3.193.49 5.646 3.256 5.646 6.584v7.557h2.029v-7.557a6.669 6.669 0 0 0-6.661-6.66Z"/><path fill="#95D7EE" d="M40.808 21.288H37.73l-.199.241v22.446a1.755 1.755 0 1 0 3.51 0V21.53l-.233-.241Z"/><path fill="#95D7EE" d="M39.591 43.975V21.53l.199-.241h-2.06l-.199.241v22.446a1.755 1.755 0 0 0 2.786 1.42 1.751 1.751 0 0 1-.726-1.42Z"/><path fill="#95D7EE" d="m41.862 16.805-.74-.491h-3.734l-.74.507-.077.236v3.356c0 .624.506 1.13 1.131 1.13h3.169c.625 0 1.131-.506 1.131-1.13v-3.357l-.14-.251Z"/><path fill="#95D7EE" d="M39.286 20.413v-4.099h-1.898l-.74.507-.077.236v3.356c0 .624.506 1.13 1.131 1.13h2.716a1.131 1.131 0 0 1-1.132-1.13Z"/><path fill="#95D7EE" d="M44.627 8.777a1.348 1.348 0 0 1-1.03-1.513A4.371 4.371 0 0 0 39.6 2.28a4.357 4.357 0 0 0-4.618 5.025c.107.684-.352 1.316-1.027 1.47a4.358 4.358 0 0 0-3.38 4.394c.075 2.291 1.958 4.155 4.25 4.21a4.336 4.336 0 0 0 2.359-.629c.232-.14.5-.21.77-.21h2.67c.273 0 .542.071.775.213a4.292 4.292 0 0 0 1.93.615 4.357 4.357 0 0 0 1.298-8.59Zm-3.067 4.708a4.656 4.656 0 0 0-.935-.095h-2.67c-.32 0-.637.033-.945.096-1.37.284-2.053-1.523-.941-2.232a4.506 4.506 0 0 0 1.948-2.707c.336-1.358 2.215-1.348 2.552-.007a4.56 4.56 0 0 0 1.94 2.708c1.106.715.425 2.518-.949 2.237Z"/><path fill="#95D7EE" d="M32.796 14.038a4.358 4.358 0 0 1 3.38-4.394c.675-.154 1.134-.786 1.027-1.47a4.357 4.357 0 0 1 4.617-5.025l.096.01A4.314 4.314 0 0 0 39.6 2.28a4.357 4.357 0 0 0-4.617 5.025c.107.684-.352 1.316-1.027 1.47a4.358 4.358 0 0 0-3.38 4.394c.072 2.19 1.796 3.99 3.95 4.19a4.358 4.358 0 0 1-1.729-3.32ZM28.432 19.599H2.078c-1.147 0-2.078.93-2.078 2.078v21.975c0 1.148.93 2.079 2.078 2.079h26.355c1.147 0 2.078-.93 2.078-2.079V21.677c0-1.148-.93-2.078-2.079-2.078Z"/><path fill="#95D7EE" d="M4.852 43.652V21.677c0-1.148.93-2.078 2.078-2.078H2.078c-1.147 0-2.078.93-2.078 2.078v21.975c0 1.148.93 2.079 2.078 2.079H6.93a2.078 2.078 0 0 1-2.078-2.079Z"/><path fill="#1C83A8" d="M16.72 33.27a.978.978 0 0 1 .372-1.157 3.33 3.33 0 0 0-2.075-6.1 3.34 3.34 0 0 0-3.082 3.052 3.327 3.327 0 0 0 1.47 3.038.986.986 0 0 1 .387 1.163L12.32 37.22a.712.712 0 0 0 .668.961h4.535c.496 0 .84-.495.667-.96l-1.47-3.951Z"/><path fill="#1C83A8" d="m15.218 37.22 1.472-3.954.014-.045a.986.986 0 0 1-.001-.589 1.01 1.01 0 0 0-.401-.529 3.328 3.328 0 0 1 .405-5.767 3.327 3.327 0 0 0-1.69-.324 3.34 3.34 0 0 0-3.082 3.053 3.328 3.328 0 0 0 1.47 3.038.986.986 0 0 1 .387 1.163L12.32 37.22a.712.712 0 0 0 .668.961h2.897a.712.712 0 0 1-.667-.96Z"/></g></g><defs><clipPath id="a"><path fill="#fff" d="M0 0h48v48H0z"/></clipPath><clipPath id="b"><path fill="#fff" d="M0 0h48v48H0z"/></clipPath></defs></svg>