<?xml version="1.0" encoding="UTF-8"?>
<svg width="14px" height="15px" viewBox="0 0 14 15" version="1.1" xmlns="http://www.w3.org/2000/svg" xmlns:xlink="http://www.w3.org/1999/xlink">
    <g stroke="none" stroke-width="1" fill="none" fill-rule="evenodd">
        <g transform="translate(-1293.000000, -2722.000000)" fill="#BD060A" fill-rule="nonzero">
            <path d="M1300,2722.5 C1300.51284,2722.5 1300.93551,2722.88604 1300.99327,2723.38338 L1301,2723.5 L1301,2735.5 C1301,2736.05228 1300.55228,2736.5 1300,2736.5 C1299.48716,2736.5 1299.06449,2736.11396 1299.00673,2735.61662 L1299,2735.5 L1299,2723.5 C1299,2722.94772 1299.44772,2722.5 1300,2722.5 Z M1306,2728.5 C1306.55228,2728.5 1307,2728.94772 1307,2729.5 C1307,2730.01284 1306.61396,2730.43551 1306.11662,2730.49327 L1306,2730.5 L1294,2730.5 C1293.44772,2730.5 1293,2730.05228 1293,2729.5 C1293,2728.98716 1293.38604,2728.56449 1293.88338,2728.50673 L1294,2728.5 L1306,2728.5 Z"></path>
        </g>
    </g>
</svg>