<?xml version="1.0" encoding="UTF-8"?>
<svg width="6px" height="9px" viewBox="0 0 6 9" version="1.1" xmlns="http://www.w3.org/2000/svg" xmlns:xlink="http://www.w3.org/1999/xlink">
    <title>Path Copy 15</title>
    <g id="Sprite" stroke="none" stroke-width="1" fill="none" fill-rule="evenodd">
        <g id="sprite_icones_ilovepdf" transform="translate(-91.000000, -144.000000)" fill="#161616">
            <path d="M96.5000515,151.999055 L96.5000515,144.999973 C96.5015881,144.867239 96.4420698,144.739824 96.3355512,144.648019 C96.2335557,144.552143 96.0919986,144.498571 95.9445313,144.499954 C95.7970639,144.498571 95.6555068,144.552143 95.5535113,144.648019 L91.665529,148.14756 C91.5586013,148.239193 91.4986703,148.36663 91.499948,148.499514 C91.4986703,148.632398 91.5586013,148.759835 91.665529,148.851468 L95.5535113,152.351009 C95.6553153,152.447253 95.7968973,152.501197 95.9445313,152.500047 C96.0921652,152.501197 96.2337472,152.447253 96.3355512,152.351009 C96.4207661,152.277564 96.4759008,152.18133 96.4937278,152.077815 L96.5000515,151.999055 Z" id="Path-Copy-15"></path>
        </g>
    </g>
</svg>