<?xml version="1.0" encoding="UTF-8"?>
<svg width="6px" height="9px" viewBox="0 0 6 9" version="1.1" xmlns="http://www.w3.org/2000/svg" xmlns:xlink="http://www.w3.org/1999/xlink">
    <title>Path Copy 14</title>
    <g id="Sprite" stroke="none" stroke-width="1" fill="none" fill-rule="evenodd">
        <g id="sprite_icones_ilovepdf" transform="translate(-80.000000, -144.000000)" fill="#161616">
            <path d="M80.4999686,145.000954 L80.4999686,152.000036 C80.4984019,152.13277 80.5579202,152.260185 80.6644388,152.35199 C80.7664343,152.447867 80.9079913,152.501438 81.0554587,152.500028 C81.2029261,152.501438 81.3444831,152.447867 81.4464786,152.35199 L85.334461,148.852449 C85.4413886,148.760816 85.5013197,148.633379 85.5000213,148.500495 C85.5013197,148.367611 85.4413886,148.240174 85.334461,148.148541 L81.4464786,144.649 C81.3446746,144.552756 81.2030926,144.498812 81.0554587,144.499981 C80.9078248,144.498812 80.7662428,144.552756 80.6644388,144.649 C80.5792239,144.722445 80.5240892,144.818679 80.5062622,144.922194 L80.4999686,145.000954 Z" id="Path-Copy-14"></path>
        </g>
    </g>
</svg>