<svg width="48" height="48" viewBox="0 0 48 48" fill="none" xmlns="http://www.w3.org/2000/svg">
<g clip-path="url(#clip0_1509_12160)">
<path d="M47.4 43.7784H46.2342V41.25C46.2342 40.9182 45.9654 40.65 45.6342 40.65H44.9719V7.80715H45.8569C46.188 7.80715 46.4569 7.53891 46.4569 7.20715V4.2C46.4569 3.86824 46.188 3.6 45.8569 3.6H41.4V0.6C41.4 0.268242 41.1312 0 40.8 0H37.0446C36.7134 0 36.4446 0.268242 36.4446 0.6V3.6H34.0458V0.6C34.0458 0.268242 33.777 0 33.4458 0H29.6904C29.3592 0 29.0904 0.268242 29.0904 0.6V3.6H14.4618C14.1306 3.6 13.8618 3.86824 13.8618 4.2V7.20715C13.8618 7.53891 14.1306 7.80715 14.4618 7.80715H15.3468V40.65H14.6844C14.3532 40.65 14.0844 40.9182 14.0844 41.25V43.7784H6.795L6.77637 37.929C9.88734 37.6404 12.3258 35.1817 12.3258 32.2002C12.3258 31.0482 11.9621 29.9364 11.2752 28.9842C11.232 28.9242 11.1877 28.8654 11.142 28.8073C11.3735 28.2409 11.4912 27.6486 11.4912 27.0421C11.4912 25.9807 11.127 24.9492 10.4585 24.0979C10.6373 23.6346 10.7273 23.1517 10.7273 22.6584C10.7273 22.5858 10.7256 22.5138 10.7214 22.4413C10.6002 20.1655 8.59734 18.3823 6.16254 18.3823C3.64559 18.3823 1.59832 20.3005 1.59832 22.6584C1.59832 23.1523 1.68832 23.6346 1.86715 24.0979C1.19871 24.9498 0.835195 25.9813 0.835195 27.0421C0.835195 27.6492 0.952148 28.2409 1.18441 28.8079C0.417656 29.7894 0 30.9792 0 32.2002C0 35.1906 2.45285 37.6536 5.57637 37.9308L5.595 43.7784H0.6C0.268828 43.7784 0 44.0467 0 44.3784V47.4C0 47.7318 0.268828 48 0.6 48H47.4C47.7312 48 48 47.7318 48 47.4V44.3784C48 44.0466 47.7312 43.7784 47.4 43.7784ZM37.6446 1.2H40.2V3.6H37.6446V1.2ZM32.8464 1.2V3.6H30.291V1.2H32.8464ZM15.0618 6.60715V4.8H45.2568V6.60715H15.0618ZM40.8918 31.521H32.0352C31.704 31.521 31.4352 31.7892 31.4352 32.121V40.6506H16.5468V7.80715H43.7718V40.65H41.4918V32.121C41.4918 31.7892 41.223 31.521 40.8918 31.521ZM40.2918 32.721V40.6506H37.0631V32.721H40.2918ZM35.8638 32.721V40.6506H32.6352V40.65V32.721H35.8638ZM15.2844 41.85H45.0342V43.7784H15.2844V41.85ZM5.55363 30.9371L5.55902 32.6741L4.72617 31.8413C4.49156 31.6066 4.11234 31.6066 3.87773 31.8413C3.64313 32.0759 3.64313 32.4551 3.87773 32.6897L5.5643 34.3763L5.57145 36.7228C3.11379 36.4534 1.19988 34.5298 1.19988 32.2C1.19988 31.1457 1.60184 30.1167 2.33273 29.3032C2.49832 29.119 2.53312 28.852 2.42156 28.6313C2.1648 28.1249 2.03461 27.5903 2.03461 27.0418C2.03461 26.1532 2.3802 25.2874 3.00844 24.6059C3.17707 24.4222 3.2148 24.1541 3.10383 23.9314C2.90098 23.5247 2.79844 23.0963 2.79844 22.6576C2.79844 20.9614 4.30805 19.5814 6.16266 19.5814C7.95961 19.5814 9.4357 20.8655 9.52324 22.5041C9.52559 22.5551 9.52746 22.6061 9.52746 22.6577C9.52746 23.0958 9.4248 23.5247 9.22149 23.9316C9.10992 24.1542 9.14824 24.4223 9.31687 24.606C9.94453 25.2875 10.2907 26.1527 10.2907 27.042C10.2907 27.5904 10.1605 28.1256 9.90375 28.6314C9.7916 28.8521 9.82699 29.1192 9.99199 29.3033C10.1018 29.4257 10.205 29.5529 10.3016 29.6862C10.8404 30.4331 11.1254 31.302 11.1254 32.2002C11.1254 34.5234 9.2216 36.4429 6.77238 36.72L6.76523 34.4394L8.51484 32.6898C8.74945 32.4552 8.74945 32.076 8.51484 31.8414C8.28023 31.6068 7.90102 31.6068 7.66641 31.8414L6.75984 32.7473L6.75387 30.9335C6.7527 30.6023 6.48445 30.3353 6.15387 30.3353C6.15328 30.3353 6.1527 30.3353 6.15211 30.3353C5.82059 30.3366 5.55246 30.606 5.55363 30.9371ZM46.8 46.8H1.2V44.9784H46.8V46.8Z" fill="black"/>
<path d="M40.8151 24.375H38.1312C37.8001 24.375 37.5312 24.6432 37.5312 24.975V28.9452C37.5312 29.2764 37.8001 29.5452 38.1312 29.5452H40.8151C41.1463 29.5452 41.4151 29.277 41.4151 28.9452V24.975C41.4151 24.6432 41.1463 24.375 40.8151 24.375ZM40.2151 28.3446H38.7312V25.5744H40.2151V28.3446Z" fill="black"/>
<path d="M40.8151 17.2505H38.1312C37.8001 17.2505 37.5312 17.5187 37.5312 17.8505V21.8207C37.5312 22.1519 37.8001 22.4207 38.1312 22.4207H40.8151C41.1463 22.4207 41.4151 22.1524 41.4151 21.8207V17.8505C41.4151 17.5187 41.1463 17.2505 40.8151 17.2505ZM40.2151 21.2201H38.7312V18.4499H40.2151V21.2201Z" fill="black"/>
<path d="M34.5807 24.375H31.8969C31.5657 24.375 31.2969 24.6432 31.2969 24.975V28.9452C31.2969 29.2764 31.5657 29.5452 31.8969 29.5452H34.5807C34.9119 29.5452 35.1807 29.277 35.1807 28.9452V24.975C35.1807 24.6432 34.9119 24.375 34.5807 24.375ZM33.9807 28.3446H32.4969V25.5744H33.9807V28.3446Z" fill="black"/>
<path d="M34.5807 17.2505H31.8969C31.5657 17.2505 31.2969 17.5187 31.2969 17.8505V21.8207C31.2969 22.1519 31.5657 22.4207 31.8969 22.4207H34.5807C34.9119 22.4207 35.1807 22.1524 35.1807 21.8207V17.8505C35.1807 17.5187 34.9119 17.2505 34.5807 17.2505ZM33.9807 21.2201H32.4969V18.4499H33.9807V21.2201Z" fill="black"/>
<path d="M28.3463 24.3745H25.6625C25.3313 24.3745 25.0625 24.6428 25.0625 24.9745V28.9447C25.0625 29.2765 25.3313 29.5447 25.6625 29.5447H28.3463C28.6775 29.5447 28.9463 29.2765 28.9463 28.9447V24.9745C28.9463 24.6433 28.6775 24.3745 28.3463 24.3745ZM27.7463 28.3453H26.2625V25.5751H27.7463V28.3453Z" fill="black"/>
<path d="M28.3463 17.25H25.6625C25.3313 17.25 25.0625 17.5182 25.0625 17.85V21.8202C25.0625 22.152 25.3313 22.4202 25.6625 22.4202H28.3463C28.6775 22.4202 28.9463 22.152 28.9463 21.8202V17.85C28.9463 17.5188 28.6775 17.25 28.3463 17.25ZM27.7463 21.2208H26.2625V18.4506H27.7463V21.2208Z" fill="black"/>
<path d="M22.112 24.3745H19.4281C19.097 24.3745 18.8281 24.6428 18.8281 24.9745V28.9447C18.8281 29.2765 19.097 29.5447 19.4281 29.5447H22.112C22.4431 29.5447 22.712 29.2765 22.712 28.9447V24.9745C22.712 24.6433 22.4431 24.3745 22.112 24.3745ZM21.512 28.3453H20.0281V25.5751H21.512V28.3453Z" fill="black"/>
<path d="M28.3463 31.521H25.6625C25.3313 31.521 25.0625 31.7892 25.0625 32.121V36.0918C25.0625 36.4235 25.3313 36.6918 25.6625 36.6918H28.3463C28.6775 36.6918 28.9463 36.4235 28.9463 36.0918V32.121C28.9463 31.7892 28.6775 31.521 28.3463 31.521ZM27.7463 35.4918H26.2625V32.721H27.7463V35.4918Z" fill="black"/>
<path d="M22.112 31.521H19.4281C19.097 31.521 18.8281 31.7892 18.8281 32.121V36.0918C18.8281 36.4235 19.097 36.6918 19.4281 36.6918H22.112C22.4431 36.6918 22.712 36.4235 22.712 36.0918V32.121C22.712 31.7892 22.4431 31.521 22.112 31.521ZM21.512 35.4918H20.0281V32.721H21.512V35.4918Z" fill="black"/>
<path d="M22.112 17.25H19.4281C19.097 17.25 18.8281 17.5182 18.8281 17.85V21.8202C18.8281 22.152 19.097 22.4202 19.4281 22.4202H22.112C22.4431 22.4202 22.712 22.152 22.712 21.8202V17.85C22.712 17.5188 22.4431 17.25 22.112 17.25ZM21.512 21.2208H20.0281V18.4506H21.512V21.2208Z" fill="black"/>
<path d="M40.8151 10.127H38.1312C37.8001 10.127 37.5312 10.3952 37.5312 10.727V14.6971C37.5312 15.0283 37.8001 15.2971 38.1312 15.2971H40.8151C41.1463 15.2971 41.4151 15.0289 41.4151 14.6971V10.727C41.4151 10.3952 41.1463 10.127 40.8151 10.127ZM40.2151 14.0966H38.7312V11.3264H40.2151V14.0966Z" fill="black"/>
<path d="M34.5807 10.127H31.8969C31.5657 10.127 31.2969 10.3952 31.2969 10.727V14.6971C31.2969 15.0283 31.5657 15.2971 31.8969 15.2971H34.5807C34.9119 15.2971 35.1807 15.0289 35.1807 14.6971V10.727C35.1807 10.3952 34.9119 10.127 34.5807 10.127ZM33.9807 14.0966H32.4969V11.3264H33.9807V14.0966Z" fill="black"/>
<path d="M28.3463 10.126H25.6625C25.3313 10.126 25.0625 10.3942 25.0625 10.726V14.6962C25.0625 15.0279 25.3313 15.2962 25.6625 15.2962H28.3463C28.6775 15.2962 28.9463 15.0279 28.9463 14.6962V10.726C28.9463 10.3948 28.6775 10.126 28.3463 10.126ZM27.7463 14.0968H26.2625V11.3266H27.7463V14.0968Z" fill="black"/>
<path d="M22.112 10.126H19.4281C19.097 10.126 18.8281 10.3942 18.8281 10.726V14.6962C18.8281 15.0279 19.097 15.2962 19.4281 15.2962H22.112C22.4431 15.2962 22.712 15.0279 22.712 14.6962V10.726C22.712 10.3948 22.4431 10.126 22.112 10.126ZM21.512 14.0968H20.0281V11.3266H21.512V14.0968Z" fill="black"/>
</g>
<defs>
<clipPath id="clip0_1509_12160">
<rect width="48" height="48" fill="white"/>
</clipPath>
</defs>
</svg>
