<svg width="48" height="48" viewBox="0 0 48 48" fill="none" xmlns="http://www.w3.org/2000/svg">
<path d="M7.48316 17.2368C8.36984 17.2368 9.23661 16.9739 9.97386 16.4813C10.7111 15.9887 11.2857 15.2885 11.625 14.4693C11.9644 13.6501 12.0532 12.7487 11.8802 11.879C11.7072 11.0094 11.2802 10.2106 10.6532 9.5836C10.0262 8.95662 9.22742 8.52964 8.35778 8.35665C7.48813 8.18367 6.58672 8.27245 5.76753 8.61177C4.94834 8.95109 4.24816 9.52571 3.75555 10.263C3.26293 11.0002 3 11.867 3 12.7537C3.00138 13.9423 3.47415 15.0818 4.3146 15.9222C5.15506 16.7627 6.29457 17.2354 7.48316 17.2368ZM7.48316 9.77051C8.07317 9.77051 8.64993 9.94547 9.14051 10.2733C9.63108 10.6011 10.0134 11.067 10.2392 11.6121C10.465 12.1572 10.5241 12.757 10.409 13.3356C10.2939 13.9143 10.0098 14.4459 9.59256 14.8631C9.17536 15.2803 8.64382 15.5644 8.06514 15.6795C7.48646 15.7946 6.88665 15.7355 6.34155 15.5097C5.79645 15.284 5.33055 14.9016 5.00275 14.411C4.67496 13.9204 4.5 13.3437 4.5 12.7537C4.50086 11.9627 4.81543 11.2045 5.3747 10.6452C5.93396 10.0859 6.69224 9.77137 7.48316 9.77051Z" fill="black"/>
<path d="M40.5183 8.27051C39.6316 8.27051 38.7649 8.53344 38.0276 9.02606C37.2904 9.51867 36.7157 10.2188 36.3764 11.038C36.0371 11.8572 35.9483 12.7586 36.1213 13.6283C36.2943 14.4979 36.7213 15.2968 37.3482 15.9237C37.9752 16.5507 38.774 16.9777 39.6437 17.1507C40.5133 17.3237 41.4148 17.2349 42.2339 16.8956C43.0531 16.5562 43.7533 15.9816 44.2459 15.2444C44.7385 14.5071 45.0015 13.6403 45.0015 12.7537C45.0001 11.5651 44.5273 10.4256 43.6869 9.58511C42.8464 8.74466 41.7069 8.27188 40.5183 8.27051ZM40.5183 15.7368C39.9283 15.7368 39.3515 15.5619 38.861 15.2341C38.3704 14.9063 37.988 14.4404 37.7622 13.8953C37.5364 13.3502 37.4774 12.7504 37.5925 12.1717C37.7076 11.593 37.9917 11.0615 38.4089 10.6443C38.8261 10.2271 39.3577 9.94293 39.9363 9.82783C40.515 9.71272 41.1148 9.7718 41.6599 9.99759C42.205 10.2234 42.6709 10.6057 42.9987 11.0963C43.3265 11.5869 43.5015 12.1637 43.5015 12.7537C43.5006 13.5446 43.186 14.3029 42.6268 14.8621C42.0675 15.4214 41.3092 15.736 40.5183 15.7368Z" fill="black"/>
<path d="M41.1907 18.7837C40.6502 18.7838 40.116 18.8989 39.6234 19.1213C39.1308 19.3436 38.6911 19.6682 38.3335 20.0735L34.5571 24.356C34.4414 24.4871 34.299 24.5921 34.1395 24.664C33.98 24.7358 33.807 24.7729 33.6321 24.7727H30.3955C29.6489 24.7736 28.9331 25.0706 28.4051 25.5985C27.8772 26.1265 27.5802 26.8423 27.5793 27.5889V28.5169H20.4207V27.5889C20.4188 26.866 20.1387 26.1715 19.6385 25.6496C19.1383 25.1277 18.4563 24.8184 17.7342 24.7858V20.116C17.7352 19.0576 18.1561 18.0428 18.9044 17.2943C19.6528 16.5459 20.6674 16.1248 21.7258 16.1235H26.2742C27.3326 16.1248 28.3473 16.5459 29.0956 17.2943C29.8439 18.0428 30.2648 19.0576 30.2659 20.116V21.5852C30.2659 21.7841 30.3449 21.9749 30.4856 22.1155C30.6262 22.2562 30.817 22.3352 31.0159 22.3352C31.2148 22.3352 31.4056 22.2562 31.5462 22.1155C31.6869 21.9749 31.7659 21.7841 31.7659 21.5852V20.116C31.7643 18.6599 31.1852 17.2639 30.1557 16.2342C29.1262 15.2046 27.7303 14.6253 26.2742 14.6235H21.7258C20.2698 14.6253 18.8739 15.2046 17.8443 16.2342C16.8148 17.2639 16.2357 18.6599 16.2341 20.116V24.7727H14.3679C14.193 24.7729 14.02 24.7358 13.8605 24.664C13.701 24.5921 13.5586 24.4871 13.4429 24.356L9.6665 20.0735C9.15476 19.4932 8.47844 19.0825 7.72754 18.896C6.97664 18.7095 6.18675 18.7561 5.46298 19.0295C4.73921 19.303 4.11586 19.7904 3.67588 20.4268C3.23591 21.0632 3.00016 21.8186 3 22.5923V33.1538C3.00148 34.5166 3.5435 35.8231 4.50714 36.7868C5.47079 37.7504 6.77734 38.2924 8.14014 38.2939L12.6892 38.2763L15.2461 43.8068C15.3062 43.9368 15.4023 44.0469 15.523 44.124C15.6437 44.2011 15.784 44.242 15.9272 44.2419C16.0358 44.242 16.1431 44.2182 16.2415 44.1723C16.3309 44.131 16.4112 44.0725 16.478 44.0001C16.5448 43.9277 16.5966 43.8429 16.6306 43.7504C16.6645 43.658 16.6799 43.5597 16.6758 43.4613C16.6718 43.3629 16.6484 43.2663 16.6069 43.177L14.0508 37.6479C13.9331 37.3932 13.745 37.1774 13.5086 37.0261C13.2723 36.8748 12.9977 36.7942 12.717 36.7939H8.14014C7.17509 36.7927 6.24992 36.4088 5.56752 35.7264C4.88512 35.044 4.50122 34.1189 4.5 33.1538V22.5923C4.50022 22.1233 4.64321 21.6655 4.90995 21.2797C5.1767 20.894 5.55456 20.5986 5.99328 20.4328C6.43201 20.267 6.9108 20.2387 7.36599 20.3517C7.82118 20.4647 8.23119 20.7135 8.5415 21.0652L12.3179 25.3477C12.5744 25.6385 12.8898 25.8715 13.2433 26.0309C13.5968 26.1904 13.9801 26.2729 14.3679 26.2727H17.6045C17.9535 26.2731 18.288 26.4119 18.5348 26.6586C18.7815 26.9054 18.9203 27.24 18.9207 27.5889V28.5169H11.2163L8.48804 25.0584C8.36488 24.9022 8.18473 24.8014 7.98721 24.778C7.78969 24.7547 7.59099 24.8107 7.43481 24.9339C7.27864 25.057 7.17778 25.2372 7.15443 25.4347C7.13108 25.6322 7.18715 25.8309 7.3103 25.9871L10.1023 29.5269V32.7187C10.1022 32.8173 10.1216 32.9148 10.1593 33.0058C10.1969 33.0968 10.2522 33.1795 10.3218 33.2492C10.3915 33.3189 10.4742 33.3741 10.5652 33.4118C10.6562 33.4494 10.7538 33.4688 10.8523 33.4687H13.3191C13.8855 33.4684 14.4378 33.6461 14.8977 33.9768C15.3576 34.3075 15.7019 34.7744 15.8818 35.3115L18.7097 43.7307C18.7735 43.9188 18.9092 44.0739 19.0871 44.1621C19.2651 44.2503 19.4707 44.2643 19.659 44.2011C19.8473 44.1379 20.0028 44.0026 20.0915 43.8249C20.1802 43.6472 20.1948 43.4416 20.1321 43.2532L17.3042 34.834C17.0242 33.9988 16.4888 33.2729 15.7737 32.7587C15.0586 32.2445 14.1999 31.9682 13.3191 31.9687H11.6023V30.0168H36.3977V31.9687H34.6809C33.8001 31.9682 32.9414 32.2445 32.2263 32.7587C31.5112 33.2729 30.9758 33.9989 30.6958 34.834L27.8679 43.2532C27.8052 43.4416 27.8198 43.6472 27.9085 43.8249C27.9972 44.0026 28.1527 44.1379 28.341 44.2011C28.5293 44.2643 28.7349 44.2503 28.9129 44.1621C29.0908 44.0739 29.2265 43.9188 29.2903 43.7307L32.1182 35.3115C32.2981 34.7744 32.6424 34.3075 33.1023 33.9768C33.5622 33.6461 34.1145 33.4684 34.6809 33.4687H37.1477C37.2462 33.4688 37.3438 33.4494 37.4348 33.4118C37.5258 33.3741 37.6085 33.3189 37.6782 33.2492C37.7478 33.1795 37.8031 33.0968 37.8407 33.0058C37.8784 32.9148 37.8978 32.8173 37.8977 32.7187V29.5269L40.6897 25.9871C40.8129 25.8309 40.8689 25.6322 40.8456 25.4347C40.8222 25.2371 40.7214 25.057 40.5652 24.9338C40.409 24.8107 40.2103 24.7546 40.0128 24.778C39.8153 24.8013 39.6351 24.9022 39.512 25.0583L36.7837 28.5168H29.0793V27.5889C29.0797 27.2399 29.2185 26.9053 29.4652 26.6586C29.712 26.4118 30.0465 26.2731 30.3955 26.2727H33.6321C34.0199 26.2728 34.4032 26.1904 34.7567 26.0309C35.1102 25.8714 35.4256 25.6385 35.6821 25.3477L39.4585 21.0652C39.7688 20.7135 40.1788 20.4646 40.634 20.3517C41.0892 20.2387 41.568 20.267 42.0067 20.4328C42.4454 20.5985 42.8233 20.894 43.0901 21.2797C43.3568 21.6655 43.4998 22.1233 43.5 22.5923V33.1538C43.4988 34.1188 43.1149 35.044 42.4325 35.7264C41.7501 36.4088 40.8249 36.7927 39.8599 36.7939H35.283C35.0027 36.7942 34.7282 36.8745 34.492 37.0256C34.2559 37.1766 34.0678 37.3921 33.95 37.6465L31.3931 43.177C31.3517 43.2663 31.3282 43.3629 31.3242 43.4613C31.3201 43.5597 31.3355 43.658 31.3695 43.7504C31.4034 43.8429 31.4553 43.9277 31.522 44.0001C31.5888 44.0725 31.6692 44.131 31.7586 44.1723C31.857 44.2182 31.9642 44.242 32.0728 44.2419C32.216 44.242 32.3563 44.2011 32.477 44.124C32.5977 44.0469 32.6938 43.9368 32.7539 43.8068L35.283 38.2939H39.8599C41.2227 38.2925 42.5292 37.7504 43.4929 36.7868C44.4565 35.8231 44.9985 34.5166 45 33.1538V22.5923C44.9988 21.5825 44.597 20.6143 43.8829 19.9003C43.1687 19.1863 42.2005 18.7847 41.1907 18.7837Z" fill="black"/>
<path d="M24 31.6362C23.9015 31.6362 23.8039 31.6555 23.7129 31.6932C23.6219 31.7309 23.5392 31.7861 23.4695 31.8558C23.3999 31.9254 23.3446 32.0081 23.307 32.0991C23.2693 32.1902 23.2499 32.2877 23.25 32.3862V43.2839C23.25 43.4828 23.329 43.6736 23.4697 43.8143C23.6103 43.9549 23.8011 44.0339 24 44.0339C24.1989 44.0339 24.3897 43.9549 24.5303 43.8143C24.671 43.6736 24.75 43.4828 24.75 43.2839V32.3862C24.7501 32.2877 24.7307 32.1902 24.693 32.0991C24.6554 32.0081 24.6001 31.9254 24.5305 31.8558C24.4608 31.7861 24.3781 31.7309 24.2871 31.6932C24.1961 31.6555 24.0985 31.6362 24 31.6362Z" fill="black"/>
<path d="M19.6289 8.24097C19.6289 9.12765 19.8918 9.99442 20.3845 10.7317C20.8771 11.4689 21.5772 12.0435 22.3964 12.3829C23.2156 12.7222 24.117 12.811 24.9867 12.638C25.8563 12.465 26.6551 12.038 27.2821 11.411C27.9091 10.7841 28.3361 9.98523 28.5091 9.11559C28.6821 8.24594 28.5933 7.34453 28.254 6.52534C27.9146 5.70615 27.34 5.00598 26.6028 4.51336C25.8655 4.02074 24.9987 3.75781 24.1121 3.75781C22.9235 3.75919 21.784 4.23196 20.9435 5.07242C20.1031 5.91287 19.6303 7.05238 19.6289 8.24097ZM27.0952 8.24097C27.0952 8.83098 26.9203 9.40774 26.5925 9.89832C26.2647 10.3889 25.7988 10.7713 25.2537 10.997C24.7086 11.2228 24.1088 11.2819 23.5301 11.1668C22.9514 11.0517 22.4199 10.7676 22.0027 10.3504C21.5855 9.93317 21.3013 9.40163 21.1862 8.82295C21.0711 8.24428 21.1302 7.64446 21.356 7.09936C21.5818 6.55426 21.9641 6.08836 22.4547 5.76057C22.9453 5.43277 23.522 5.25781 24.1121 5.25781C24.903 5.25867 25.6613 5.57324 26.2205 6.13251C26.7798 6.69177 27.0944 7.45005 27.0952 8.24097Z" fill="black"/>
</svg>
