<?xml version="1.0" encoding="UTF-8"?>
<svg version="1.1" xmlns="http://www.w3.org/2000/svg" width="68" height="77">
<path d="M0 0 C270.6 0 541.2 0 820 0 C820 288.42 820 576.84 820 874 C549.4 874 278.8 874 0 874 C0 585.58 0 297.16 0 0 Z " fill="#F2F1F1" transform="translate(0,0)"/>
<path d="M0 0 C192.39 0 384.78 0 583 0 C583 65.34 583 130.68 583 198 C390.61 198 198.22 198 0 198 C0 132.66 0 67.32 0 0 Z " fill="#D91C01" transform="translate(15,81)"/>
<path d="M0 0 C10.5942352 8.45180174 13.16778837 20.59065308 14.79296875 33.4921875 C15.034067 38.94758344 15.03867322 44.40699242 15.04296875 49.8671875 C15.04364349 50.63495514 15.04431824 51.40272278 15.04501343 52.1937561 C15.030621 62.48461255 14.76302908 72.35290914 12.29345703 82.39208984 C11.71292377 84.82806406 11.21834836 87.27505536 10.7265625 89.73046875 C4.21411499 121.76191982 4.21411499 121.76191982 -1.31787109 135.18823242 C-2.36536708 137.90246076 -2.25189363 138.81965005 -1.20703125 141.4921875 C10.51191462 166.61656961 30.45177486 188.19114738 48.98828125 208.44140625 C50.79296875 210.4921875 50.79296875 210.4921875 52.08203125 212.76953125 C53.75946726 214.833565 53.75946726 214.833565 56.93359375 214.734375 C58.30503476 214.6321033 59.67490013 214.50753778 61.04296875 214.3671875 C62.6940098 214.24087742 64.34505152 214.11457599 65.99609375 213.98828125 C67.92840998 213.82320392 69.86069999 213.65781952 71.79296875 213.4921875 C88.56185542 212.12543638 105.25692632 211.27531461 122.08129883 211.19363403 C123.90652553 211.1844581 125.73173551 211.17049125 127.55688477 211.15133667 C141.42833727 211.02214428 154.69626801 211.55749836 167.23046875 218.2421875 C167.90440674 218.59361816 168.57834473 218.94504883 169.27270508 219.30712891 C177.83021891 223.93241771 183.86662513 229.99123928 186.79296875 239.4921875 C187.68974778 245.97378551 188.04494908 252.27854434 184.60546875 258.0546875 C183.70679761 259.23122074 182.77132486 260.38103513 181.79296875 261.4921875 C181.05046875 262.3790625 180.30796875 263.2659375 179.54296875 264.1796875 C170.02208611 272.18588426 158.99514847 274.93154681 146.79296875 275.4921875 C145.8184375 275.55664062 144.84390625 275.62109375 143.83984375 275.6875 C109.99592814 276.96302446 78.22812837 255.08419336 54.48046875 233.1015625 C53.57689189 232.2398179 52.67587727 231.37509602 51.79296875 230.4921875 C45.6826766 230.10410138 40.01521715 231.21009455 34.04296875 232.4296875 C32.96732666 232.64786133 31.89168457 232.86603516 30.78344727 233.09082031 C4.52554603 238.57991664 -21.50034636 245.85209601 -47.20703125 253.4921875 C-48.81916504 253.94718628 -48.81916504 253.94718628 -50.46386719 254.41137695 C-54.50385971 256.00313976 -55.73419371 259.06936101 -57.64453125 262.7421875 C-65.43325381 276.82191916 -74.76703161 290.02797662 -84.33984375 302.94921875 C-86.14810575 305.41193541 -87.90200441 307.90871988 -89.65258789 310.41259766 C-105.00627146 332.25847179 -123.44497824 356.73958138 -151.20703125 362.4921875 C-160.58114658 363.71250822 -171.02239968 364.22363672 -179.296875 359.04296875 C-185.39986935 354.08818602 -189.45945977 348.52445106 -190.62890625 340.65234375 C-191.46335009 327.41357135 -184.63338923 317.42718668 -176.25219727 307.90112305 C-174.91523775 306.42107297 -173.56170371 304.95604251 -172.20703125 303.4921875 C-171.31371094 302.49445313 -171.31371094 302.49445313 -170.40234375 301.4765625 C-151.37129922 281.21465439 -122.76046768 269.10100026 -97.20703125 259.4921875 C-96.12035156 259.0796875 -95.03367187 258.6671875 -93.9140625 258.2421875 C-86.53298611 255.4921875 -86.53298611 255.4921875 -84.20703125 255.4921875 C-83.97757812 254.70199219 -83.748125 253.91179687 -83.51171875 253.09765625 C-81.83016126 248.45071743 -79.59413012 244.19184817 -77.33203125 239.8046875 C-65.11854926 215.70864067 -54.32688576 190.66313474 -45.19873047 165.234375 C-43.80894102 161.39141216 -42.35617758 157.57310558 -40.90771484 153.75195312 C-39.34593687 149.62205203 -37.80383766 145.48497585 -36.26708984 141.34570312 C-35.61213101 139.5826541 -34.95421138 137.82069793 -34.29150391 136.06054688 C-33.53679948 134.04378131 -32.80502133 132.02049508 -32.08203125 129.9921875 C-31.68757812 128.909375 -31.293125 127.8265625 -30.88671875 126.7109375 C-29.45922207 119.95083827 -31.41853022 114.22521312 -33.95703125 107.9921875 C-43.16277855 84.37575562 -49.41159968 59.82450993 -49.51953125 34.3671875 C-49.52500977 33.44413818 -49.53048828 32.52108887 -49.53613281 31.57006836 C-49.41617233 20.08798844 -47.92934179 9.37840447 -39.95703125 0.6796875 C-29.2861844 -9.11870018 -11.46088192 -7.82991225 0 0 Z " fill="#D82005" transform="translate(511.20703125,344.5078125)"/>
<path d="M0 0 C59.17639463 0 59.17639463 0 76.125 15.625 C92.19242675 32.43005313 91.53290109 53.60759685 91.17286682 75.30500793 C90.77661802 92.74408158 86.72078805 111.17298407 74 124 C53.29243937 143.00450891 27.32861377 140 0 140 C0 93.8 0 47.6 0 0 Z " fill="#FCFBFB" transform="translate(269,112)"/>
<path d="M0 0 C59.40616967 0 59.40616967 0 72.76171875 11.51953125 C83.1502948 22.27445507 83.40368191 37.28260257 83.21484375 51.28515625 C82.91490922 60.61665985 80.66648445 68.5356508 75 76 C74.39671875 76.8146875 73.7934375 77.629375 73.171875 78.46875 C65.74652562 87.12275432 55.08721884 91.44246094 44 93 C39.38 93 34.76 93 30 93 C30 108.51 30 124.02 30 140 C20.1 140 10.2 140 0 140 C0 93.8 0 47.6 0 0 Z " fill="#FCF9F8" transform="translate(168,112)"/>
<path d="M0 0 C23.43 0 46.86 0 71 0 C71 8.58 71 17.16 71 26 C57.47 26 43.94 26 30 26 C30 36.56 30 47.12 30 58 C42.54 58 55.08 58 68 58 C68 66.91 68 75.82 68 85 C55.46 85 42.92 85 30 85 C30 103.15 30 121.3 30 140 C20.1 140 10.2 140 0 140 C0 93.8 0 47.6 0 0 Z " fill="#FBF9F8" transform="translate(379,112)"/>
<path d="M0 0 C55.75797962 -0.01710956 111.51595951 -0.03303131 167.27394104 -0.04234314 C168.09849945 -0.0424812 168.92305785 -0.04261925 169.77260287 -0.04276149 C187.69025615 -0.04575404 205.60790945 -0.04852428 223.52556279 -0.05106533 C232.3117196 -0.05231272 241.0978764 -0.05360927 249.8840332 -0.05493164 C251.19556153 -0.05512778 251.19556153 -0.05512778 252.53358537 -0.05532788 C280.90015518 -0.05959315 309.266723 -0.06710737 337.6332916 -0.07629722 C366.77109551 -0.08571983 395.90889833 -0.09188312 425.04670374 -0.09391499 C429.15735208 -0.09420317 433.26800042 -0.0945288 437.37864876 -0.09487724 C438.18772437 -0.09494467 438.99679997 -0.09501209 439.83039303 -0.09508156 C452.88133495 -0.09626564 465.93227349 -0.10091007 478.98321403 -0.10683203 C492.08741888 -0.11270492 505.19162036 -0.11497159 518.29582649 -0.11350138 C526.09186451 -0.11273782 533.88789022 -0.11479496 541.68392604 -0.12079754 C547.48909928 -0.12496394 553.29426388 -0.123975 559.09943808 -0.12089889 C561.46014047 -0.12047296 563.82084386 -0.12177069 566.18154424 -0.12488318 C569.36798074 -0.12884312 572.55435501 -0.12676593 575.74079037 -0.12304783 C576.67670544 -0.12567484 577.61262051 -0.12830186 578.57689664 -0.13100848 C584.8858542 -0.1141458 584.8858542 -0.1141458 586 1 C586.09777783 3.57979267 586.12994888 6.13279328 586.12025452 8.71302795 C586.12110894 9.53059285 586.12196337 10.34815775 586.12284368 11.19049734 C586.12450099 13.95132011 586.11897304 16.71208315 586.11352539 19.47290039 C586.11324355 21.44346617 586.1134012 23.41403206 586.1139679 25.38459778 C586.11425598 30.75214509 586.1083575 36.11967027 586.10139394 41.48721242 C586.0951622 47.08997947 586.09455674 52.69274698 586.09336853 58.29551697 C586.09025468 68.91319558 586.08204057 79.53086396 586.07201904 90.14853805 C586.06085957 102.23297324 586.05534787 114.31740891 586.05032361 126.40184796 C586.039858 151.26790433 586.02225753 176.13395159 586 201 C584.68 201.33 583.36 201.66 582 202 C582 202.66 582 203.32 582 204 C388.95 204 195.9 204 -3 204 C-3 138 -3 72 -3 4 C-2.34 4 -1.68 4 -1 4 C-0.67 2.68 -0.34 1.36 0 0 Z M1 2 C1 67.34 1 132.68 1 200 C193.39 200 385.78 200 584 200 C584 134.66 584 69.32 584 2 C391.61 2 199.22 2 1 2 Z " fill="#C4B0AE" transform="translate(14,79)"/>
<path d="M0 0 C0.99 0.33 1.98 0.66 3 1 C3 212.53 3 424.06 3 642 C-196.98 642 -396.96 642 -603 642 C-603 641.34 -603 640.68 -603 640 C-404.01 640 -205.02 640 0 640 C0 428.8 0 217.6 0 0 Z " fill="#AAAAAA" transform="translate(807,212)"/>
<path d="M0 0 C0.66 0 1.32 0 2 0 C3.30250493 1.91034056 4.5159105 3.88168663 5.6875 5.875 C13.97740343 19.72660322 23.85501563 32.46441536 34 45 C38.77639211 50.92308738 43.4740055 56.88306155 48 63 C42.56835881 64.24167427 37.14036836 65.35975552 31.65673828 66.34375 C21.60512669 68.1599644 11.86507443 70.54019806 2.06835938 73.41064453 C0.08928931 73.97455803 -1.89479525 74.49510183 -3.890625 74.99609375 C-12.07940379 77.06041978 -19.87633055 79.67323262 -27.734375 82.73046875 C-29.80475942 83.53534307 -31.89265976 84.29755325 -34 85 C-33.40609107 81.44873121 -32.45718783 78.53431315 -30.90234375 75.29296875 C-27.58019421 68.16794212 -24.56387532 60.92492594 -21.54370117 53.66821289 C-20.57092226 51.33272055 -19.5932421 48.99932232 -18.61523438 46.66601562 C-14.51770952 36.85573807 -10.66449349 26.97964426 -7 17 C-6.37936106 15.32405026 -5.75835394 13.64823673 -5.13671875 11.97265625 C-4.39814259 9.98062187 -3.66028148 7.98840124 -2.92773438 5.99414062 C-1.11222718 1.11222718 -1.11222718 1.11222718 0 0 Z " fill="#F1EBEB" transform="translate(502,502)"/>
<path d="M0 0 C15.04424157 0 15.04424157 0 21.6875 6.25 C28.67436825 13.70683697 31.30404065 21.91838574 31.3359375 32.1015625 C31.3425943 32.85988373 31.3492511 33.61820496 31.35610962 34.39950562 C31.36618216 35.99792072 31.37092832 37.59637741 31.37060547 39.19482422 C31.3749513 41.59806692 31.41124943 43.99942832 31.44921875 46.40234375 C31.53783127 58.56213432 30.3020106 71.38368693 22 81 C14.96848441 87.50742747 9.72293223 89 0 89 C0 59.63 0 30.26 0 0 Z " fill="#D81D02" transform="translate(299,137)"/>
<path d="M0 0 C0.85095245 -0.01194397 1.70190491 -0.02388794 2.5786438 -0.03619385 C15.55972811 -0.19353274 29.37352787 0.00301542 39.76171875 8.9453125 C43.1209745 12.31338519 44.42854209 14.97380394 44.8125 19.6875 C44.57443841 25.39145567 42.23220133 29.43126123 38.25 33.4375 C30.10383321 39.08065465 19.46335949 38.43224967 10.078125 36.9296875 C-11.94833696 31.86010498 -31.00927069 20.2758737 -47.75 5.4375 C-47.42 4.7775 -47.09 4.1175 -46.75 3.4375 C-31.99989777 -0.53524053 -15.17103376 0.10144327 0 0 Z " fill="#F1EDEC" transform="translate(626.75,566.5625)"/>
<path d="M0 0 C0.99 0 1.98 0 3 0 C3 64.35 3 128.7 3 195 C194.4 195 385.8 195 583 195 C583 195.99 583 196.98 583 198 C390.61 198 198.22 198 0 198 C0 132.66 0 67.32 0 0 Z " fill="#A56960" transform="translate(12,84)"/>
<path d="M0 0 C-6.91117809 18.72821836 -20.40796155 35.74596453 -33 51 C-33.81082031 51.99 -34.62164062 52.98 -35.45703125 54 C-42.94283618 62.70723675 -52.73088888 71.78484214 -64.5625 73.3359375 C-70.23215742 73.42679739 -73.55653633 72.88803071 -78 69 C-80.72029766 64.9195535 -80.73586394 61.79094394 -80 57 C-78.78319263 53.95207474 -77.03392918 51.56159948 -75 49 C-74.3915625 48.22914063 -73.783125 47.45828125 -73.15625 46.6640625 C-66.95693514 39.33129082 -59.70848047 33.63881166 -52 28 C-51.37174316 27.53948242 -50.74348633 27.07896484 -50.09619141 26.60449219 C-13.43344867 0 -13.43344867 0 0 0 Z " fill="#F1EBEA" transform="translate(413,619)"/>
<path d="M0 0 C4.59167786 1.87841367 6.61361593 4.7209665 9 9 C10.9357623 14.53074942 11.35108919 19.46389177 11.3125 25.25 C11.30621582 26.55565918 11.30621582 26.55565918 11.29980469 27.88769531 C10.90859092 50.95265995 3.51065767 73.0855435 -3 95 C-3.99 95 -4.98 95 -6 95 C-17.827085 71.24517396 -25.25362546 39.8373578 -17.984375 13.640625 C-14.64580659 4.68478277 -10.35146149 -1.48763518 0 0 Z " fill="#F1ECEB" transform="translate(493,350)"/>
<path d="M0 0 C193.05 0 386.1 0 585 0 C585 0.99 585 1.98 585 3 C392.28 2.67 199.56 2.34 1 2 C1 2.99 1 3.98 1 5 C-0.32 4.67 -1.64 4.34 -3 4 C-2.34 4 -1.68 4 -1 4 C-0.67 2.68 -0.34 1.36 0 0 Z " fill="#FDC2B8" transform="translate(14,79)"/>
<path d="M0 0 C0.66 0 1.32 0 2 0 C3.43685843 2.87371687 3.12267749 5.32964802 3.12025452 8.54251099 C3.12110894 9.22208953 3.12196337 9.90166807 3.12284368 10.6018399 C3.12449697 12.88969703 3.11897959 15.1774816 3.11352539 17.46533203 C3.11324346 19.1010742 3.11340137 20.7368165 3.1139679 22.37255859 C3.11425564 26.82272247 3.10836258 31.27285958 3.10139394 35.72301722 C3.09515662 40.37018353 3.0945563 45.01735041 3.09336853 49.66452026 C3.09025633 58.46886907 3.08204444 67.27320551 3.07201904 76.07754886 C3.05876819 87.97184386 3.05335709 99.86614222 3.04751682 111.76044273 C3.03810449 130.50697109 3.01818482 149.25347335 3 168 C55.8 168 108.6 168 163 168 C163.33 168.99 163.66 169.98 164 171 C109.88 171 55.76 171 0 171 C0 114.57 0 58.14 0 0 Z " fill="#ACACAC" transform="translate(641,43)"/>
<path d="M0 0 C0.66 0 1.32 0 2 0 C2.33 64.68 2.66 129.36 3 196 C194.4 196.33 385.8 196.66 583 197 C583 197.33 583 197.66 583 198 C390.61 198 198.22 198 0 198 C0 132.66 0 67.32 0 0 Z " fill="#828182" transform="translate(12,84)"/>
<path d="M0 0 C12.8 0 12.8 0 17 3 C23.12052328 9.25962608 24.36020628 15.08237402 24.375 23.5 C24.39949219 24.23347656 24.42398438 24.96695313 24.44921875 25.72265625 C24.47714415 30.92608995 23.48193382 33.91330925 20 38 C18 39.42578125 18 39.42578125 16 40.3125 C15.34 40.61800781 14.68 40.92351562 14 41.23828125 C8.8934297 43.18316642 6.0023431 43 0 43 C0 28.81 0 14.62 0 0 Z " fill="#D81E02" transform="translate(198,136)"/>
<path d="M0 0 C0.99 0.495 0.99 0.495 2 1 C2 9.91 2 18.82 2 28 C-10.87 28 -23.74 28 -37 28 C-37 36.91 -37 45.82 -37 55 C-34.49664062 54.96519531 -31.99328125 54.93039063 -29.4140625 54.89453125 C-26.99480327 54.87114833 -24.57555654 54.85292461 -22.15625 54.83520508 C-20.4722736 54.82009997 -18.78833665 54.79961454 -17.10449219 54.77368164 C-14.68675007 54.73737279 -12.26952708 54.72029153 -9.8515625 54.70703125 C-9.0963028 54.69154739 -8.34104309 54.67606354 -7.56289673 54.66011047 C-5.43994141 54.65942383 -5.43994141 54.65942383 -2 55 C0.34963594 58.52445391 0.24591382 59.99510394 0.23046875 64.1640625 C0.22853516 65.36804688 0.22660156 66.57203125 0.22460938 67.8125 C0.21236328 69.070625 0.20011719 70.32875 0.1875 71.625 C0.1865332 73.52378906 0.1865332 73.52378906 0.18554688 75.4609375 C0.14016594 84.85983406 0.14016594 84.85983406 -1 86 C-3.73870242 86.08857875 -6.45274983 86.11530707 -9.19140625 86.09765625 C-9.91775269 86.09664917 -10.64409912 86.09564209 -11.39245605 86.09460449 C-14.11582001 86.08935716 -16.83916153 86.075396 -19.5625 86.0625 C-25.646875 86.041875 -31.73125 86.02125 -38 86 C-38 104.15 -38 122.3 -38 141 C-48.56 141 -59.12 141 -70 141 C-70.33 140.01 -70.66 139.02 -71 138 C-61.1 138 -51.2 138 -41 138 C-41 119.85 -41 101.7 -41 83 C-28.46 83 -15.92 83 -3 83 C-3 74.09 -3 65.18 -3 56 C-15.54 56 -28.08 56 -41 56 C-41 45.44 -41 34.88 -41 24 C-27.47 24 -13.94 24 0 24 C0 16.08 0 8.16 0 0 Z " fill="#8E3C30" transform="translate(450,114)"/>
<path d="M0 0 C2 1 2 1 3 2.9375 C6.2860682 13.00108385 6.37248828 22.90155183 6.37060547 33.39257812 C6.37495707 36.09830741 6.41130123 38.80237279 6.44921875 41.5078125 C6.53155064 54.13521343 6.02809368 67.05590612 -1 78 C-1.46141652 79.38168614 -1.87993136 80.77859581 -2.25 82.1875 C-4.68469451 89.83756643 -8.97095091 96.08479676 -16 100 C-16.66 100.66 -17.32 101.32 -18 102 C-19.68513482 102.75996276 -21.37398801 103.5134766 -23.0859375 104.2109375 C-24.85214778 104.93904868 -26.58466998 105.74748584 -28.3125 106.5625 C-36.12492562 109.60802185 -43.84171708 110.29438919 -52.1640625 110.1953125 C-53.08214691 110.1924826 -54.00023132 110.18965271 -54.94613647 110.18673706 C-57.83923136 110.17566399 -60.73200086 110.15058467 -63.625 110.125 C-65.60286007 110.11495352 -67.58072506 110.10583061 -69.55859375 110.09765625 C-74.37251859 110.07576705 -79.1862044 110.04132832 -84 110 C-84.33 109.34 -84.66 108.68 -85 108 C-83.44442383 107.98598145 -83.44442383 107.98598145 -81.85742188 107.97167969 C-77.92814579 107.93113972 -73.99960143 107.86522215 -70.07080078 107.79248047 C-68.38567665 107.76463511 -66.70043074 107.74324396 -65.01513672 107.72900391 C-46.34179696 107.5619794 -27.25489235 104.91663084 -13.09765625 91.453125 C0.9739747 74.99691599 3.37309144 54.18675622 3.25 33.3125 C3.25715364 31.97590777 3.2649647 30.63931889 3.2734375 29.30273438 C3.25820336 21.62092088 2.61341226 14.50083883 1 7 C0.62919346 4.67002197 0.311834 2.33875497 0 0 Z " fill="#6C5955" transform="translate(356,144)"/>
<path d="M0 0 C0.66 0 1.32 0 2 0 C8.80145006 9.63538759 9.15971041 22.5095899 9.3125 33.9375 C9.33006348 34.63464111 9.34762695 35.33178223 9.36572266 36.05004883 C9.35976837 41.02485578 8.12295878 44.54761015 6 49 C5.52054371 50.53522872 5.05866062 52.07621208 4.625 53.625 C3.2552509 57.83412483 1.39787575 60.08753507 -2 63 C-3.051875 64.175625 -3.051875 64.175625 -4.125 65.375 C-16.25711517 76.45214864 -27.91995642 77.76307357 -44 79 C-44.33 94.18 -44.66 109.36 -45 125 C-54.9 125 -64.8 125 -75 125 C-75 124.34 -75 123.68 -75 123 C-65.76 123 -56.52 123 -47 123 C-47 107.49 -47 91.98 -47 76 C-42.38 75.67 -37.76 75.34 -33 75 C-24.11060562 73.49688422 -16.93998641 71.03925215 -9.85546875 65.390625 C-8 64 -8 64 -6 64 C-5.7525 63.443125 -5.505 62.88625 -5.25 62.3125 C-4 60 -4 60 -2.125 57.9375 C6.27488172 46.3258988 6.16579076 30.57160255 4.65625 16.8828125 C4.20749106 14.54178672 3.66373383 12.28887605 3 10 C2.73574219 9.07058594 2.47148437 8.14117187 2.19921875 7.18359375 C1.49363384 4.77925465 0.76181158 2.38700962 0 0 Z " fill="#755956" transform="translate(245,129)"/>
<path d="M0 0 C0.66 0 1.32 0 2 0 C2.33 65.34 2.66 130.68 3 198 C2.01 198 1.02 198 0 198 C0 132.66 0 67.32 0 0 Z " fill="#887C7A" transform="translate(12,84)"/>
<path d="M0 0 C48 0 48 0 53 2 C53 2.33 53 2.66 53 3 C51.00045254 3.04254356 48.99958364 3.04080783 47 3 C46.505 2.505 46.505 2.505 46 2 C24.22 1.505 24.22 1.505 2 1 C2 46.54 2 92.08 2 139 C14.21 139 26.42 139 39 139 C39 139.33 39 139.66 39 140 C26.13 140 13.26 140 0 140 C0 93.8 0 47.6 0 0 Z " fill="#F8CEC6" transform="translate(269,112)"/>
<path d="M0 0 C12.375 0 12.375 0 18 3 C13.52786405 5.23606798 7.98527243 3.38348249 3 3 C3 31.38 3 59.76 3 89 C2.01 89 1.02 89 0 89 C0 59.63 0 30.26 0 0 Z " fill="#7E5851" transform="translate(299,137)"/>
<path d="M0 0 C0.99 0.495 0.99 0.495 2 1 C2.02886338 5.47915328 2.04675187 9.95828291 2.0625 14.4375 C2.07087891 15.71689453 2.07925781 16.99628906 2.08789062 18.31445312 C2.09111328 19.52939453 2.09433594 20.74433594 2.09765625 21.99609375 C2.10289307 23.12200928 2.10812988 24.2479248 2.11352539 25.40795898 C2 28 2 28 1 29 C-1.73870242 29.08857875 -4.45274983 29.11530707 -7.19140625 29.09765625 C-7.91775269 29.09664917 -8.64409912 29.09564209 -9.39245605 29.09460449 C-12.11582001 29.08935716 -14.83916153 29.075396 -17.5625 29.0625 C-23.646875 29.041875 -29.73125 29.02125 -36 29 C-36 47.15 -36 65.3 -36 84 C-46.56 84 -57.12 84 -68 84 C-68.33 83.01 -68.66 82.02 -69 81 C-58.77 81.33 -48.54 81.66 -38 82 C-38 63.85 -38 45.7 -38 27 C-25.13 27 -12.26 27 1 27 C0.67 18.09 0.34 9.18 0 0 Z " fill="#983324" transform="translate(448,171)"/>
<path d="M0 0 C-2.75927344 2.75927344 -5.21154052 2.51783243 -9 3 C-9.33 3.33 -9.66 3.66 -10 4 C-14.62 4 -19.24 4 -24 4 C-24 19.18 -24 34.36 -24 50 C-34.89 50 -45.78 50 -57 50 C-57.495 48.515 -57.495 48.515 -58 47 C-57.34 47 -56.68 47 -56 47 C-56 47.66 -56 48.32 -56 49 C-46.1 49 -36.2 49 -26 49 C-26.01160156 45.69097656 -26.02320313 42.38195312 -26.03515625 38.97265625 C-26.04294581 35.78230892 -26.04902314 32.59196263 -26.05493164 29.40161133 C-26.05997317 27.17732268 -26.06680623 24.95303737 -26.07543945 22.72875977 C-26.08751298 19.53921691 -26.09322996 16.34971771 -26.09765625 13.16015625 C-26.10281754 12.15912369 -26.10797882 11.15809113 -26.11329651 10.12672424 C-26.11340981 8.74540565 -26.11340981 8.74540565 -26.11352539 7.33618164 C-26.115746 6.52121719 -26.11796661 5.70625275 -26.12025452 4.86659241 C-26 3 -26 3 -25 2 C-22.04088924 1.62349287 -19.09254194 1.29263896 -16.125 1 C-14.48146139 0.83641295 -12.83821425 0.66986383 -11.1953125 0.5 C-10.09727295 0.39171875 -10.09727295 0.39171875 -8.97705078 0.28125 C-2.20016935 -0.68281118 -2.20016935 -0.68281118 0 0 Z " fill="#B42A15" transform="translate(226,205)"/>
<path d="M0 0 C0.66 0.33 1.32 0.66 2 1 C2 9.25 2 17.5 2 26 C-11.86 26 -25.72 26 -40 26 C-40 35.9 -40 45.8 -40 56 C-40.33 56 -40.66 56 -41 56 C-41 45.44 -41 34.88 -41 24 C-27.47 24 -13.94 24 0 24 C0 16.08 0 8.16 0 0 Z " fill="#6D534F" transform="translate(450,114)"/>
<path d="M0 0 C0 3 0 3 -1 5 C-2.65532623 6.01866229 -4.32260138 7.01810813 -6 8 C-6.66 8.66 -7.32 9.32 -8 10 C-9.68513482 10.75996276 -11.37398801 11.5134766 -13.0859375 12.2109375 C-14.85214778 12.93904868 -16.58466998 13.74748584 -18.3125 14.5625 C-26.12492562 17.60802185 -33.84171708 18.29438919 -42.1640625 18.1953125 C-43.08214691 18.1924826 -44.00023132 18.18965271 -44.94613647 18.18673706 C-47.83923136 18.17566399 -50.73200086 18.15058467 -53.625 18.125 C-55.60286007 18.11495352 -57.58072506 18.10583061 -59.55859375 18.09765625 C-64.37251859 18.07576705 -69.1862044 18.04132832 -74 18 C-74.33 17.34 -74.66 16.68 -75 16 C-73.42085815 15.96241577 -73.42085815 15.96241577 -71.80981445 15.92407227 C-67.84178903 15.82871659 -63.87388763 15.72882837 -59.90600586 15.62768555 C-58.20030654 15.58481426 -56.49457732 15.5431142 -54.78881836 15.50268555 C-34.57366962 15.38972083 -34.57366962 15.38972083 -15 11 C-15 10.34 -15 9.68 -15 9 C-13.824375 8.62875 -12.64875 8.2575 -11.4375 7.875 C-6.77817643 6.15578435 -3.5386448 3.41700389 0 0 Z " fill="#6D4E4A" transform="translate(346,236)"/>
<path d="M0 0 C1.3020488 -0.01137497 1.3020488 -0.01137497 2.63040161 -0.02297974 C20.66907072 -0.15065355 20.66907072 -0.15065355 29 3.375 C29 3.705 29 4.035 29 4.375 C28.07872314 4.21273926 27.15744629 4.05047852 26.20825195 3.88330078 C21.04104158 3.14976088 15.8773945 3.23194371 10.66796875 3.2421875 C9.59501053 3.24123077 8.52205231 3.24027405 7.4165802 3.23928833 C5.15996237 3.23861037 2.90334255 3.24043775 0.64672852 3.24462891 C-2.8182406 3.25000891 -6.28308163 3.24465743 -9.74804688 3.23828125 C-11.94270862 3.23894158 -14.13737029 3.24022182 -16.33203125 3.2421875 C-17.37156448 3.24016327 -18.41109772 3.23813904 -19.48213196 3.23605347 C-20.91953987 3.24078171 -20.91953987 3.24078171 -22.38598633 3.24560547 C-23.65337395 3.24679886 -23.65337395 3.24679886 -24.94636536 3.24801636 C-27.06524512 3.24463887 -27.06524512 3.24463887 -29 4.375 C-31.71760108 4.44681821 -34.40859388 4.46799506 -37.125 4.4375 C-37.87910156 4.43298828 -38.63320313 4.42847656 -39.41015625 4.42382812 C-41.27347127 4.41203499 -43.13674555 4.39409942 -45 4.375 C-45.33 5.365 -45.66 6.355 -46 7.375 C-46.66 6.385 -47.32 5.395 -48 4.375 C-40.43035461 -3.19464539 -10.40911585 0.03535859 0 0 Z " fill="#FBD3CB" transform="translate(627,566.625)"/>
<path d="M0 0 C0.66 0 1.32 0 2 0 C10.00468655 11.33997261 10.10166248 28.56768152 9 42 C8.12425873 45.60650099 7.12475757 48.93011616 5 52 C3.515 52.495 3.515 52.495 2 53 C2.2165625 52.20980469 2.433125 51.41960937 2.65625 50.60546875 C5.89448453 37.48762055 6.80409359 23.11835912 3 10 C2.73574219 9.07058594 2.47148437 8.14117187 2.19921875 7.18359375 C1.49363384 4.77925465 0.76181158 2.38700962 0 0 Z " fill="#804E46" transform="translate(245,129)"/>
<path d="M0 0 C1.35396881 -0.00749268 1.35396881 -0.00749268 2.73529053 -0.01513672 C12.24813298 -0.05843103 21.45458843 -0.07782982 30.75 2.25 C30.75 2.58 30.75 2.91 30.75 3.25 C28.87508307 3.27730462 27.00004775 3.29653244 25.125 3.3125 C24.08085938 3.32410156 23.03671875 3.33570313 21.9609375 3.34765625 C18.75 3.25 18.75 3.25 15.953125 2.75390625 C11.66052692 2.07860728 7.46305354 2.10525165 3.125 2.125 C1.88556641 2.11919922 1.88556641 2.11919922 0.62109375 2.11328125 C-3.88352815 2.12022212 -8.30501056 2.32022688 -12.7890625 2.75390625 C-20.85321957 3.47958968 -28.91130707 3.3576454 -37 3.3125 C-38.58333191 3.30747097 -40.16666537 3.30291057 -41.75 3.29882812 C-45.58337272 3.28794281 -49.41666854 3.27075696 -53.25 3.25 C-53.25 2.92 -53.25 2.59 -53.25 2.25 C-35.49203227 0.75392206 -17.81963027 0.0344439 0 0 Z " fill="#CB3721" transform="translate(636.25,555.75)"/>
<path d="M0 0 C1.54079297 -0.00389966 3.0815849 -0.00823688 4.62237549 -0.01298523 C7.81566906 -0.02036615 11.00885182 -0.02021119 14.20214844 -0.01489258 C18.29437574 -0.00903479 22.38615965 -0.02621769 26.47831345 -0.04923725 C29.64384608 -0.06393539 32.80926993 -0.06485295 35.97483063 -0.06172752 C37.48512925 -0.06224031 38.99543402 -0.06747004 40.50569916 -0.07753944 C42.60403664 -0.08984341 44.7014821 -0.08315564 46.79980469 -0.0715332 C48.58726105 -0.07247734 48.58726105 -0.07247734 50.41082764 -0.07344055 C53.328125 0.30078125 53.328125 0.30078125 55.23614502 1.8240509 C55.59649841 2.31137192 55.95685181 2.79869293 56.328125 3.30078125 C55.08417969 3.13964844 53.84023438 2.97851562 52.55859375 2.8125 C43.94562366 1.95890798 35.28665306 2.1063741 26.640625 2.11328125 C25.25741058 2.1121936 25.25741058 2.1121936 23.84625244 2.11108398 C7.89513394 2.11246381 -7.88432362 2.86981557 -23.78222656 4.11328125 C-27.42590205 4.34970764 -31.02230349 4.37287155 -34.671875 4.30078125 C-25.7593647 -1.64089228 -10.45186386 -0.01121074 0 0 Z " fill="#F8BFB5" transform="translate(609.671875,554.69921875)"/>
<path d="M0 0 C0.83920486 0.00141495 1.67840973 0.0028299 2.54304504 0.00428772 C5.22274341 0.0098841 7.90235815 0.0224359 10.58203125 0.03515625 C12.39908733 0.04017172 14.21614473 0.04473454 16.03320312 0.04882812 C20.48701138 0.05985234 24.94075714 0.07711447 29.39453125 0.09765625 C29.88953125 1.08765625 29.88953125 1.08765625 30.39453125 2.09765625 C29.40984863 2.11223877 28.42516602 2.12682129 27.41064453 2.1418457 C-4.45882666 0.69375337 -4.45882666 0.69375337 -34.60546875 7.09765625 C-34.27546875 6.10765625 -33.94546875 5.11765625 -33.60546875 4.09765625 C-27.27312859 2.1979542 -21.00823862 1.72500344 -14.42578125 1.34375 C-9.5105121 0.91485532 -5.03831184 -0.0318788 0 0 Z " fill="#CA3C26" transform="translate(612.60546875,564.90234375)"/>
<path d="M0 0 C2 1 2 1 3 2.9375 C5.46969059 10.50092742 6.30400633 17.91605594 6.265625 25.83984375 C6.26753845 26.7286171 6.2694519 27.61739044 6.27142334 28.53309631 C6.27277253 30.39096361 6.2691656 32.24884076 6.26074219 34.10668945 C6.24993434 36.95480185 6.26072607 39.80229634 6.2734375 42.65039062 C6.27211743 44.46354306 6.26955819 46.2766951 6.265625 48.08984375 C6.26967346 48.9398143 6.27372192 49.78978485 6.27789307 50.66551208 C6.22999578 56.65500633 6.22999578 56.65500633 4 60 C3.98018066 58.78530029 3.96036133 57.57060059 3.93994141 56.3190918 C3.86324773 51.76583877 3.77463441 47.21287909 3.68261719 42.65991211 C3.64458863 40.69805743 3.60969276 38.7361392 3.578125 36.77416992 C3.35408041 21.77951602 3.35408041 21.77951602 1 7 C0.62659061 4.6703403 0.31184706 2.33885297 0 0 Z " fill="#794740" transform="translate(356,144)"/>
<path d="M0 0 C11 0 11 0 14 2 C10.04 2 6.08 2 2 2 C2 15.2 2 28.4 2 42 C3.98 42 5.96 42 8 42 C8 42.33 8 42.66 8 43 C5.36 43 2.72 43 0 43 C0 28.81 0 14.62 0 0 Z " fill="#7F6663" transform="translate(198,136)"/>
<path d="M0 0 C0.66 0 1.32 0 2 0 C4.38181291 7.22075298 4.27149867 14.36232723 4.20581055 21.89086914 C4.18751409 24.06082917 4.1853017 26.23036128 4.18554688 28.40039062 C4.12486984 45.67060838 4.12486984 45.67060838 0.9375 49.4375 C0.298125 49.953125 -0.34125 50.46875 -1 51 C-0.67386719 49.89011719 -0.34773438 48.78023437 -0.01171875 47.63671875 C1.54923873 40.59794405 1.2611646 33.44064158 1.20581055 26.26977539 C1.18746647 23.80800066 1.18530199 21.34660188 1.18554688 18.88476562 C1.18063329 17.30468428 1.17480567 15.72460545 1.16796875 14.14453125 C1.16685593 13.4162764 1.1657431 12.68802155 1.16459656 11.93769836 C1.12695317 7.85910981 0.78651818 4.00241647 0 0 Z " fill="#FFEEE9" transform="translate(328,155)"/>
<path d="M0 0 C5.78769236 8.68153854 4.35708802 21.56183962 4.3125 31.6875 C4.31233887 32.43513611 4.31217773 33.18277222 4.31201172 33.95306396 C4.29561923 44.87309529 3.76221912 55.3786098 1 66 C0.67 66 0.34 66 0 66 C0.1416533 63.12473931 0.28818532 60.24986464 0.4375 57.375 C0.47681641 56.56675781 0.51613281 55.75851562 0.55664062 54.92578125 C0.59853516 54.13300781 0.64042969 53.34023438 0.68359375 52.5234375 C0.72025146 51.80075684 0.75690918 51.07807617 0.79467773 50.33349609 C1 48 1 48 1.5 45.109375 C2.00730164 41.95459293 2.2057884 38.91867761 2.31640625 35.7265625 C2.35830078 34.57285156 2.40019531 33.41914063 2.44335938 32.23046875 C2.50233398 30.44576172 2.50233398 30.44576172 2.5625 28.625 C2.60568359 27.41199219 2.64886719 26.19898438 2.69335938 24.94921875 C2.79905513 21.96624968 2.90115321 18.98320258 3 16 C2.34 16 1.68 16 1 16 C0.67 10.72 0.34 5.44 0 0 Z " fill="#CD422D" transform="translate(522,363)"/>
<path d="M0 0 C1.175625 0.4125 2.35125 0.825 3.5625 1.25 C22.1377168 7.44173893 38.63173036 8.50017026 58 7 C52.35052549 10.76631634 47.64556687 10.18611896 40.95336914 10.18530273 C38.96952171 10.1874651 36.98571354 10.20590394 35.00195312 10.22460938 C25.02204617 10.23979949 17.15884611 9.16311187 8 5 C5.34443657 3.9678022 2.67360816 2.98501353 0 2 C0 1.34 0 0.68 0 0 Z " fill="#FDD5CF" transform="translate(615,611)"/>
<path d="M0 0 C0.84447523 2.93557293 1.12209423 5.53445289 1.11352539 8.58496094 C1.11344986 9.48559265 1.11337433 10.38622437 1.11329651 11.31414795 C1.10813522 12.27782288 1.10297394 13.2414978 1.09765625 14.234375 C1.0962413 15.22753723 1.09482635 16.22069946 1.09336853 17.24395752 C1.08777588 20.41266912 1.0752247 23.58130979 1.0625 26.75 C1.05748405 28.89973856 1.05292131 31.04947823 1.04882812 33.19921875 C1.03780886 38.46616999 1.021078 43.73307993 1 49 C0.67 49 0.34 49 0 49 C-1.58094658 40.06482872 -2.21463832 31.32100821 -2.25 22.25 C-2.25902344 21.30503662 -2.26804687 20.36007324 -2.27734375 19.38647461 C-2.24961367 12.74107759 -1.38480125 6.49500178 0 0 Z " fill="#D0442F" transform="translate(464,357)"/>
<path d="M0 0 C0.33 0 0.66 0 1 0 C1.11044961 6.73742646 0.70132913 13.29980211 0 20 C-0.66 20 -1.32 20 -2 20 C-1.979375 21.299375 -1.95875 22.59875 -1.9375 23.9375 C-1.91600546 25.29165633 -1.92851801 26.64756083 -2 28 C-2.33 28.33 -2.66 28.66 -3 29 C-3.62302788 32.38912153 -4.19791125 35.77937982 -4.71875 39.18554688 C-5.05221283 41.14198041 -5.51913558 43.07448733 -6 45 C-6.99 45.66 -7.98 46.32 -9 47 C-8.2251778 40.35183421 -6.62028408 33.93959577 -5.0625 27.4375 C-2.91153504 18.32041407 -0.98355064 9.32677328 0 0 Z " fill="#F9CAC2" transform="translate(525,412)"/>
<path d="M0 0 C0.66 0 1.32 0 2 0 C2 0.66 2 1.32 2 2 C2.66 2 3.32 2 4 2 C7.87798336 8.59257172 10.30874935 13.12689159 10 21 C10.66 21 11.32 21 12 21 C12 34.53 12 48.06 12 62 C11.67 62 11.34 62 11 62 C10.98018066 60.93152832 10.96036133 59.86305664 10.93994141 58.76220703 C10.86321582 54.75498977 10.77460834 50.74810439 10.68261719 46.74121094 C10.6446015 45.01504116 10.60970365 43.28879953 10.578125 41.5625 C11.17159106 23.94460968 11.17159106 23.94460968 4.5625 8.5 C4.046875 8.005 3.53125 7.51 3 7 C0 2.44444444 0 2.44444444 0 0 Z " fill="#B52E19" transform="translate(351,135)"/>
<path d="M0 0 C4.62 0 9.24 0 14 0 C14.99 1.32 15.98 2.64 17 4 C15.5459375 3.5359375 15.5459375 3.5359375 14.0625 3.0625 C9.23545785 1.69540904 9.23545785 1.69540904 1 1 C1 13.54 1 26.08 1 39 C8.28373595 38.92091092 8.28373595 38.92091092 10 37 C11.66617115 36.95936168 13.33388095 36.957279 15 37 C13 39 13 39 10 40 C6.7 40 3.4 40 0 40 C0 26.8 0 13.6 0 0 Z " fill="#AA3220" transform="translate(200,138)"/>
<path d="M0 0 C0.70382812 0.03029297 1.40765625 0.06058594 2.1328125 0.09179688 C15.4273685 0.65586094 28.69190388 1.18092578 42 1 C30.27931372 7.65886565 12.24947005 4.08532379 0 1 C0 0.67 0 0.34 0 0 Z " fill="#D04530" transform="translate(631,616)"/>
<path d="M0 0 C0.66 0.33 1.32 0.66 2 1 C-10.48519362 14.6332574 -10.48519362 14.6332574 -17 21 C-17.99 20.67 -18.98 20.34 -20 20 C-13.6688763 12.89967436 -7.30341903 6.13126536 0 0 Z " fill="#D13E28" transform="translate(352,636)"/>
<path d="M0 0 C4.29270357 3.83534589 5.68631037 8.87587012 6.25195312 14.50927734 C6.32910658 17.07561896 6.31217376 19.62088947 6.25 22.1875 C6.24484375 23.05052734 6.2396875 23.91355469 6.234375 24.80273438 C6.17930431 29.30132103 5.89805512 33.57490584 5 38 C4.67 38 4.34 38 4 38 C3.98018066 37.35562988 3.96036133 36.71125977 3.93994141 36.04736328 C3.84354411 33.07289417 3.73433899 30.09902043 3.625 27.125 C3.5940625 26.11179687 3.563125 25.09859375 3.53125 24.0546875 C3.27950247 17.50925182 2.45543308 11.37980992 1 5 C0.66262317 3.33414714 0.32824231 1.66767679 0 0 Z " fill="#F8CAC2" transform="translate(498,354)"/>
<path d="M0 0 C5.78001685 -0.04983765 11.55990564 -0.08592481 17.34008789 -0.10986328 C19.30202415 -0.11985425 21.26394578 -0.13345163 23.22583008 -0.15087891 C44.14939522 -0.3319431 44.14939522 -0.3319431 53 2 C53 2.33 53 2.66 53 3 C51.12508307 3.02730462 49.25004775 3.04653244 47.375 3.0625 C46.33085938 3.07410156 45.28671875 3.08570313 44.2109375 3.09765625 C41 3 41 3 38.31445312 2.51367188 C34.45825224 1.91604027 30.65071984 1.77215746 26.7578125 1.68359375 C25.98944061 1.66281265 25.22106873 1.64203156 24.42941284 1.62062073 C21.99469233 1.55566531 19.55987153 1.49649362 17.125 1.4375 C15.4661358 1.3942633 13.80728144 1.35064743 12.1484375 1.30664062 C8.09905896 1.20003997 4.04958037 1.0986233 0 1 C0 0.67 0 0.34 0 0 Z " fill="#D04530" transform="translate(614,556)"/>
<path d="M0 0 C5.37320296 4.3284135 7.45804883 9.32980872 9 16 C9.61982057 22.20656423 9.38010703 28.46138761 9.25 34.6875 C9.22989374 36.37172343 9.2116503 38.05597017 9.1953125 39.74023438 C9.15166723 43.82740858 9.08287227 47.91344071 9 52 C8.67 52 8.34 52 8 52 C7.98541748 50.97640381 7.97083496 49.95280762 7.95581055 48.89819336 C7.89753495 45.07542189 7.82030579 41.25322155 7.73754883 37.4309082 C7.7044364 35.7812634 7.67636244 34.13150904 7.65356445 32.48168945 C7.61976467 30.10060232 7.56743996 27.72050694 7.51171875 25.33984375 C7.50532883 24.61039047 7.4989389 23.88093719 7.49235535 23.12937927 C7.34952241 18.07681412 6.22696515 14.54198223 4 10 C1.11111111 3.33333333 1.11111111 3.33333333 0 0 Z " fill="#C8321C" transform="translate(321,145)"/>
<path d="M0 0 C6.875 0.875 6.875 0.875 8 2 C9.99964982 2.08758003 12.0023611 2.10696576 14.00390625 2.09765625 C15.82631836 2.09282227 15.82631836 2.09282227 17.68554688 2.08789062 C18.96494141 2.07951172 20.24433594 2.07113281 21.5625 2.0625 C23.48739258 2.05573242 23.48739258 2.05573242 25.45117188 2.04882812 C28.63416022 2.03699545 31.81705762 2.02051068 35 2 C30.8631688 6.1368312 24.82641562 5.25190752 19.3125 5.3125 C18.45205078 5.34150391 17.59160156 5.37050781 16.70507812 5.40039062 C10.2931572 5.46320522 5.63375498 4.0305303 0 1 C0 0.67 0 0.34 0 0 Z " fill="#CB3A25" transform="translate(331,702)"/>
<path d="M0 0 C7.35060015 -0.0759439 14.70109947 -0.12855502 22.05200195 -0.16479492 C24.55366802 -0.17989944 27.05530753 -0.20038429 29.55688477 -0.22631836 C33.14866684 -0.26262775 36.74009941 -0.27970975 40.33203125 -0.29296875 C41.45398392 -0.30845261 42.57593658 -0.32393646 43.73188782 -0.33988953 C44.77274033 -0.34011612 45.81359283 -0.34034271 46.88598633 -0.34057617 C47.80309891 -0.34723801 48.72021149 -0.35389984 49.66511536 -0.36076355 C52.42027182 0.06493629 53.28887167 0.85638358 55 3 C54.1054863 2.89722496 54.1054863 2.89722496 53.19290161 2.79237366 C46.84715231 2.10501047 40.55926399 1.79790468 34.1796875 1.68359375 C33.19501495 1.66281265 32.21034241 1.64203156 31.1958313 1.62062073 C28.08894988 1.55588953 24.9819931 1.49660041 21.875 1.4375 C19.75259676 1.39424186 17.6302008 1.35062541 15.5078125 1.30664062 C10.33861641 1.200288 5.16934551 1.09881171 0 1 C0 0.67 0 0.34 0 0 Z " fill="#C73924" transform="translate(168,111)"/>
<path d="M0 0 C3.02626632 10.30316626 -2.51727887 20.29659743 -7.0703125 29.30859375 C-7.9583861 30.92429068 -8.97731104 32.46596657 -10 34 C-10.66 33.67 -11.32 33.34 -12 33 C-11.401875 32.030625 -10.80375 31.06125 -10.1875 30.0625 C-7.7995425 25.88357437 -6.41633223 21.57998737 -5 17 C-4.481551 15.4783522 -3.9607384 13.95750755 -3.4375 12.4375 C-2.06515238 8.33490289 -0.99491443 4.20925335 0 0 Z " fill="#A82E1B" transform="translate(361,201)"/>
<path d="M0 0 C0.66 0.33 1.32 0.66 2 1 C0 4 0 4 -2.1875 5.1875 C-5.55771784 7.35941816 -7.71593516 9.94510253 -10.28515625 12.9921875 C-12.40264735 15.47143676 -14.66056971 17.73146153 -17 20 C-17.99 19.67 -18.98 19.34 -20 19 C-13.88546361 11.76823967 -7.47842356 5.78704178 0 0 Z " fill="#F8CCC5" transform="translate(358,649)"/>
<path d="M0 0 C-3.30539137 2.20359425 -5.83731299 2.81711728 -9.6875 3.75 C-18.05222086 5.85565205 -25.97158387 8.87890521 -34 12 C-34.99 12.33 -35.98 12.66 -37 13 C-36.625 10.5625 -36.625 10.5625 -36 8 C-35.34 7.67 -34.68 7.34 -34 7 C-34 7.66 -34 8.32 -34 9 C-33.26362305 8.76289307 -32.52724609 8.52578613 -31.76855469 8.28149414 C-28.42946399 7.20716198 -25.0897407 6.13480972 -21.75 5.0625 C-20.59113281 4.68931641 -19.43226563 4.31613281 -18.23828125 3.93164062 C-17.12324219 3.57392578 -16.00820313 3.21621094 -14.859375 2.84765625 C-13.83295898 2.51773682 -12.80654297 2.18781738 -11.74902344 1.84790039 C-7.64365932 0.58165442 -4.31578885 -0.11988302 0 0 Z " fill="#FCCDC5" transform="translate(505,574)"/>
<path d="M0 0 C-11.27605053 5.94314192 -22.91388843 5.06798432 -34.90234375 1.65625 C-35.59457031 1.4396875 -36.28679688 1.223125 -37 1 C-33.45049966 -0.16306443 -30.44176052 0.07634951 -26.75 0.4375 C-25.67234375 0.53933594 -24.5946875 0.64117188 -23.484375 0.74609375 C-22.66453125 0.82988281 -21.8446875 0.91367187 -21 1 C-21 1.66 -21 2.32 -21 3 C-13.85381663 2.60913905 -13.85381663 2.60913905 -7.125 0.375 C-3.80406268 -1.08621242 -3.24203582 -1.05260903 0 0 Z " fill="#F5BDB4" transform="translate(665,600)"/>
<path d="M0 0 C6.60193597 -0.0507527 13.20382153 -0.08575576 19.8059082 -0.10986328 C22.05137004 -0.11991444 24.29681881 -0.13355744 26.54223633 -0.15087891 C29.77167997 -0.17516581 33.00095038 -0.18649207 36.23046875 -0.1953125 C37.23272995 -0.20563507 38.23499115 -0.21595764 39.2676239 -0.22659302 C40.20822159 -0.22674408 41.14881927 -0.22689514 42.11791992 -0.22705078 C42.94176682 -0.231492 43.76561371 -0.23593323 44.61442566 -0.24050903 C47.35553479 0.03584434 49.49718249 0.87587837 52 2 C52 2.33 52 2.66 52 3 C50.00045254 3.04254356 47.99958364 3.04080783 46 3 C45.505 2.505 45.505 2.505 45 2 C43.58882298 1.87790076 42.17179541 1.82229128 40.75561523 1.79467773 C39.85475693 1.77473251 38.95389862 1.75478729 38.02574158 1.73423767 C37.04658279 1.71752518 36.06742401 1.70081268 35.05859375 1.68359375 C34.06118668 1.66281265 33.0637796 1.64203156 32.03614807 1.62062073 C28.83667157 1.55501363 25.63711018 1.49618866 22.4375 1.4375 C20.27407961 1.39432538 18.11066794 1.35071145 15.94726562 1.30664062 C10.63160126 1.19932097 5.31585166 1.09757573 0 1 C0 0.67 0 0.34 0 0 Z " fill="#FFCFC7" transform="translate(270,112)"/>
<path d="M0 0 C0.66 0.33 1.32 0.66 2 1 C-0.25 3.5 -0.25 3.5 -3 6 C-4.32 6 -5.64 6 -7 6 C-7 6.66 -7 7.32 -7 8 C-13.62615673 11.09866202 -18.67372525 12.47266289 -26 12 C-22.70986092 10.18365203 -19.4306058 9.23557721 -15.8125 8.25 C-9.72136664 6.43503475 -5.0042317 3.87924938 0 0 Z " fill="#6F6563" transform="translate(338,239)"/>
<path d="M0 0 C0 0.33 0 0.66 0 1 C-0.825 1.04898438 -1.65 1.09796875 -2.5 1.1484375 C-10.46717369 1.66416973 -18.30634686 2.49487731 -26.2109375 3.59765625 C-30.19643303 4.02085835 -33.9966629 4.06657434 -38 4 C-28.19761455 -2.53492363 -11.294451 -0.20639606 0 0 Z " fill="#FCD9D3" transform="translate(613,555)"/>
<path d="M0 0 C-8.15874469 7.64882315 -18.59971486 6.22719069 -29 6 C-29 5.67 -29 5.34 -29 5 C-28.10539063 4.89042969 -27.21078125 4.78085938 -26.2890625 4.66796875 C-19.69340485 3.80307974 -13.47142993 2.78722504 -7.18359375 0.5859375 C-4.71496734 -0.07648461 -2.54471835 -0.09838981 0 0 Z " fill="#6B5350" transform="translate(232,200)"/>
<path d="M0 0 C0.33 0 0.66 0 1 0 C0.86177801 3.14621682 0.71314916 6.29185566 0.5625 9.4375 C0.50352539 10.78424805 0.50352539 10.78424805 0.44335938 12.15820312 C0.40146484 13.01220703 0.35957031 13.86621094 0.31640625 14.74609375 C0.27974854 15.53685303 0.24309082 16.3276123 0.20532227 17.14233398 C0 19 0 19 -1 20 C-1.12375 21.216875 -1.2475 22.43375 -1.375 23.6875 C-1.8070901 27.61881158 -3.01613641 30.54980245 -5 34 C-6.12984078 30.64864797 -5.84032305 28.76726109 -4.75 25.4375 C-2.29418751 17.13074255 -1.24974299 8.55320555 0 0 Z " fill="#CD4C39" transform="translate(503,386)"/>
<path d="M0 0 C0.66 0 1.32 0 2 0 C1.18238725 5.39150438 -2.87380962 7.85803852 -7 11 C-12.15243902 14.17073171 -12.15243902 14.17073171 -15.171875 13.5625 C-15.77515625 13.376875 -16.3784375 13.19125 -17 13 C-15.21190303 11.82786955 -13.41940875 10.66244474 -11.625 9.5 C-10.62726563 8.8503125 -9.62953125 8.200625 -8.6015625 7.53125 C-6 6 -6 6 -4 6 C-3.566875 5.071875 -3.566875 5.071875 -3.125 4.125 C-2 2 -2 2 0 0 Z " fill="#AE2C18" transform="translate(244,190)"/>
<path d="M0 0 C0 3 0 3 -1 5 C-2.65532623 6.01866229 -4.32260138 7.01810813 -6 8 C-6.66 8.66 -7.32 9.32 -8 10 C-13.19432844 12.43815417 -18.53916654 14.25401923 -24 16 C-21.28922757 13.02873292 -18.86848614 12.11756266 -15 11 C-15 10.34 -15 9.68 -15 9 C-13.824375 8.62875 -12.64875 8.2575 -11.4375 7.875 C-6.77817643 6.15578435 -3.5386448 3.41700389 0 0 Z " fill="#963324" transform="translate(346,236)"/>
<path d="M0 0 C2.2420555 3.36308324 2.15048227 4.69045428 1.54736328 8.5703125 C0.43349719 13.51464585 -1.33841841 18.24165393 -3.0625 23 C-3.43955078 24.06089844 -3.81660156 25.12179687 -4.20507812 26.21484375 C-5.12949664 28.8125768 -6.06127112 31.40741137 -7 34 C-8.19062687 30.55529774 -7.80339726 28.59373217 -6.6015625 25.19140625 C-6.28703125 24.27939453 -5.9725 23.36738281 -5.6484375 22.42773438 C-5.31070312 21.48220703 -4.97296875 20.53667969 -4.625 19.5625 C-3.96869763 17.68973094 -3.31496518 15.81605888 -2.6640625 13.94140625 C-2.36967285 13.11326416 -2.0752832 12.28512207 -1.77197266 11.43188477 C-0.52074136 7.49022918 0 4.15309592 0 0 Z " fill="#FCCFC7" transform="translate(480,460)"/>
<path d="M0 0 C0.33 0 0.66 0 1 0 C1.09897181 5.05365292 1.17151603 10.10674024 1.21972656 15.16113281 C1.23982628 16.87998279 1.26711089 18.59876452 1.30175781 20.31738281 C1.35035034 22.78988489 1.37298435 25.2614821 1.390625 27.734375 C1.41127014 28.50118591 1.43191528 29.26799683 1.45318604 30.05804443 C1.45472777 33.7344604 1.31786956 35.60484811 -1.02441406 38.51660156 C-1.67635742 39.00612305 -2.32830078 39.49564453 -3 40 C-2.68289063 38.84628906 -2.36578125 37.69257813 -2.0390625 36.50390625 C-0.46270187 29.41028341 -0.53350841 22.17027191 -0.375 14.9375 C-0.33673804 13.48500473 -0.29768181 12.03253016 -0.2578125 10.58007812 C-0.16271895 7.05357688 -0.07836886 3.52691721 0 0 Z " fill="#E9978B" transform="translate(330,166)"/>
<path d="M0 0 C-1 1 -1 1 -4.0625 1.0625 C-5.031875 1.041875 -6.00125 1.02125 -7 1 C-7 1.66 -7 2.32 -7 3 C-9.58157368 3.53132389 -12.16461756 4.05034379 -14.75 4.5625 C-15.47960937 4.71396484 -16.20921875 4.86542969 -16.9609375 5.02148438 C-20.66557073 5.74557178 -23.39322322 6.09817231 -27 5 C-24.1047827 4.18525038 -21.20887172 3.37312678 -18.3125 2.5625 C-17.49587891 2.33240234 -16.67925781 2.10230469 -15.83789062 1.86523438 C-4.17688257 -1.39229419 -4.17688257 -1.39229419 0 0 Z " fill="#CC412D" transform="translate(529,570)"/>
<path d="M0 0 C-1.98 0.33 -3.96 0.66 -6 1 C-6 1.66 -6 2.32 -6 3 C-8.91440599 3.6986179 -11.83086087 4.3842031 -14.75 5.0625 C-15.575 5.26166016 -16.4 5.46082031 -17.25 5.66601562 C-18.04921875 5.84970703 -18.8484375 6.03339844 -19.671875 6.22265625 C-20.77160645 6.48187866 -20.77160645 6.48187866 -21.89355469 6.74633789 C-24.20132783 7.02424428 -25.79916037 6.69809241 -28 6 C-24.08815891 4.79618491 -20.16989104 3.61481281 -16.25 2.4375 C-15.13882812 2.09525391 -14.02765625 1.75300781 -12.8828125 1.40039062 C-11.81289063 1.08134766 -10.74296875 0.76230469 -9.640625 0.43359375 C-8.16384277 -0.01415405 -8.16384277 -0.01415405 -6.65722656 -0.47094727 C-3.97924585 -1.00413214 -2.5392801 -0.90876725 0 0 Z " fill="#FAC8BF" transform="translate(503,588)"/>
<path d="M0 0 C-4.60368766 3.0691251 -7.71199708 3.12326774 -13.125 3.0625 C-13.87910156 3.05798828 -14.63320313 3.05347656 -15.41015625 3.04882812 C-17.27347127 3.03703499 -19.13674555 3.01909942 -21 3 C-21.33 3.99 -21.66 4.98 -22 6 C-22.66 5.01 -23.32 4.02 -24 3 C-19.8658969 -1.1341031 -5.64513687 -0.23041375 0 0 Z " fill="#F8C5BC" transform="translate(603,568)"/>
<path d="M0 0 C0.66 0 1.32 0 2 0 C6.34068235 6.1493 7.25252738 11.67670604 7 19 C4.85357551 15.78036326 3.64118646 12.55570141 2.375 8.9375 C2.14554688 8.30005859 1.91609375 7.66261719 1.6796875 7.00585938 C0 2.261742 0 2.261742 0 0 Z " fill="#864035" transform="translate(245,129)"/>
<path d="M0 0 C1.65 1.65 3.3 3.3 5 5 C2.14206684 7.85793316 -0.14665584 7.40799941 -4.125 7.625 C-5.40632812 7.69976563 -6.68765625 7.77453125 -8.0078125 7.8515625 C-8.99523437 7.90054688 -9.98265625 7.94953125 -11 8 C-10.67 7.34 -10.34 6.68 -10 6 C-7.93359375 5.5859375 -7.93359375 5.5859375 -5.4375 5.375 C-4.61121094 5.30023437 -3.78492188 5.22546875 -2.93359375 5.1484375 C-1.97646484 5.07496094 -1.97646484 5.07496094 -1 5 C-0.67 3.35 -0.34 1.7 0 0 Z " fill="#F9C7BF" transform="translate(545,559)"/>
<path d="M0 0 C0.33 0.66 0.66 1.32 1 2 C0.69320313 2.73605469 0.38640625 3.47210937 0.0703125 4.23046875 C-1.17289451 7.44738033 -1.20048541 9.87791399 -1.125 13.3125 C-1.09792969 14.91544922 -1.09792969 14.91544922 -1.0703125 16.55078125 C-1.04710937 17.35902344 -1.02390625 18.16726563 -1 19 C-2.91694691 17.39322222 -3.89960402 16.46670562 -4.43359375 13.984375 C-4.44380519 8.14343145 -3.2903102 4.8326431 0 0 Z " fill="#F9C7BF" transform="translate(337,669)"/>
<path d="M0 0 C3 1 3 1 4.75 3.875 C6 7 6 7 5 10 C2 5.25 2 5.25 2 3 C-1.0916909 5.52956528 -1.90931332 8.22454612 -3 12 C-4.46726798 8.18510326 -3.43336419 5.70988378 -2 2 C-1.34 2 -0.68 2 0 2 C0 1.34 0 0.68 0 0 Z " fill="#D14630" transform="translate(502,499)"/>
<path d="M0 0 C2.27024968 -0.08097324 4.54132075 -0.13917704 6.8125 -0.1875 C8.07707031 -0.22230469 9.34164063 -0.25710937 10.64453125 -0.29296875 C14 0 14 0 15.94921875 1.51171875 C16.29597656 2.00285156 16.64273437 2.49398437 17 3 C15.41058594 2.98259766 15.41058594 2.98259766 13.7890625 2.96484375 C12.40104342 2.95546524 11.01302245 2.94636511 9.625 2.9375 C8.57699219 2.92493164 8.57699219 2.92493164 7.5078125 2.91210938 C3.62704624 2.8164558 3.62704624 2.8164558 0 4 C0 2.68 0 1.36 0 0 Z " fill="#7C473F" transform="translate(300,138)"/>
<path d="M0 0 C-3.19373157 3.19373157 -7.06829832 3.90188182 -11.4609375 4.125 C-13.64439214 4.125 -15.81849415 4.08904106 -18 4 C-15.07089056 2.04726038 -12.91867709 1.24603637 -9.5625 0.3125 C-8.61503906 0.04050781 -7.66757812 -0.23148438 -6.69140625 -0.51171875 C-4.01081763 -0.99803744 -2.53712417 -0.89369149 0 0 Z " fill="#F9CBC4" transform="translate(522,583)"/>
<path d="M0 0 C-4.29072737 4.29072737 -12.82958671 3.05669158 -18.5625 3.0625 C-20.70837559 3.04660463 -22.85424137 3.02747059 -25 3 C-25 2.67 -25 2.34 -25 2 C-23.73542969 1.86722656 -22.47085938 1.73445312 -21.16796875 1.59765625 C-19.50779375 1.41944537 -17.84763852 1.24105037 -16.1875 1.0625 C-15.35412109 0.97548828 -14.52074219 0.88847656 -13.66210938 0.79882812 C-12.45844727 0.66831055 -12.45844727 0.66831055 -11.23046875 0.53515625 C-10.49207764 0.456604 -9.75368652 0.37805176 -8.99291992 0.29711914 C-2.27152446 -0.70495587 -2.27152446 -0.70495587 0 0 Z " fill="#AB2D1A" transform="translate(226,205)"/>
<path d="M0 0 C0.84462282 2.90998955 1.08383134 5.41433233 1 8.4375 C0.95600311 11.77026465 1.16173781 14.75173403 2 18 C-3.03191489 11.36702128 -3.03191489 11.36702128 -2.75 8.125 C-2.06189923 5.25791346 -1.1882053 2.69326534 0 0 Z " fill="#F8C2B9" transform="translate(511,474)"/>
<path d="M0 0 C4.19215028 4.19215028 6.8699809 12.0095607 7.125 17.875 C7.08375 18.57625 7.0425 19.2775 7 20 C4.28390082 17.28390082 3.53079778 14.13404955 2.375 10.5625 C2.14554687 9.88123047 1.91609375 9.19996094 1.6796875 8.49804688 C0.70957387 5.55017182 0 3.12333158 0 0 Z " fill="#FBD0C8" transform="translate(478,419)"/>
<path d="M0 0 C-6.78743178 2.81552726 -12.68889006 3.3689719 -20 3 C-20 2.67 -20 2.34 -20 2 C-3.86009539 -1.93004769 -3.86009539 -1.93004769 0 0 Z " fill="#803B30" transform="translate(323,251)"/>
<path d="M0 0 C0.33 0 0.66 0 1 0 C0.88512252 1.58409994 0.75765492 3.16728963 0.625 4.75 C0.55539062 5.63171875 0.48578125 6.5134375 0.4140625 7.421875 C0.00149945 9.99066382 -0.71160957 11.75841015 -2 14 C-2.99 14 -3.98 14 -5 14 C-3.45730076 9.27934033 -1.92205381 4.58335908 0 0 Z " fill="#726968" transform="translate(356,211)"/>
<path d="M0 0 C0.6484375 1.80859375 0.6484375 1.80859375 1 4 C-0.5954349 6.05727132 -2.26526288 8.05874656 -4 10 C-4.33 10.99 -4.66 11.98 -5 13 C-5.99 13.33 -6.98 13.66 -8 14 C-6.6744419 10.37723685 -5.05653045 7.36494652 -2.875 4.1875 C-2.33617187 3.39730469 -1.79734375 2.60710938 -1.2421875 1.79296875 C-0.83226562 1.20128906 -0.42234375 0.60960937 0 0 Z " fill="#FACDC6" transform="translate(452,609)"/>
<path d="M0 0 C2.89608593 -0.05413245 5.79115195 -0.09373641 8.6875 -0.125 C9.91243164 -0.15013672 9.91243164 -0.15013672 11.16210938 -0.17578125 C15.57092929 -0.2114802 18.98731576 -0.07580814 23 2 C23 2.33 23 2.66 23 3 C21.00045254 3.04254356 18.99958364 3.04080783 17 3 C16.67 2.67 16.34 2.34 16 2 C13.30764224 1.76321284 10.63501844 1.57801975 7.9375 1.4375 C7.17888672 1.39431641 6.42027344 1.35113281 5.63867188 1.30664062 C3.75934562 1.20026367 1.87969756 1.09960066 0 1 C0 0.67 0 0.34 0 0 Z " fill="#FDDDD6" transform="translate(299,112)"/>
<path d="M0 0 C0.33 0 0.66 0 1 0 C1.08107646 2.75059381 1.14052813 5.49879021 1.1875 8.25 C1.21263672 9.02730469 1.23777344 9.80460938 1.26367188 10.60546875 C1.33834499 16.42997175 1.33834499 16.42997175 -0.51171875 19.546875 C-1.00285156 20.02640625 -1.49398437 20.5059375 -2 21 C-1.855625 20.13375 -1.71125 19.2675 -1.5625 18.375 C-0.68046473 12.28895665 -0.39975269 6.13237637 0 0 Z " fill="#CD412C" transform="translate(221,151)"/>
<path d="M0 0 C-2.38125464 2.38125464 -4.33857567 3.00186241 -7.5 4.125 C-8.4796875 4.47820313 -9.459375 4.83140625 -10.46875 5.1953125 C-13 6 -13 6 -15 6 C-15 5.34 -15 4.68 -15 4 C-13.44219668 3.32243118 -11.87849904 2.65840543 -10.3125 2 C-9.44238281 1.62875 -8.57226562 1.2575 -7.67578125 0.875 C-4.9427998 -0.01870488 -2.85299066 -0.16449676 0 0 Z " fill="#FBD2CB" transform="translate(427,599)"/>
<path d="M0 0 C0.66 0 1.32 0 2 0 C0.36041242 5.23272633 -1.38952035 10.15196636 -4 15 C-5.1135821 11.65925369 -4.94368586 11.16426699 -3.6875 8.0625 C-3.40648437 7.36253906 -3.12546875 6.66257812 -2.8359375 5.94140625 C-1.9646663 3.91793995 -1.0495806 1.93768726 0 0 Z " fill="#FCD4CE" transform="translate(447,552)"/>
<path d="M0 0 C2.10353495 -0.0810206 4.20795952 -0.13919907 6.3125 -0.1875 C7.48425781 -0.22230469 8.65601563 -0.25710938 9.86328125 -0.29296875 C13 0 13 0 16 3 C10.72 2.34 5.44 1.68 0 1 C0 0.67 0 0.34 0 0 Z " fill="#FBD3CC" transform="translate(650,555)"/>
<path d="M0 0 C0.66 0.33 1.32 0.66 2 1 C0.63016497 4.16115776 0.0109362 4.9927092 -3 7 C-6.1875 7.125 -6.1875 7.125 -9 7 C-6.03716687 4.61327331 -3.05729491 2.2646629 0 0 Z " fill="#716563" transform="translate(237,193)"/>
<path d="M0 0 C2.81082672 0.42654569 4.75648237 1.61618991 7.0078125 3.3046875 C6.0178125 3.7996875 6.0178125 3.7996875 5.0078125 4.3046875 C4.4096875 3.9953125 3.8115625 3.6859375 3.1953125 3.3671875 C-0.86590372 1.39459677 -4.72542159 2.32942672 -8.9921875 3.3046875 C-6.67002372 -0.17855817 -3.98953086 -0.13249364 0 0 Z " fill="#FCD1CA" transform="translate(490.9921875,349.6953125)"/>
<path d="M0 0 C0.93045933 2.55144824 1.08564091 3.74006478 0.22265625 6.359375 C-0.16019531 7.14828125 -0.54304688 7.9371875 -0.9375 8.75 C-1.50791016 9.94882812 -1.50791016 9.94882812 -2.08984375 11.171875 C-2.39019531 11.77515625 -2.69054687 12.3784375 -3 13 C-3.66 13 -4.32 13 -5 13 C-4.54554036 11.58208592 -4.08625056 10.16571954 -3.625 8.75 C-3.24214844 7.56664062 -3.24214844 7.56664062 -2.8515625 6.359375 C-2.04826333 4.13372042 -1.10288338 2.09068328 0 0 Z " fill="#CD432F" transform="translate(448,554)"/>
<path d="M0 0 C0.66 0.33 1.32 0.66 2 1 C-1.06093224 4.93548431 -3.49115974 7.68116787 -8 10 C-6.34908222 5.70761377 -3.26245434 3.1206085 0 0 Z " fill="#CD3D28" transform="translate(475,342)"/>
<path d="M0 0 C0.99 0 1.98 0 3 0 C1.72278474 4.99275057 -0.17330957 7.57611908 -4 11 C-3.34 8.69 -2.68 6.38 -2 4 C-1.34 4 -0.68 4 0 4 C0 2.68 0 1.36 0 0 Z " fill="#7B3C33" transform="translate(351,225)"/>
<path d="M0 0 C0.33 0 0.66 0 1 0 C1.3227506 4.62609198 0.84450614 7.28026121 -2 11 C-2.66 11 -3.32 11 -4 11 C-3.52269162 9.5410574 -3.04308958 8.08286504 -2.5625 6.625 C-2.29566406 5.81289063 -2.02882813 5.00078125 -1.75390625 4.1640625 C-1 2 -1 2 0 0 Z " fill="#F8C5BD" transform="translate(488,538)"/>
<path d="M0 0 C0 4.95110601 -2.2946129 8.94191935 -5 13 C-5.66 12.67 -6.32 12.34 -7 12 C-6.02296079 10.1863523 -5.04330895 8.37411183 -4.0625 6.5625 C-3.51722656 5.55316406 -2.97195313 4.54382813 -2.41015625 3.50390625 C-1 1 -1 1 0 0 Z " fill="#BE2710" transform="translate(356,222)"/>
<path d="M0 0 C-1.09068668 3.77545388 -1.9083091 6.47043472 -5 9 C-5.36666667 3.5 -5.36666667 3.5 -3.625 1.125 C-2 0 -2 0 0 0 Z " fill="#6D4F4A" transform="translate(250,181)"/>
<path d="M0 0 C0.33 0.66 0.66 1.32 1 2 C-0.2739589 4.03833424 -1.61061923 6.03852126 -3 8 C-3.66 8 -4.32 8 -5 8 C-5 8.66 -5 9.32 -5 10 C-5.66 9.67 -6.32 9.34 -7 9 C-4.69 6.03 -2.38 3.06 0 0 Z " fill="#CF4632" transform="translate(388,659)"/>
<path d="M0 0 C-4.55426184 2.66590937 -7.73946963 3.31563182 -13 3 C-8.8341563 0.22277086 -4.9360889 -1.89849573 0 0 Z " fill="#D14F3C" transform="translate(497,578)"/>
<path d="M0 0 C3.33773709 3.64116773 3.97864902 7.28607242 5 12 C1.61053312 9.74035542 1.14663284 8.79270862 0 5 C-0.125 2.1875 -0.125 2.1875 0 0 Z " fill="#F9C6BD" transform="translate(475,448)"/>
<path d="M0 0 C1.39864092 3.17872935 0.89282517 4.30111022 -0.3125 7.6875 C-2 11 -2 11 -4 12 C-3.52309796 10.37433394 -3.04340334 8.74948689 -2.5625 7.125 C-2.29566406 6.22007812 -2.02882813 5.31515625 -1.75390625 4.3828125 C-1 2 -1 2 0 0 Z " fill="#CD4834" transform="translate(459,528)"/>
<path d="M0 0 C0.33 1.32 0.66 2.64 1 4 C-1.31 5.98 -3.62 7.96 -6 10 C-6.66 9.67 -7.32 9.34 -8 9 C-6.8553125 8.1646875 -6.8553125 8.1646875 -5.6875 7.3125 C-3.03859112 5.03320631 -1.61711178 3.06400128 0 0 Z " fill="#F9C9C1" transform="translate(324,212)"/>
<path d="M0 0 C3.82669043 3.42388092 5.72278474 6.00724943 7 11 C6.01 10.67 5.02 10.34 4 10 C2.41927041 6.71694623 1.15154357 3.45463072 0 0 Z " fill="#CF432E" transform="translate(321,145)"/>
<path d="M0 0 C0.66 0 1.32 0 2 0 C4.04169485 2.90548882 5 4.40142046 5 8 C4.34 8.66 3.68 9.32 3 10 C2.01 6.7 1.02 3.4 0 0 Z " fill="#B1594B" transform="translate(245,129)"/>
<path d="M0 0 C0.33 0 0.66 0 1 0 C1.25 3.25 1.25 3.25 1 7 C-0.32 8.32 -1.64 9.64 -3 11 C-2.01 7.37 -1.02 3.74 0 0 Z " fill="#F7C3B8" transform="translate(330,195)"/>
<path d="M0 0 C-3.1254959 2.64465038 -6.08788267 3.84414715 -10 5 C-9 2 -9 2 -7.25 0.8125 C-4.70039426 -0.10819096 -2.69076919 -0.14948718 0 0 Z " fill="#FCD4CD" transform="translate(411,605)"/>
<path d="M0 0 C5.859375 -0.390625 5.859375 -0.390625 8 0 C9.32 1.32 10.64 2.64 12 4 C6.06 2.515 6.06 2.515 0 1 C0 0.67 0 0.34 0 0 Z " fill="#CE4631" transform="translate(646,567)"/>
<path d="M0 0 C1 3 1 3 0.0625 5.1875 C-0.4634375 6.0846875 -0.4634375 6.0846875 -1 7 C-4 5 -4 5 -4.6875 2.875 C-4.790625 2.25625 -4.89375 1.6375 -5 1 C-4.34 1 -3.68 1 -3 1 C-3 1.99 -3 2.98 -3 4 C-2.34 4 -1.68 4 -1 4 C-0.67 2.68 -0.34 1.36 0 0 Z " fill="#FDD0C7" transform="translate(490,439)"/>
<path d="M0 0 C0.66 0 1.32 0 2 0 C3.20272819 2.40545638 3.10071472 3.94996953 3.0625 6.625 C3.05347656 7.44226563 3.04445313 8.25953125 3.03515625 9.1015625 C3.02355469 9.72804687 3.01195312 10.35453125 3 11 C2.67 11 2.34 11 2 11 C1.34 7.37 0.68 3.74 0 0 Z " fill="#FACEC6" transform="translate(328,155)"/>
<path d="M0 0 C6.52307692 -0.36923077 6.52307692 -0.36923077 8.9375 1.5 C9.288125 1.995 9.63875 2.49 10 3 C3.375 2.25 3.375 2.25 0 0 Z " fill="#D14733" transform="translate(621,613)"/>
<path d="M0 0 C0.33 0 0.66 0 1 0 C1.39253254 4.44870215 0.15305957 7.14243493 -2 11 C-2.95465783 8.83032311 -3.14401212 7.43671207 -2.3984375 5.17578125 C-1.64129615 3.4315257 -0.82390802 1.71372869 0 0 Z " fill="#CE432E" transform="translate(500,409)"/>
</svg>
