<svg width="52" height="20" viewBox="0 0 52 20" fill="none" xmlns="http://www.w3.org/2000/svg">
<path fill-rule="evenodd" clip-rule="evenodd" d="M18.4492 4.08056C20.2567 9.62118 20.9434 19.4948 26.2394 19.4948C26.6552 19.4948 27.0529 19.4403 27.4685 19.3683C22.6425 18.2485 22.0822 8.48389 19.154 3.43018L18.4492 4.08056Z" fill="white"/>
<path fill-rule="evenodd" clip-rule="evenodd" d="M19.1406 3.43009C22.0869 8.4838 22.6472 18.2485 27.455 19.3682C27.8527 19.2961 28.2323 19.1871 28.6119 19.0606C24.2739 16.9494 23.0809 7.47305 19.7553 2.90625L19.1406 3.43009Z" fill="white"/>
<path fill-rule="evenodd" clip-rule="evenodd" d="M23.3457 0.416245C21.7494 0.518198 20.2059 1.02796 18.8633 1.89632C19.1704 2.20393 19.4596 2.52912 19.7307 2.90705C20.8515 1.98772 21.954 1.28284 23.0565 0.885578C23.4723 0.723859 23.8879 0.614872 24.3037 0.525223C23.9903 0.449637 23.6684 0.412729 23.3457 0.416245ZM31.9494 17.112C32.4012 16.7516 32.853 16.3913 33.2869 15.9571C31.4432 10.4516 30.7925 0.435584 25.4425 0.435584C25.081 0.435584 24.6833 0.470721 24.3037 0.542792C29.1658 1.75217 29.7804 12.3114 31.9494 17.112Z" fill="white"/>
<path fill-rule="evenodd" clip-rule="evenodd" d="M24.3214 0.542562C24.0087 0.459945 23.6867 0.417773 23.3634 0.416016H25.4783C25.0806 0.416016 24.701 0.470492 24.3214 0.542562ZM31.8767 18.2859C31.6659 18.0803 31.4667 17.8623 31.2802 17.6355C30.3765 18.2666 29.4727 18.7553 28.6052 19.0787C29.1792 19.3582 29.8104 19.5006 30.4488 19.4953C31.4428 19.4953 32.2382 19.3688 32.9069 19.0436C32.5455 18.8625 32.184 18.5918 31.8767 18.2859ZM23.0742 0.885349C27.4122 3.15996 27.8099 13.4484 31.2802 17.6355L31.9671 17.1117C29.7981 12.3111 29.1835 1.75194 24.3214 0.542562C23.9056 0.614633 23.49 0.72363 23.0742 0.885349Z" fill="white"/>
<path fill-rule="evenodd" clip-rule="evenodd" d="M19.7349 2.88867C23.0605 7.47305 24.2536 16.9494 28.5915 19.0605C29.4771 18.7547 30.3628 18.266 31.2665 17.635C27.7961 13.4478 27.4166 3.15938 23.0605 0.884766C21.958 1.30137 20.8555 1.96757 19.7349 2.90624M16.3006 3.95391C15.7584 5.12637 15.2341 6.67852 14.6016 8.71934C15.8669 6.91407 17.1682 5.34433 18.4334 4.08046C18.2526 3.53905 18.0719 3.05215 17.873 2.60039C17.3308 2.99765 16.8247 3.44766 16.3006 3.95391Z" fill="white"/>
<path fill-rule="evenodd" clip-rule="evenodd" d="M18.3151 2.27441L17.8633 2.59966C18.044 3.05149 18.2429 3.53848 18.4055 4.07997L19.1286 3.42948C18.8876 3.02512 18.6156 2.63834 18.3151 2.27441Z" fill="white"/>
<path fill-rule="evenodd" clip-rule="evenodd" d="M18.9004 1.89493L18.3582 2.25703C18.6293 2.61738 18.9004 3.01466 19.1353 3.4295L19.7499 2.8881C19.4788 2.52775 19.2077 2.20255 18.9004 1.89493ZM48.5791 0C46.1209 9.47637 40.9878 17.093 36.668 19.0248L36.4329 19.1145H36.3969L36.3244 19.1514H36.3065L36.198 19.2041H36.1437L36.0895 19.241H36.0533L35.9992 19.2762L35.9088 19.2955H35.8726L35.8003 19.3307H35.7641L35.6919 19.35L35.6196 19.3676C35.8003 19.4397 36.0173 19.4748 36.2341 19.4748C40.319 19.4748 44.44 12.1658 51.2542 0H48.5791ZM13.7129 0.81212H13.731L13.8033 0.776956H13.8214L13.8395 0.757617L13.9118 0.740049L14.0744 0.667978H14.0925L14.1647 0.650409H14.201L14.2551 0.613475H14.2913L14.5083 0.560743H14.5443L14.6166 0.541404H14.6347L14.7069 0.506267L14.8516 0.486928H14.9782L15.0505 0.469333H15.0865L15.2312 0.434196H14.7973C10.1883 0.434196 3.84415 8.95254 0.988281 19.9986H1.53049C2.45226 18.3744 3.26574 16.8223 4.02488 15.3791C6.01313 7.56389 10.0979 2.22013 13.7129 0.81212ZM16.3156 3.95334C16.8399 3.44709 17.364 2.99708 17.8882 2.59981C17.775 2.35196 17.6483 2.11115 17.5087 1.87736C17.0187 2.51193 16.6173 3.20978 16.3156 3.95334Z" fill="white"/>
<path fill-rule="evenodd" clip-rule="evenodd" d="M16.6875 0.867979C16.9947 1.1211 17.2659 1.48144 17.5189 1.89628L17.7538 1.6256C17.4419 1.32501 17.0889 1.07013 16.7055 0.867979M4.03516 15.3805C8.22841 7.31212 10.2166 2.20391 13.7232 0.813477C10.1082 2.22149 6.0415 7.56524 4.03516 15.3805Z" fill="white"/>
<path fill-rule="evenodd" clip-rule="evenodd" d="M17.7542 1.62305L17.501 1.87617L17.8626 2.59862L18.3326 2.27343C18.1519 2.03964 17.953 1.82168 17.7361 1.62305M5.9151 19.9623H5.77058L5.58984 19.9799C9.83742 19.8709 11.7713 17.7422 12.7474 14.6555C13.4704 12.3088 14.0669 10.3594 14.6091 8.69824C12.6402 11.5353 10.8475 14.4885 9.2409 17.5435C8.37328 19.1309 7.05382 19.8164 5.9151 19.9623Z" fill="white"/>
<path fill-rule="evenodd" clip-rule="evenodd" d="M5.90009 19.9648C7.35598 19.7573 8.61108 18.8345 9.24382 17.5091C11.0513 14.171 12.8226 11.1915 14.612 8.7007C15.2448 6.66163 15.787 5.10947 16.3111 3.93701C12.7685 7.29268 9.20779 12.9071 5.9182 19.9454M4.00221 15.3804C3.24306 16.8236 2.42976 18.3757 1.50781 19.9999H3.11648C3.33343 18.3757 3.62264 16.8411 4.00221 15.3804Z" fill="white"/>
<path fill-rule="evenodd" clip-rule="evenodd" d="M15.071 0.451765H15.0349L14.9627 0.469333H14.9264L14.8721 0.486928H14.8361L14.7095 0.523836H14.6734C14.6494 0.525593 14.6251 0.525593 14.601 0.523836L14.565 0.541404H14.5106L14.4746 0.560743L14.2577 0.613475H14.2214L14.1673 0.650409H14.1311L14.0588 0.685546H14.0407L13.8781 0.740049L13.8058 0.757617L13.7877 0.776956L13.7155 0.794551L13.6973 0.81212C10.1727 2.20255 8.18445 7.31076 3.9912 15.3791C3.62973 16.8399 3.32242 18.3744 3.10547 19.9986H5.7625L5.83475 19.9811H5.92512C9.19678 12.941 12.7575 7.32834 16.3 3.95334C16.6977 3.08673 17.0773 2.40118 17.4931 1.89493C17.28 1.51524 17.0052 1.17423 16.6796 0.884191L16.6255 0.849027L16.5711 0.831458L16.517 0.794551H16.4628L16.4266 0.757617L16.3363 0.72248H16.2821C16.2636 0.710175 16.2455 0.699609 16.2278 0.685546L16.1736 0.667978L16.0833 0.632814L15.9748 0.595907H15.9386L15.8482 0.560743H15.8301C15.7526 0.539649 15.6742 0.52033 15.5952 0.506267H15.559L15.4686 0.486928H15.4505L15.3241 0.469333H15.071M38.9478 5.23476C38.1526 7.83457 37.5019 9.96331 36.9235 11.7317C39.427 8.16858 41.5932 4.38048 43.3942 0.414857C40.9722 1.19181 39.6888 2.92501 38.9478 5.25236M36.9957 18.8614L36.6524 19.0248C40.9722 17.093 46.1054 9.47637 48.5817 0H48.0757C42.4183 10.1074 40.5926 16.8399 36.9957 18.8614ZM34.1761 18.0141C35.116 16.8592 35.8751 14.9274 36.9235 11.7141C35.8407 13.2223 34.6314 14.6356 33.3085 15.9381L33.2904 15.9557C33.5615 16.7502 33.8327 17.4533 34.1761 18.0141ZM34.1761 18.0141C33.8276 18.4447 33.3899 18.7963 32.8927 19.0424C33.3663 19.299 33.8911 19.4467 34.4291 19.4748H35.1701L35.2426 19.4397H35.3871L35.604 19.3852C35.0437 19.1865 34.5738 18.6996 34.158 18.0141M26.2412 19.4942C27.0447 19.4959 27.8415 19.35 28.591 19.06C29.1637 19.3447 29.7947 19.4942 30.4347 19.4942H26.2412Z" fill="white"/>
<path fill-rule="evenodd" clip-rule="evenodd" d="M30.4495 19.4942C31.4435 19.4942 32.2389 19.3676 32.9077 19.0424C33.3813 19.299 33.9061 19.4467 34.4439 19.4748H34.679H30.4495V19.4942ZM34.679 19.4942H34.9501L35.0223 19.4748H35.2031L35.2934 19.4397H35.4019L35.6189 19.3852C35.7996 19.4572 36.0165 19.4942 36.2333 19.4942H34.679ZM33.3052 15.9557C32.6693 16.5604 31.9929 17.1211 31.2809 17.6344C31.4616 17.8699 31.6786 18.0862 31.8774 18.2848C32.2027 18.5906 32.546 18.8438 32.9077 19.0424L33.1607 18.9158C33.5221 18.6996 33.8836 18.392 34.1909 18.0141C33.8657 17.4358 33.5765 16.7502 33.3052 15.9557ZM46.4999 0H44.0055L43.5897 0.0175953L43.409 0.414857C41.6071 4.37345 39.4408 8.15626 36.9383 11.7141C35.8899 14.9098 35.1308 16.8592 34.1909 17.9947C34.5886 18.682 35.0585 19.169 35.6189 19.3676H35.6911L35.7634 19.3307H35.7996L35.8718 19.3131H35.9081L35.9984 19.2762L36.0526 19.2586L36.0888 19.241L36.1429 19.2235L36.1973 19.2041L36.3057 19.169H36.3237L36.3961 19.132H36.4321L36.6491 19.0248H36.6672L37.0106 18.8438C40.6075 16.8592 42.4331 10.0898 48.0905 0H46.4999ZM15.2305 0.451765H15.3208L15.4655 0.469333L15.5738 0.506267H15.61L15.8451 0.560743L15.9534 0.595907H15.9715C16.0142 0.606453 16.0564 0.618751 16.0981 0.632814L16.1885 0.667978H16.2245L16.2969 0.704885L16.333 0.72248L16.4233 0.757617L16.4777 0.776956L16.5318 0.81212H16.5861L16.6403 0.849027C17.038 1.04766 17.3994 1.31838 17.7428 1.62424C17.8662 1.49416 17.9991 1.37463 18.1405 1.26388C17.2994 0.653923 16.2667 0.365632 15.2305 0.451765Z" fill="white"/>
<path fill-rule="evenodd" clip-rule="evenodd" d="M17.7415 1.6256C17.9222 1.80668 18.1392 2.04226 18.3199 2.27609C18.5007 2.13192 18.6814 2.02292 18.8621 1.91567C18.6341 1.67833 18.3862 1.46033 18.1211 1.26518C17.9766 1.37419 17.85 1.48143 17.7236 1.6256M15.2111 0.452929L15.5546 0.435358C16.5305 0.435358 17.3619 0.741268 18.1211 1.26518C18.9165 0.651605 19.8563 0.416016 21.1939 0.416016H14.7773L15.2111 0.452929Z" fill="white"/>
<path fill-rule="evenodd" clip-rule="evenodd" d="M21.1783 0.416305C19.8588 0.416305 18.9189 0.651855 18.1055 1.26533C18.3766 1.44639 18.6477 1.66259 18.8827 1.89638C19.9671 1.21083 21.0517 0.741485 22.1361 0.542852C22.5519 0.470781 22.9496 0.416305 23.3473 0.416305H21.1783ZM36.9033 11.7331C37.4817 9.96475 38.1324 7.83602 38.9457 5.23621C39.6688 2.92644 40.9701 1.17568 43.3921 0.416305L43.5728 0.019043C39.6326 0.272168 37.789 2.27607 36.8491 5.2538C35.2224 10.4341 34.2463 13.8091 33.2883 15.9395C34.6153 14.6405 35.8249 13.2272 36.9033 11.7155" fill="white"/>
</svg>
