<svg id="Calque_1" data-name="Calque 1" xmlns="http://www.w3.org/2000/svg" xmlns:xlink="http://www.w3.org/1999/xlink" viewBox="0 0 1333.04 252.65"><defs><style>.cls-1,.cls-6{fill:none;}.cls-2{clip-path:url(#clip-path);}.cls-3{clip-path:url(#clip-path-3);}.cls-4{opacity:0.34;}.cls-5{clip-path:url(#clip-path-4);}.cls-6{stroke:#fff;stroke-linecap:round;stroke-linejoin:round;stroke-width:3px;}.cls-7{fill:#fff;}.cls-8{isolation:isolate;}.cls-9{clip-path:url(#clip-path-7);}.cls-10{clip-path:url(#clip-path-9);}</style><clipPath id="clip-path"><rect class="cls-1" width="1333.04" height="252.65"/></clipPath><clipPath id="clip-path-3"><rect class="cls-1" width="1333.04" height="252.65"/></clipPath><clipPath id="clip-path-4"><rect class="cls-1" x="3.83" y="4.79" width="318.13" height="243.29"/></clipPath><clipPath id="clip-path-7"><rect class="cls-1" x="182.87" y="59.4" width="1101.78" height="153.39"/></clipPath><clipPath id="clip-path-9"><rect class="cls-1" x="1288.87" y="74.39" width="44.17" height="36.64"/></clipPath></defs><g id="Logo_Normal" data-name="Logo Normal"><g class="cls-2"><g class="cls-2"><g class="cls-3"><g class="cls-4"><g class="cls-5"><polyline class="cls-6" points="192.24 157.5 128.91 231.18 104.47 163.54 48.76 242.91 6.68 159.67 104.47 163.54 96.51 109.11 59.29 78.93 178.25 81.43 209.49 63.99 244.15 6.46"/><polyline class="cls-6" points="49.27 242.25 129.21 230.95 204.64 246.59"/><polyline class="cls-6" points="5.33 157.79 66.06 112.87 96.22 108.95 110.4 37.2 157.74 50.92 185.26 18.02 237.06 6.29 277.97 18.02 294.85 24.31 320.46 73.13 258.06 58.17"/><polyline class="cls-6" points="193.02 156.25 104.21 164.18 151.31 124.68 178.25 81.61 157.3 50.86"/><polyline class="cls-6" points="187.47 17.69 221.29 88.52 178.12 81.72 221.29 88.52 192.98 157.01"/><polyline class="cls-6" points="278.37 17.62 255.77 55.8 223.26 87.17 150.78 124.72 192.51 154.91"/><polygon class="cls-6" points="194.23 157.68 263.18 191.96 249.18 245.12 194.23 157.68"/></g></g><polyline class="cls-6" points="205.15 247.36 134.75 200.91 93.37 247.36 65.68 170.72 16.6 221.36 4.19 159.18 65.68 170.72 65.68 114.06 118.41 126.51 70.05 56.88 129.61 84.46 158.11 51.81 193.35 44.78 212.37 5.4 254.66 56.88 293.92 26.14 298.38 82.67 317.38 71.77"/><polyline class="cls-6" points="16.25 222.01 49.74 244.27 92.24 247.1 203.71 247.1"/><polyline class="cls-6" points="3.14 159.08 26.22 121.11 64.84 113.31 58.92 77.9 70.46 57.08 112.13 35.08 142.93 40.43 157.17 51.34 186.4 16.18 212.19 5.85 262.25 5.85 293.77 25.68 317.98 68.29"/></g><polyline class="cls-6" points="134.07 201.13 65.38 171.44 118.74 126.69 129.28 84.99 111.92 34.22"/><g class="cls-3"><polyline class="cls-6" points="262.71 5.4 255.05 55.8 192.95 44.31 118.15 126.74 134.62 201.63 197.04 188"/><polygon class="cls-6" points="196.65 188.77 205.39 247.44 319.06 247.44 278.62 210.88 250.16 246.14 196.65 188.77"/><polyline class="cls-6" points="148.25 246.99 114.55 222.27 81.15 216.89 17.96 222.27 30.72 164.97 26.58 121.63"/></g><line class="cls-6" x1="158.45" y1="51.06" x2="70.87" y2="57.3"/><line class="cls-6" x1="30.92" y1="164.52" x2="65.59" y2="113.64"/><g class="cls-3"><path class="cls-7" d="M158.26,46.06a5.57,5.57,0,1,1-5.21,5.56,5.39,5.39,0,0,1,5.21-5.56"/><path class="cls-7" d="M213,0a5.39,5.39,0,0,1,5.2,5.56,5.21,5.21,0,1,1-10.4,0A5.39,5.39,0,0,1,213,0"/><path class="cls-7" d="M186.05,13.53a3.15,3.15,0,0,1,3,3.25,3,3,0,1,1-6.08,0,3.15,3.15,0,0,1,3-3.25"/><path class="cls-7" d="M111.29,29.53a5.38,5.38,0,0,1,5.2,5.56,5.21,5.21,0,1,1-10.4,0,5.39,5.39,0,0,1,5.2-5.56"/><path class="cls-7" d="M134.33,196a5.57,5.57,0,1,1-5.2,5.56,5.39,5.39,0,0,1,5.2-5.56"/><path class="cls-7" d="M118.3,119.23a7.75,7.75,0,1,1-7.24,7.73,7.5,7.5,0,0,1,7.24-7.73"/><path class="cls-7" d="M317.86,239a5.57,5.57,0,1,1-5.21,5.56,5.39,5.39,0,0,1,5.21-5.56"/><path class="cls-7" d="M389.77,66.73a7.35,7.35,0,1,1-6.86,7.33,7.1,7.1,0,0,1,6.86-7.33"/><path class="cls-7" d="M94.16,241.53a5.57,5.57,0,1,1-5.2,5.56,5.39,5.39,0,0,1,5.2-5.56"/><path class="cls-7" d="M65.43,165.94a5.57,5.57,0,1,1-5.2,5.56,5.39,5.39,0,0,1,5.2-5.56"/><path class="cls-7" d="M5.2,153a5.57,5.57,0,0,1,0,11.12A5.57,5.57,0,0,1,5.2,153"/><path class="cls-7" d="M255,50.2a5.57,5.57,0,1,1-5.2,5.56A5.39,5.39,0,0,1,255,50.2"/><path class="cls-7" d="M294.18,22.44a3.8,3.8,0,1,1-3.54,3.79,3.68,3.68,0,0,1,3.54-3.79"/><path class="cls-7" d="M452.21,21.85a3.8,3.8,0,1,1-3.54,3.79,3.68,3.68,0,0,1,3.54-3.79"/><path class="cls-7" d="M393.09,224.4a3.8,3.8,0,1,1-3.55,3.79,3.68,3.68,0,0,1,3.55-3.79"/><path class="cls-7" d="M196.12,183.89a3.8,3.8,0,1,1-3.55,3.79,3.68,3.68,0,0,1,3.55-3.79"/><path class="cls-7" d="M129.24,77.67a5.34,5.34,0,1,1-5,5.33,5.16,5.16,0,0,1,5-5.33"/><path class="cls-7" d="M70.89,53.52a3.8,3.8,0,1,1-4,3.79,3.91,3.91,0,0,1,4-3.79"/><path class="cls-7" d="M17.36,218.5a3.8,3.8,0,0,1,0,7.58,3.8,3.8,0,0,1,0-7.58"/><path class="cls-7" d="M205.23,242.71a3.8,3.8,0,1,1-3.55,3.79,3.68,3.68,0,0,1,3.55-3.79"/><path class="cls-7" d="M48.85,239.76a3.8,3.8,0,1,1-3.54,3.79,3.67,3.67,0,0,1,3.54-3.79"/><path class="cls-7" d="M262.69,3a3.11,3.11,0,0,1,3,3.2,3,3,0,1,1-6,0,3.11,3.11,0,0,1,3-3.2"/><path class="cls-7" d="M359.38,29.53a3.21,3.21,0,1,1-3,3.2,3.1,3.1,0,0,1,3-3.2"/><path class="cls-7" d="M501.39,34.84a3.21,3.21,0,1,1-3,3.2,3.1,3.1,0,0,1,3-3.2"/><path class="cls-7" d="M193,40.92a3.21,3.21,0,1,1-3,3.2,3.11,3.11,0,0,1,3-3.2"/><path class="cls-7" d="M65.91,107.91a5.61,5.61,0,1,1-5.4,5.61,5.51,5.51,0,0,1,5.4-5.61"/><path class="cls-7" d="M26.51,117.54a3.21,3.21,0,1,1-3,3.2,3.1,3.1,0,0,1,3-3.2"/><path class="cls-7" d="M58.94,75.94a3.21,3.21,0,1,1-3,3.2,3.11,3.11,0,0,1,3-3.2"/><path class="cls-7" d="M143.28,37.43a3.2,3.2,0,1,1-3,3.19,3.1,3.1,0,0,1,3-3.19"/><path class="cls-7" d="M319.6,66.73a5.57,5.57,0,1,1-5.2,5.56,5.38,5.38,0,0,1,5.2-5.56"/><g class="cls-8"><g class="cls-9"><g class="cls-8"><g class="cls-9"><path class="cls-7" d="M187.56,128.47c0-32.71,15.87-48.44,43.75-48.44s43.75,15.73,43.75,48.44c0,32.29-15.87,48.3-43.75,48.3S187.56,160.76,187.56,128.47Zm16.56,0c0,22.77,9,33.94,27.19,33.94s27.19-11.17,27.19-33.94-9-34.09-27.19-34.09S204.12,105.56,204.12,128.47Z"/><path class="cls-7" d="M318.53,110.25c18.07,0,28,10.63,28,33.12s-10.07,33.26-28,33.26c-6.9,0-13-2.21-16.29-5.94v24.43a7.45,7.45,0,1,1-14.9,0V118.53a7.45,7.45,0,1,1,14.9,0C304.31,115.08,310.8,110.25,318.53,110.25ZM316.59,123c-9.66,0-14.76,6.9-14.76,20.56s5.1,20.42,14.76,20.42,14.77-6.9,14.77-20.42S326.25,123,316.59,123Z"/><path class="cls-7" d="M384.63,110.25c23.32,0,27.6,17.94,27.6,27.46,0,5.11,0,11-8.42,11H369.72c0,9.94,7,14.49,16.15,14.49A23.59,23.59,0,0,0,399.53,159a7.47,7.47,0,0,1,4.42-1.51,6.47,6.47,0,0,1,6.48,6.48,6.91,6.91,0,0,1-2.34,5.11c-2.35,2.21-9.66,7.59-22.22,7.59-19.18,0-31.05-10.35-31.05-33.4C354.82,122.12,365.86,110.25,384.63,110.25Zm-14.49,26.08h27.32c0-6.76-3.86-13.38-12.83-13.38C376.62,123,370.83,127.5,370.14,136.33Z"/><path class="cls-7" d="M478.33,134.26v34.5a7.19,7.19,0,0,1-7.45,7.18c-4.42,0-7.46-3-7.46-7.18V137c0-7.86-3.17-13.25-12.14-13.25-10.35,0-13.8,6.08-13.8,14.22v30.77a7.46,7.46,0,0,1-14.9,0V118.53a7.45,7.45,0,0,1,14.9,0c2.62-4,8.42-8.28,17.66-8.28C473.91,110.25,478.33,122.26,478.33,134.26Z"/><path class="cls-7" d="M562.78,96v71.89a8,8,0,1,1-16,0V96H525.66a7,7,0,1,1,0-14.08H583.9a7,7,0,0,1,0,14.08Z"/><path class="cls-7" d="M604.6,119.22c2.62-5.38,9.1-8.83,14.9-8.83a7,7,0,1,1,0,14.07c-9.52,0-14.9,6.08-14.9,15.32v28.71a7.46,7.46,0,0,1-14.91,0v-50a7.46,7.46,0,0,1,14.91,0Z"/><path class="cls-7" d="M648.06,118.53v32.15c0,6.35,2.21,12.42,12.42,12.42s12.29-6.07,12.29-12.42V118.53a7.45,7.45,0,1,1,14.9,0v32.15c0,13.53-5.11,25.95-27.19,25.95s-27.32-12.42-27.32-25.95V118.53a7.45,7.45,0,1,1,14.9,0Z"/><path class="cls-7" d="M714.85,128.47c0,10.21,33.95,5.51,33.95,28.29,0,13-11,19.59-25.25,19.59-11.87,0-21-5.38-24.43-9.66a6.43,6.43,0,0,1-1.65-4.28,6.71,6.71,0,0,1,6.62-6.62,6.46,6.46,0,0,1,4.28,1.66,22.72,22.72,0,0,0,15.18,5.65c6.21,0,10.21-1.65,10.21-5.52,0-11.17-33.81-5.38-33.81-28.84,0-12.42,10.35-18.49,23-18.49,9.79,0,18.49,3.73,22.35,8.56a5.94,5.94,0,0,1,1.38,4.14,6.71,6.71,0,0,1-6.62,6.62c-1.93,0-3.18-.83-4.69-1.93A20,20,0,0,0,723,123.22C717.89,123.22,714.85,125,714.85,128.47Z"/><path class="cls-7" d="M764.26,100.59a7.31,7.31,0,1,1,14.62,0v11.59h6.21a6.21,6.21,0,1,1,0,12.42h-6.21V158a5.09,5.09,0,0,0,5.25,5,6.49,6.49,0,1,1,0,13c-12.28,0-19.87-7.87-19.87-18.77V124.6h-3.18a6.21,6.21,0,0,1,0-12.42h3.18Z"/><path class="cls-7" d="M828.7,110.25c23.32,0,27.6,17.94,27.6,27.46,0,5.11,0,11-8.41,11H813.8c0,9.94,7,14.49,16.14,14.49A23.63,23.63,0,0,0,843.61,159a7.44,7.44,0,0,1,4.41-1.51,6.47,6.47,0,0,1,6.49,6.48,6.88,6.88,0,0,1-2.35,5.11c-2.34,2.21-9.66,7.59-22.22,7.59-19.18,0-31.05-10.35-31.05-33.4C798.89,122.12,809.93,110.25,828.7,110.25Zm-14.49,26.08h27.33c0-6.76-3.87-13.38-12.84-13.38C820.7,123,814.9,127.5,814.21,136.33Z"/><path class="cls-7" d="M907,115.77V84a7.45,7.45,0,0,1,14.9,0v65c0,18.35-11.87,27.6-28.56,27.6-18.63,0-29.54-10.63-29.54-33.12s10.63-33.26,28-33.26C898.39,110.25,904.19,113,907,115.77ZM907,130s-5.38-7-13.66-7c-9.39,0-14.77,6.9-14.77,20.56s5.24,20.42,14.77,20.42c8,0,13.66-5.38,13.66-14.9Z"/><path class="cls-7" d="M963.94,128.47c0-32.71,15.73-48.44,43.2-48.44,16.69,0,27.6,6.62,33.25,14.9a7.78,7.78,0,0,1,1.52,4.55,7.39,7.39,0,0,1-7.45,7.32,7.66,7.66,0,0,1-5.66-2.76c-5.66-6.21-11.59-9.66-21.66-9.66-18.36,0-26.64,11.31-26.64,34.09,0,24.15,8.28,33.94,26.64,33.94,10.21,0,15.73-2.34,22.35-9.1,2.21-2.21,4-3,5.94-3a7.42,7.42,0,0,1,7.45,7.45,6.75,6.75,0,0,1-1.38,4.14c-6.63,8.83-19.6,14.91-34.36,14.91C979.67,176.77,963.94,162.28,963.94,128.47Z"/><path class="cls-7" d="M1070.06,84v75.62a2.67,2.67,0,0,0,2.62,2.49,6.9,6.9,0,0,1,0,13.8c-10.76,0-17.52-6.07-17.52-17.67V84a7.45,7.45,0,0,1,14.9,0Z"/><path class="cls-7" d="M1115.33,176.63c-18.63,0-30.23-10.63-30.23-33.12s11.6-33.26,30.23-33.26,30.22,10.63,30.22,33.26S1134,176.63,1115.33,176.63Zm0-53.68c-9.94,0-15.18,6.9-15.18,20.56s5.24,20.42,15.18,20.42,15.18-6.9,15.18-20.42S1125.26,123,1115.33,123Z"/><path class="cls-7" d="M1170.66,118.53v32.15c0,6.35,2.21,12.42,12.42,12.42s12.29-6.07,12.29-12.42V118.53a7.45,7.45,0,0,1,14.9,0v32.15c0,13.53-5.11,25.95-27.19,25.95s-27.32-12.42-27.32-25.95V118.53a7.45,7.45,0,0,1,14.9,0Z"/><path class="cls-7" d="M1263.67,115.77V84a7.46,7.46,0,0,1,14.91,0v65c0,18.35-11.87,27.6-28.57,27.6-18.63,0-29.53-10.63-29.53-33.12s10.62-33.26,28-33.26C1255.12,110.25,1260.91,113,1263.67,115.77Zm0,14.21s-5.38-7-13.66-7c-9.38,0-14.77,6.9-14.77,20.56s5.25,20.42,14.77,20.42c8,0,13.66-5.38,13.66-14.9Z"/></g></g></g></g><g class="cls-8"><g class="cls-10"><g class="cls-8"><g class="cls-10"><path class="cls-7" d="M1290.78,82.13a1.09,1.09,0,1,1,0-2.18h14.45a1.09,1.09,0,0,1,0,2.18h-6.06V102a1.16,1.16,0,1,1-2.31,0V82.13Z"/><path class="cls-7" d="M1318.89,98.48l-7.1-13.22V102a1.13,1.13,0,1,1-2.25,0V80.8a1.13,1.13,0,0,1,2.15-.47l8.22,15.4,8.26-15.4a1.13,1.13,0,0,1,2.15.47V102a1.13,1.13,0,1,1-2.25,0V85.26l-7.14,13.22a1.13,1.13,0,0,1-2,0Z"/></g></g></g></g></g></g></g></g></svg>