<svg width="47" height="24" viewBox="0 0 47 24" fill="none" xmlns="http://www.w3.org/2000/svg">
<path fill-rule="evenodd" clip-rule="evenodd" d="M13.7687 8.59277H11.9714L10.9922 13.6282H12.5868C13.6453 13.6282 14.4342 13.4267 14.9521 13.0297C15.4699 12.6312 15.8188 11.9675 15.9985 11.0357C16.1736 10.1409 16.0943 9.51126 15.7623 9.14386C15.4303 8.77646 14.7663 8.59277 13.7687 8.59277Z" fill="white"/>
<path fill-rule="evenodd" clip-rule="evenodd" d="M23.2755 0C10.6585 0 0.429688 5.37233 0.429688 11.9993C0.429688 18.6262 10.6585 24 23.2755 24C35.8925 24 46.1214 18.6277 46.1214 11.9993C46.1214 5.37085 35.8925 0 23.2755 0ZM17.0691 14.1648C16.5723 14.6388 15.976 14.9972 15.3236 15.212C14.6839 15.4164 13.8676 15.5231 12.8776 15.5231H10.628L10.0067 18.7195H7.38096L9.72328 6.69357H14.7678C16.2846 6.69357 17.3919 7.09053 18.088 7.88742C18.7855 8.68283 18.9942 9.79226 18.7155 11.2172C18.6089 11.7815 18.4139 12.3266 18.1367 12.8287C17.8533 13.3279 17.4939 13.7782 17.0691 14.1648ZM24.7301 15.5231L25.7642 10.2026C25.8844 9.59822 25.8388 9.1835 25.6347 8.96576C25.4307 8.74506 24.995 8.63397 24.3264 8.63397H22.2475L20.9072 15.526H18.3027L20.6451 3.49714H23.2466L22.6251 6.69655H24.9433C26.4038 6.69655 27.4092 6.94984 27.9635 7.45641C28.5179 7.96299 28.6823 8.788 28.4631 9.92853L27.3741 15.5245L24.7301 15.5231ZM39.1929 11.2187C39.0883 11.783 38.8923 12.3266 38.6126 12.8287C38.3298 13.3279 37.9694 13.7782 37.5451 14.1648C37.0475 14.6388 36.4508 14.9957 35.798 15.212C35.1585 15.4164 34.3421 15.5231 33.3505 15.5231H31.104L30.4811 18.721H27.86L30.2008 6.69506H35.2453C36.7621 6.69506 37.8679 7.09351 38.5655 7.88891C39.2615 8.68284 39.4732 9.79227 39.1945 11.2187H39.1929Z" fill="white"/>
<path fill-rule="evenodd" clip-rule="evenodd" d="M34.2516 8.59277H32.4589L31.4766 13.6282H33.0712C34.1312 13.6282 34.9202 13.4267 35.4365 13.0297C35.9544 12.6312 36.3016 11.9675 36.4843 11.0357C36.6596 10.1409 36.5788 9.51126 36.2468 9.14386C35.9163 8.77646 35.2477 8.59277 34.2516 8.59277Z" fill="white"/>
</svg>
