<svg width="31" height="30" viewBox="0 0 31 30" fill="none" xmlns="http://www.w3.org/2000/svg">
<path fill-rule="evenodd" clip-rule="evenodd" d="M8.05752 3.31967C8.05752 3.31967 7.57884 0 15.2458 0C23.2585 0 22.6392 4.00275 22.6392 4.00275V10.6171C22.6392 14.6183 18.5622 14.5521 18.5622 14.5521H11.3056C6.95396 14.5521 7.09163 18.8286 7.09163 18.8286V22.4133H4.53603C4.53603 22.4133 0.253906 22.6871 0.253906 14.9613C0.253906 7.23703 5.16002 7.79201 5.16002 7.79201H15.3826V6.76006H8.06605L8.05752 3.31967ZM12.1426 2.69695C11.8957 2.45111 11.5607 2.31272 11.2115 2.31272C10.8624 2.31272 10.5274 2.45111 10.2805 2.69695C10.0336 2.94427 9.89505 3.27845 9.89534 3.62735C9.89505 3.97625 10.0336 4.31042 10.2805 4.55626C10.5274 4.80358 10.8624 4.94197 11.2115 4.94197C11.5607 4.94197 11.8957 4.80358 12.1426 4.55626C12.3895 4.31042 12.5281 3.97625 12.5278 3.62735C12.5281 3.27845 12.3895 2.94427 12.1426 2.69695Z" fill="white"/>
<path fill-rule="evenodd" clip-rule="evenodd" d="M22.6241 26.6803C22.6241 26.6803 23.1029 29.9999 15.4358 29.9999C7.42336 29.9999 8.04234 25.9972 8.04234 25.9972V19.3829C8.04234 15.3816 12.1194 15.4478 12.1194 15.4478H19.376C23.7276 15.4478 23.5898 11.1713 23.5898 11.1713V7.58665H26.1454C26.1454 7.58665 30.4277 7.31283 30.4277 15.0386C30.4277 22.7629 25.5216 22.2079 25.5216 22.2079H15.299V23.2413H22.6157L22.6241 26.6803ZM18.5391 27.303C18.786 27.5503 19.121 27.6872 19.4701 27.6872C19.8193 27.6872 20.1543 27.5488 20.4012 27.303C20.6481 27.0557 20.7867 26.7215 20.7864 26.3726C20.7867 26.0252 20.6481 25.6895 20.4012 25.4437C20.1543 25.1963 19.8193 25.058 19.4701 25.0594C19.121 25.058 18.7859 25.1963 18.5389 25.4437C18.292 25.6895 18.1535 26.0252 18.1539 26.3726C18.1536 26.7215 18.2922 27.0571 18.5391 27.303Z" fill="white"/>
</svg>
