<svg width="31" height="30" viewBox="0 0 31 30" fill="none" xmlns="http://www.w3.org/2000/svg">
<path fill-rule="evenodd" clip-rule="evenodd" d="M26.1831 0.0124924L26.1869 0L21.6132 2.56679L29.5278 9.0591L30.2969 9.69995L19.2719 10.4158L20.5087 15.3221L22.2541 22.151L10.6851 18.4338L10.666 18.472L10.7028 18.4632L7.19687 29.9633L6.56817 28.489L3.04463 20.2064L0.988281 23.9795C1.1746 29.7398 5.26205 29.9206 7.10874 29.9985L7.10145 30H7.12056H7.11516C7.11297 29.9985 7.10874 29.9985 7.10874 29.9985L29.2824 28.4714L30.9883 5.97242L30.9692 6.0121C31.0496 3.28113 29.9738 0.672454 26.1831 0.0124924ZM19.8037 1.45852C17.5974 -0.780644 11.8523 1.84539 7.40142 6.28844L7.39602 6.29285C2.93827 10.7347 0.673282 16.3187 2.88239 18.5558C5.08318 20.7885 10.7586 18.0208 15.2123 13.5774C19.6714 9.13847 22.006 3.69563 19.8037 1.45852Z" fill="white"/>
</svg>
