<svg width="18" height="16" fill="none" xmlns="http://www.w3.org/2000/svg"><path fill-rule="evenodd" clip-rule="evenodd" d="M14.532 3.603h-2.318V2.172c0-.646-.538-1.172-1.198-1.172H6.984c-.66 0-1.198.526-1.198 1.172v1.431H3.468C2.108 3.603 1 4.697 1 6.043v6.965C1 14.106 1.904 15 3.016 15h11.968C16.096 15 17 14.106 17 13.008V6.042c0-1.345-1.107-2.439-2.468-2.439ZM6.727 2.172c0-.138.11-.243.257-.243h4.032c.147 0 .258.105.258.243v1.431H6.727V2.172Zm9.333 10.836a1.07 1.07 0 0 1-1.076 1.063H3.016a1.07 1.07 0 0 1-1.076-1.063v-4.34a2.045 2.045 0 0 0 .509.225l4.79 1.157v.382c0 .6.494 1.088 1.1 1.088H9.66c.607 0 1.101-.488 1.101-1.088v-.382l4.79-1.157a2.045 2.045 0 0 0 .508-.225v4.34Zm-7.881-2.576v-1.31a.16.16 0 0 1 .16-.16H9.66a.16.16 0 0 1 .161.16v1.31a.16.16 0 0 1-.16.16H8.34a.16.16 0 0 1-.161-.16Zm7.88-3.453c0 .467-.299.873-.746 1.015l-4.552 1.1a1.096 1.096 0 0 0-1.1-1.06H8.34c-.598 0-1.086.473-1.1 1.06l-4.553-1.1A1.062 1.062 0 0 1 1.94 6.98v-.937c0-.832.686-1.51 1.528-1.51h11.064a1.52 1.52 0 0 1 1.528 1.51v.937Z" fill="#161616" stroke="#161616" stroke-width=".2"/></svg>