<svg width="16" height="16" fill="none" xmlns="http://www.w3.org/2000/svg"><path fill-rule="evenodd" clip-rule="evenodd" d="M0 4.585A2.593 2.593 0 0 1 2.601 2H13.4A2.593 2.593 0 0 1 16 4.585v6.83A2.593 2.593 0 0 1 13.399 14H2.6A2.593 2.593 0 0 1 0 11.415v-6.83Zm2.601-1.317c-.732 0-1.325.59-1.325 1.317v1.317h13.448V4.585c0-.727-.593-1.317-1.325-1.317H2.6ZM1.276 7.171v4.244c0 .727.593 1.317 1.325 1.317H13.4c.732 0 1.325-.59 1.325-1.317V7.17H1.276Zm9.521 4.244c0-.35.286-.634.639-.634h1.963c.352 0 .638.283.638.634 0 .35-.286.634-.638.634h-1.963a.636.636 0 0 1-.639-.634Z" fill="#161616"/></svg>