<svg width="16" height="16" fill="none" xmlns="http://www.w3.org/2000/svg"><path d="M6.77.72a3.555 3.555 0 0 1 2.46 0l5.671 2.098A1.652 1.652 0 0 1 16 4.358v7.285c0 .682-.437 1.294-1.099 1.539l-5.67 2.098a3.554 3.554 0 0 1-2.462 0L1.1 13.182A1.652 1.652 0 0 1 0 11.642V4.358c0-.682.437-1.294 1.099-1.539L6.769.72Zm2.05 1.026a2.37 2.37 0 0 0-1.64 0l-1.583.585 6.39 2.328 2.225-.918-5.391-1.995Zm6.037 2.925L8.571 7.263v7.068a2.37 2.37 0 0 0 .25-.077l5.67-2.098a.55.55 0 0 0 .366-.513V4.67Zm-7.428 9.66V7.263L1.143 4.671v6.972a.55.55 0 0 0 .366.513l5.67 2.098c.082.03.165.056.25.077ZM1.788 3.74 8 6.302l2.473-1.02-6.477-2.358-2.208.817Z" fill="#161616"/></svg>