<svg width="16" height="16" fill="none" xmlns="http://www.w3.org/2000/svg"><path d="M8 0c1.795 0 3.25 1.433 3.25 3.2v1.6h1.422c1.01 0 1.828.806 1.828 1.8v7.6c0 .994-.819 1.8-1.828 1.8H3.328c-1.01 0-1.828-.806-1.828-1.8V6.6c0-.994.818-1.8 1.828-1.8H4.75V3.2C4.75 1.433 6.205 0 8 0Zm4.672 6H3.328a.605.605 0 0 0-.61.6v7.6c0 .331.274.6.61.6h9.344c.336 0 .61-.269.61-.6V6.6c0-.331-.274-.6-.61-.6ZM8 9.2a1.21 1.21 0 0 1 1.219 1.2c0 .663-.546 1.2-1.219 1.2a1.21 1.21 0 0 1-1.219-1.2c0-.663.546-1.2 1.22-1.2Zm0-8c-1.122 0-2.031.895-2.031 2v1.6h4.062V3.2c0-1.105-.91-2-2.031-2Z" fill="#161616"/></svg>