<svg width="16" height="16" fill="none" xmlns="http://www.w3.org/2000/svg"><path d="M9.076.908a.532.532 0 0 0-.752-.752L6.82 1.66a1.595 1.595 0 0 0 0 2.256l.158.158-3.414 1.219a2.659 2.659 0 0 0-1.679 1.833L.047 14.172a1.46 1.46 0 0 0 1.781 1.78l7.046-1.837a2.66 2.66 0 0 0 1.833-1.679l1.22-3.414.157.158a1.595 1.595 0 0 0 2.256 0l1.504-1.504a.532.532 0 0 0-.752-.752l-1.504 1.504a.532.532 0 0 1-.752 0L7.572 3.164a.532.532 0 0 1 0-.752L9.076.908Zm2.018 7.282L9.705 12.08c-.177.496-.589.873-1.1 1.007l-6.682 1.743 4.245-4.245a1.063 1.063 0 1 0-.752-.752l-4.245 4.245 1.743-6.683c.134-.51.51-.922 1.008-1.1L7.81 4.907l3.284 3.284Z" fill="#161616"/></svg>