<svg width="16" height="16" fill="none" xmlns="http://www.w3.org/2000/svg"><path d="M2.889 0H13.11c1.54 0 2.8 1.206 2.884 2.725l.005.164V13.11c0 1.54-1.206 2.8-2.725 2.884l-.164.005H2.89c-1.54 0-2.8-1.206-2.884-2.725L0 13.111V2.89C0 1.349 1.206.089 2.725.005L2.889 0H13.11 2.89ZM1.333 10.222v2.89c0 .815.629 1.485 1.428 1.55l.128.005H13.11c.816 0 1.486-.629 1.55-1.428l.006-.128v-2.889h-3.4a3.335 3.335 0 0 1-3.089 2.662L8 12.89a3.335 3.335 0 0 1-3.228-2.5l-.039-.167h-3.4v2.89-2.89Zm11.778-8.889H2.89c-.816 0-1.486.629-1.55 1.428l-.006.128v6h4c.338 0 .617.25.66.576l.007.09a2 2 0 0 0 3.995.137L10 9.556c0-.338.25-.617.576-.661l.09-.006h4v-6c0-.816-.628-1.486-1.427-1.55l-.128-.006Z" fill="#161616"/></svg>