<svg width="16" height="16" fill="none" xmlns="http://www.w3.org/2000/svg"><path d="M8.009 0a8.835 8.835 0 0 1 1.806.208.617.617 0 0 1 .482.532l.14 1.253a1.142 1.142 0 0 0 1.596.916l1.16-.505a.625.625 0 0 1 .702.143 8.02 8.02 0 0 1 1.825 3.11.612.612 0 0 1-.224.679l-1.028.75a1.13 1.13 0 0 0 0 1.827l1.03.751a.612.612 0 0 1 .224.678 8.023 8.023 0 0 1-1.824 3.111.625.625 0 0 1-.703.144l-1.164-.506a1.152 1.152 0 0 0-1.03.057c-.315.18-.524.498-.564.856l-.14 1.253a.617.617 0 0 1-.474.53 7.946 7.946 0 0 1-3.647 0 .617.617 0 0 1-.474-.53l-.14-1.25a1.133 1.133 0 0 0-.565-.855c-.314-.18-.696-.2-1.028-.057l-1.164.506a.625.625 0 0 1-.703-.144 8.023 8.023 0 0 1-1.824-3.115.612.612 0 0 1 .225-.677l1.029-.751a1.13 1.13 0 0 0 0-1.827l-1.03-.75a.612.612 0 0 1-.224-.678 8.02 8.02 0 0 1 1.825-3.112.625.625 0 0 1 .703-.142l1.16.504a1.148 1.148 0 0 0 1.597-.917L5.704.74a.617.617 0 0 1 .482-.532C6.78.077 7.386.008 8.01 0Zm0 1.23a7.63 7.63 0 0 0-1.121.097l-.09.802a2.367 2.367 0 0 1-1.175 1.784c-.657.38-1.46.427-2.157.123l-.744-.324a6.79 6.79 0 0 0-1.115 1.902l.66.481c.612.446.973 1.153.973 1.905 0 .753-.361 1.46-.972 1.905l-.662.483c.265.69.642 1.334 1.116 1.905l.75-.326c.693-.3 1.49-.256 2.146.119a2.365 2.365 0 0 1 1.179 1.783l.09.807a6.692 6.692 0 0 0 2.225 0l.09-.807c.084-.747.52-1.41 1.178-1.787a2.404 2.404 0 0 1 2.15-.119l.748.326c.473-.57.85-1.213 1.115-1.902l-.66-.482A2.357 2.357 0 0 1 12.76 8c0-.753.361-1.46.972-1.905l.66-.482a6.791 6.791 0 0 0-1.116-1.901l-.742.323c-.303.132-.63.2-.96.2a2.38 2.38 0 0 1-2.37-2.107l-.09-.801a7.507 7.507 0 0 0-1.105-.096Zm-.01 3.693c1.714 0 3.104 1.378 3.104 3.077 0 1.7-1.39 3.077-3.105 3.077-1.714 0-3.104-1.378-3.104-3.077 0-1.7 1.39-3.077 3.104-3.077Zm0 1.23A1.854 1.854 0 0 0 6.135 8c0 1.02.834 1.846 1.862 1.846A1.854 1.854 0 0 0 9.861 8c0-1.02-.834-1.846-1.863-1.846Z" fill="#161616"/></svg>