<svg width="16" height="16" fill="none" xmlns="http://www.w3.org/2000/svg"><path d="M10.56 8.2c0-.331-.264-.6-.59-.6H6.03a.596.596 0 0 0-.59.6v.4C5.44 9.4 6.53 10 8 10s2.56-.6 2.56-1.4v-.4ZM9.38 5.396C9.379 4.623 8.762 4 8 4s-1.379.623-1.379 1.396c0 .774.617 1.4 1.379 1.4a1.39 1.39 0 0 0 1.379-1.4ZM1.5 2c0-1.105.882-2 1.97-2h9.06c1.088 0 1.97.895 1.97 2v11.4c0 .331-.265.6-.59.6H2.681c0 .442.353.8.788.8h10.44c.325 0 .59.269.59.6 0 .331-.265.6-.59.6H3.47c-1.088 0-1.97-.895-1.97-2V2Zm1.182 0v10.8h10.636V2c0-.442-.353-.8-.788-.8H3.47a.794.794 0 0 0-.788.8Z" fill="#161616"/></svg>