<svg width="16" height="16" fill="none" xmlns="http://www.w3.org/2000/svg"><path fill-rule="evenodd" clip-rule="evenodd" d="M5 14H2a2 2 0 0 1-2-2V4a2 2 0 0 1 2-2h3v12Zm-3-3.5a.5.5 0 0 0 .5.5H4v2H2a1 1 0 0 1-1-1V4a1 1 0 0 1 1-1h2v2H2.5a.5.5 0 0 0 0 1H4v1.5H2.5a.5.5 0 0 0 0 1H4V10H2.5a.5.5 0 0 0-.5.5Z" fill="#161616"/><path fill-rule="evenodd" clip-rule="evenodd" d="M14 1H6a1 1 0 0 0-1 1v12a1 1 0 0 0 1 1h8a1 1 0 0 0 1-1V2a1 1 0 0 0-1-1ZM6 0a2 2 0 0 0-2 2v12a2 2 0 0 0 2 2h8a2 2 0 0 0 2-2V2a2 2 0 0 0-2-2H6Z" fill="#161616"/><path d="M9.955 6.446c.03.067.045.127.045.18a.345.345 0 0 1-.128.268.42.42 0 0 1-.284.106.388.388 0 0 1-.2-.056.388.388 0 0 1-.146-.179l-.295-.66H7.06l-.296.66a.388.388 0 0 1-.145.18.37.37 0 0 1-.2.055.442.442 0 0 1-.29-.106A.345.345 0 0 1 6 6.625c0-.052.015-.112.045-.179l1.504-3.172a.422.422 0 0 1 .184-.201.515.515 0 0 1 .719.201l1.503 3.172ZM7.354 5.445h1.298L8.006 3.99l-.652 1.455Z" fill="#161616"/><path fill-rule="evenodd" clip-rule="evenodd" d="M6 9a.5.5 0 0 1 .5-.5h7a.5.5 0 0 1 0 1h-7A.5.5 0 0 1 6 9ZM6 11.5a.5.5 0 0 1 .5-.5h7a.5.5 0 0 1 0 1h-7a.5.5 0 0 1-.5-.5Z" fill="#161616"/></svg>