<svg width="16" height="16" fill="none" xmlns="http://www.w3.org/2000/svg"><path fill-rule="evenodd" clip-rule="evenodd" d="M9.8 3.988c0 .984-.802 1.789-1.8 1.789-.999 0-1.8-.805-1.8-1.789C6.2 3.005 7.001 2.2 8 2.2c.998 0 1.8.805 1.8 1.788Zm-.69 2.778a3.002 3.002 0 0 1-2.017.072L5.097 9.82c.396.386.685.88.82 1.435h4.18a2.981 2.981 0 0 1 .88-1.45L9 6.837l.11-.072Zm.907-.566A2.975 2.975 0 0 0 11 3.988 2.994 2.994 0 0 0 8 1C6.343 1 5 2.338 5 3.988c0 .905.404 1.716 1.041 2.264l-1.954 2.92A3.002 3.002 0 0 0 3 8.968c-1.657 0-3 1.338-3 2.988a2.994 2.994 0 0 0 3 2.988 2.997 2.997 0 0 0 2.958-2.49h4.076a2.982 2.982 0 0 0 1.466 2.144 3.006 3.006 0 0 0 4.098-1.093A2.981 2.981 0 0 0 14.5 9.424a3.004 3.004 0 0 0-2.49-.233l-1.993-2.99ZM4.8 11.957c0 .983-.802 1.788-1.8 1.788-.999 0-1.8-.805-1.8-1.788s.801-1.788 1.8-1.788c.998 0 1.8.805 1.8 1.788Zm6.64-.837a1.781 1.781 0 0 0 .659 2.439c.863.497 1.965.2 2.461-.655a1.781 1.781 0 0 0-.658-2.44 1.806 1.806 0 0 0-2.461.656Z" fill="#161616"/></svg>