<?xml version="1.0" encoding="UTF-8"?>
<svg width="16px" height="16px" viewBox="0 0 16 16" version="1.1" xmlns="http://www.w3.org/2000/svg" xmlns:xlink="http://www.w3.org/1999/xlink">
    <title>close_black copy 4</title>
    <g id="Symbols" stroke="none" stroke-width="1" fill="none" fill-rule="evenodd">
        <g id="Icons/close/large/dark/default" transform="translate(-8.000000, -8.000000)" fill="#FFFFFF" fill-rule="nonzero">
            <path d="M21.3525939,9.19060274 C21.7548791,8.78831761 22.4071121,8.78831761 22.8093973,9.19060274 C23.2116824,9.59288787 23.2116824,10.2451209 22.8093973,10.6474061 L17.4568033,16 L22.8093973,21.3525939 C23.2116824,21.7548791 23.2116824,22.4071121 22.8093973,22.8093973 C22.4071121,23.2116824 21.7548791,23.2116824 21.3525939,22.8093973 L16,17.4568033 L10.6474061,22.8093973 C10.2451209,23.2116824 9.59288787,23.2116824 9.19060274,22.8093973 C8.78831761,22.4071121 8.78831761,21.7548791 9.19060274,21.3525939 L14.5431967,16 L9.19060274,10.6474061 C8.78831761,10.2451209 8.78831761,9.59288787 9.19060274,9.19060274 C9.59288787,8.78831761 10.2451209,8.78831761 10.6474061,9.19060274 L16,14.5431967 L21.3525939,9.19060274 Z" id="close_black-copy-4"></path>
        </g>
    </g>
</svg>